<svg id="e1hWGves9kd1" xmlns="http://www.w3.org/2000/svg" xmlns:xlink="http://www.w3.org/1999/xlink" viewBox="0 0 375 96" shape-rendering="geometricPrecision" text-rendering="geometricPrecision">
<style><![CDATA[
#e1hWGves9kd3_to {animation: e1hWGves9kd3_to__to 8000ms linear infinite normal forwards}@keyframes e1hWGves9kd3_to__to { 0% {transform: translate(191.5px,76px)} 100% {transform: translate(713.5px,76px)}} #e1hWGves9kd55_to {animation: e1hWGves9kd55_to__to 8000ms linear infinite normal forwards}@keyframes e1hWGves9kd55_to__to { 0% {transform: translate(253px,20px)} 100% {transform: translate(-268px,20px)}}
]]></style>
<g transform="translate(.5 0)" clip-path="url(#e1hWGves9kd52)"><g id="e1hWGves9kd3_to" transform="translate(191.5,76)"><g transform="translate(-191.5,-76)"><g><circle r="12" transform="translate(28 76)" fill="#171717"/><path d="M24.012,68.203c-.164709-.065227-.329375-.130561-.494-.196l-.007-.002c-.003355-.001624-.006688-.003291-.01-.005l-.001.486v15.514c1.066627-.135305,2.138644-.224056,3.213-.266v-8.061l-.62-1.717-1.422-3.932-.38-1.048-.21-.58c-.045-.126-.04-.115-.07-.193m7.978,15.594l.484.192.01.004.006.002.012.005v-16h-3.214v8.327l.621,1.716c.199.555,1.331,3.683,1.422,3.933l.38,1.048.209.58.07.193" clip-rule="evenodd" fill="#af1f1f" fill-rule="evenodd"/><path d="M26.713,68h-3.213l5.69,15.734c1.6.04,3.31.266,3.31.266L26.713,68" clip-rule="evenodd" fill="#e50914" fill-rule="evenodd"/><path d="M57.98,81.5h-1.27l-6.446-8.374v8.374h-1.204v-10.254h1.271l6.446,8.374v-8.374h1.203v10.254Zm8.122-.84c-.848.65-1.782.977-2.803.977-.711,0-1.35-.16-1.914-.479-.55323-.307489-1.015473-.755589-1.34-1.299-.324-.551-.485-1.173-.485-1.866c0-.665.15-1.258.45-1.777.302-.524.714-.937,1.238-1.237.524-.301,1.119-.452,1.784-.452.684,0,1.285.164,1.805.492.524.329.932.784,1.224,1.368.291.583.437,1.257.437,2.023v.219h-5.722c.082.4.246.75.493,1.046.25.296.56.526.93.69.368.164.78.246,1.236.246.784,0,1.5-.257,2.147-.772l.52.82Zm-5.367-2.988h4.704c-.040098-.396159-.176383-.776521-.397-1.108-.204825-.314627-.487228-.5712-.82-.745-.347987-.181205-.735717-.272638-1.128-.266-.424,0-.807.089-1.149.266-.333958.174796-.618407.43104-.827.745-.216179.332541-.347672.712944-.383,1.108Zm11.102,3.664c-.451.2-.891.3-1.32.3-.41,0-.77-.088-1.08-.266-.307604-.180265-.558447-.443234-.724-.759-.179094-.353196-.268393-.745082-.26-1.141v-3.801h-1.196v-1.005h1.25v-1.709h1.067v1.71h2.044v1.004h-2.044v3.596c0,.41.11.74.328.99.224.252.515.377.875.377.292,0,.584-.087.875-.26l.185.964Zm2.932.164h-1.12v-5.831h-1.197v-1.005h1.196v-1.47c0-.424.09-.797.267-1.12.182-.324.433-.577.752-.76.34118-.186571.725216-.280684,1.114-.273.26,0,.52.037.78.11.264.068.521.175.772.32l-.43.882c-.146471-.095935-.305243-.171621-.472-.225-.153997-.053773-.315885-.081487-.479-.082-.35,0-.636.127-.854.383-.22.25-.329.578-.329.984v1.251h2.113v1.005h-2.113v5.831Zm5.189,0h-1.19v-10.527h1.19v10.527Zm2.707-8.996c-.182059.003733-.35757-.067919-.485-.198-.126154-.132406-.195125-.309144-.192-.492-.003572-.180623.066607-.354904.194351-.482649s.302026-.197923.482649-.194351c.196,0,.36.066.492.198.129723.125275.201765.298683.199.479.002702.18412-.069056.361531-.199.492-.129651.131064-.307704.202719-.492.198Zm.56,8.996h-1.12v-6.836h1.12v6.836Zm2.619,0h-1.415l2.925-3.534-2.7-3.302h1.456l1.976,2.413l1.941-2.413h1.415L88.79,77.94l2.919,3.561h-1.463l-2.18-2.673-2.222,2.673Z" fill="#100a37"/><rect width="99" height="39" rx="19.5" ry="19.5" transform="translate(8.5 56.5)" fill="none" stroke="#a4a8b8"/></g><g transform="translate(-522 0)"><circle r="12" transform="translate(28 76)" fill="#171717"/><path d="M24.012,68.203c-.164709-.065227-.329375-.130561-.494-.196l-.007-.002c-.003355-.001624-.006688-.003291-.01-.005l-.001.486v15.514c1.066627-.135305,2.138644-.224056,3.213-.266v-8.061l-.62-1.717-1.422-3.932-.38-1.048-.21-.58c-.045-.126-.04-.115-.07-.193m7.978,15.594l.484.192.01.004.006.002.012.005v-16h-3.214v8.327l.621,1.716c.199.555,1.331,3.683,1.422,3.933l.38,1.048.209.58.07.193" clip-rule="evenodd" fill="#af1f1f" fill-rule="evenodd"/><path d="M26.713,68h-3.213l5.69,15.734c1.6.04,3.31.266,3.31.266L26.713,68" clip-rule="evenodd" fill="#e50914" fill-rule="evenodd"/><path d="M57.98,81.5h-1.27l-6.446-8.374v8.374h-1.204v-10.254h1.271l6.446,8.374v-8.374h1.203v10.254Zm8.122-.84c-.848.65-1.782.977-2.803.977-.711,0-1.35-.16-1.914-.479-.55323-.307489-1.015473-.755589-1.34-1.299-.324-.551-.485-1.173-.485-1.866c0-.665.15-1.258.45-1.777.302-.524.714-.937,1.238-1.237.524-.301,1.119-.452,1.784-.452.684,0,1.285.164,1.805.492.524.329.932.784,1.224,1.368.291.583.437,1.257.437,2.023v.219h-5.722c.082.4.246.75.493,1.046.25.296.56.526.93.69.368.164.78.246,1.236.246.784,0,1.5-.257,2.147-.772l.52.82Zm-5.367-2.988h4.704c-.040098-.396159-.176383-.776521-.397-1.108-.204825-.314627-.487228-.5712-.82-.745-.347987-.181205-.735717-.272638-1.128-.266-.424,0-.807.089-1.149.266-.333958.174796-.618407.43104-.827.745-.216179.332541-.347672.712944-.383,1.108Zm11.102,3.664c-.451.2-.891.3-1.32.3-.41,0-.77-.088-1.08-.266-.307604-.180265-.558447-.443234-.724-.759-.179094-.353196-.268393-.745082-.26-1.141v-3.801h-1.196v-1.005h1.25v-1.709h1.067v1.71h2.044v1.004h-2.044v3.596c0,.41.11.74.328.99.224.252.515.377.875.377.292,0,.584-.087.875-.26l.185.964Zm2.932.164h-1.12v-5.831h-1.197v-1.005h1.196v-1.47c0-.424.09-.797.267-1.12.182-.324.433-.577.752-.76.34118-.186571.725216-.280684,1.114-.273.26,0,.52.037.78.11.264.068.521.175.772.32l-.43.882c-.146471-.095935-.305243-.171621-.472-.225-.153997-.053773-.315885-.081487-.479-.082-.35,0-.636.127-.854.383-.22.25-.329.578-.329.984v1.251h2.113v1.005h-2.113v5.831Zm5.189,0h-1.19v-10.527h1.19v10.527Zm2.707-8.996c-.182059.003733-.35757-.067919-.485-.198-.126154-.132406-.195125-.309144-.192-.492-.003572-.180623.066607-.354904.194351-.482649s.302026-.197923.482649-.194351c.196,0,.36.066.492.198.129723.125275.201765.298683.199.479.002702.18412-.069056.361531-.199.492-.129651.131064-.307704.202719-.492.198Zm.56,8.996h-1.12v-6.836h1.12v6.836Zm2.619,0h-1.415l2.925-3.534-2.7-3.302h1.456l1.976,2.413l1.941-2.413h1.415L88.79,77.94l2.919,3.561h-1.463l-2.18-2.673-2.222,2.673Z" fill="#100a37"/><rect width="99" height="39" rx="19.5" ry="19.5" transform="translate(8.5 56.5)" fill="none" stroke="#a4a8b8"/></g><g><circle r="12" transform="translate(144 76)" fill="#1ed760"/><path d="M151.098,74.638c.532955.316459,1.221541.140955,1.538-.392s.140955-1.221541-.392-1.538c-4.453-2.644-11.5-2.892-15.738-1.605-.593154.179769-.928269.806346-.7485,1.3995s.806346.928269,1.3995.7485c3.693-1.121,10.073-.91,13.941,1.387Zm-.126,3.402c.269511-.440259.131715-1.015602-.308-1.286-3.704-2.276-9.122-2.916-13.48-1.594-.474836.164726-.73482.675055-.588921,1.15601s.645593.760835,1.131921.63399c3.816-1.158,8.733-.584,11.958,1.399.440471.270192,1.016567.132323,1.287-.308Zm-1.468,3.268c.103775-.169189.136053-.372685.089726-.565683s-.167459-.359669-.336726-.463317c-3.164-1.932-7.085-2.382-11.656-1.337-.260447.059485-.469374.253397-.548083.508693s-.015238.533189.1665.729.454136.279792.714583.220307c4.177-.954,7.724-.565,10.542,1.157.169277.103551.372799.135493.56566.088779s.359209-.168246.46234-.337779Z" fill="#fff"/><path d="M164.581,80.502l.581-.923c.296.242.593.442.889.602s.597.278.902.355c.31.078.624.116.943.116.465,0,.871-.077,1.217-.232.326966-.135826.610782-.358108.821-.643.196583-.279958.2995-.61496.294-.957c0-.392-.112-.715-.335-.97-.238613-.27509-.529163-.500393-.855-.663-.366033-.189337-.740045-.362831-1.121-.52-.334138-.141829-.66458-.292212-.991-.451-.31722-.152822-.617531-.338505-.896-.554-.26197-.211466-.478043-.474156-.635-.772-.16-.301-.24-.663-.24-1.087c0-.543.137-1.021.41-1.436.282034-.421466.674737-.75708,1.135-.97.488-.233,1.048-.35,1.682-.35.428,0,.859.058,1.292.172.433.11.852.27,1.258.485l-.493.985c-.315222-.185292-.652549-.330101-1.004-.431-.347-.1-.689-.15-1.026-.15-.401,0-.754.068-1.059.204-.283756.11861-.529638.312618-.711.561-.170983.24397-.259619.536153-.253.834c0,.356.102.654.307.896.21.241.479.45.807.628.333.174.684.342,1.053.506.351.155.697.32,1.039.493.346.168.658.369.936.601.283.228.508.501.677.82.169.32.253.705.253,1.156c0,.578-.146,1.087-.437,1.524-.292.433-.702.77-1.231,1.012-.524.241-1.139.362-1.846.362-.619,0-1.21-.1-1.77-.3-.577633-.210076-1.116061-.515287-1.593-.903Zm9.775,4.416h-1.121v-10.254h.998l.055.998c.319-.35.704-.627,1.155-.827.466698-.208387.97292-.313452,1.484-.308.67,0,1.269.155,1.798.465.533.31.952.734,1.257,1.272.31.533.465,1.139.465,1.818c0,.675-.155,1.28-.465,1.818-.296643.529584-.730972.969096-1.257,1.272-.529.31-1.128.465-1.798.465-.492658.004539-.981136-.090707-1.436-.28-.427418-.180151-.813617-.445556-1.135-.78v4.341Zm2.482-4.307c.478,0,.902-.107,1.271-.321.37-.219.657-.52.862-.902.209-.383.314-.82.314-1.313c0-.496-.105-.934-.314-1.312-.201531-.374553-.501702-.686828-.868-.903-.381131-.223085-.816464-.33659-1.258-.328-.427012-.005856-.848405.097771-1.224.301-.36.2-.652.476-.875.827-.226931.358065-.360976.767074-.39,1.19v.465c.029146.421569.160607.82968.383,1.189.219.346.508.617.868.813.379259.199485.802527.300574,1.231.294Zm8.224,1.026c-.68,0-1.29-.155-1.833-.465-.532525-.300796-.975889-.737259-1.285-1.265-.31-.537-.465-1.146-.465-1.825c0-.674.155-1.278.465-1.811.307519-.530787.751113-.969894,1.285-1.272.557739-.318564,1.190766-.48157,1.833-.472.679,0,1.287.158,1.825.472.537.31.961.734,1.271,1.272.31.533.465,1.137.465,1.811c0,.68-.155,1.288-.465,1.825-.31.533-.734.955-1.271,1.265-.538.31-1.146.465-1.825.465Zm-.007-1.012c.46,0,.872-.112,1.237-.335s.652-.526.861-.91c.21899-.399598.329975-.8494.322-1.305c0-.478-.107-.909-.322-1.292-.200967-.374241-.498201-.688045-.861-.909-.372743-.225496-.801405-.341585-1.237-.335-.461,0-.875.112-1.244.335-.36389.222581-.663419.536242-.869.91-.212515.396719-.320572.840994-.314,1.291c0,.488.105.923.314,1.306.215.383.504.686.869.909.369.223.783.335,1.244.335Zm9.044.71c-.452.202-.891.302-1.32.302-.41,0-.77-.09-1.08-.267-.307739-.180094-.558624-.443108-.724-.759-.174-.328-.26-.708-.26-1.141v-3.801h-1.196v-1.005h1.251v-1.709h1.066v1.71h2.044v1.004h-2.044v3.596c0,.41.109.74.328.99.223.252.515.377.875.377.292,0,.583-.087.875-.26l.185.964Zm1.886-8.831c-.182059.003733-.35757-.067919-.485-.198-.125975-.132447-.19461-.309246-.191-.492-.004135-.180613.065724-.35507.193376-.48291s.302005-.197958.482624-.19409c.196,0,.36.066.493.198.129355.125446.201026.298833.198.479.002853.183954-.068519.361302-.198.492-.13016.130916-.308446.202519-.493.198Zm.561,8.996h-1.121v-6.836h1.121v6.836Zm3.794,0h-1.121v-5.831h-1.197v-1.005h1.197v-1.47c0-.424.089-.797.266-1.12.183-.324.433-.577.752-.76.341526-.18661.725894-.28072,1.115-.273.259,0,.519.037.779.11.264.068.522.175.772.32l-.43.882c-.146549-.095797-.305301-.171473-.472-.225-.154012-.053719-.31589-.081431-.479-.082-.35,0-.635.127-.854.383-.219.25-.328.578-.328.984v1.251h2.112v1.005h-2.112v5.831Zm5.756,3.418h-1.224l1.436-3.473-3.268-6.78h1.237l2.571,5.488l2.269-5.489h1.217l-4.238,10.254Z" fill="#100a37"/><rect width="102" height="39" rx="19.5" ry="19.5" transform="translate(124.5 56.5)" fill="none" stroke="#a4a8b8"/></g><g transform="translate(-522 0)"><circle r="12" transform="translate(144 76)" fill="#1ed760"/><path d="M151.098,74.638c.532955.316459,1.221541.140955,1.538-.392s.140955-1.221541-.392-1.538c-4.453-2.644-11.5-2.892-15.738-1.605-.593154.179769-.928269.806346-.7485,1.3995s.806346.928269,1.3995.7485c3.693-1.121,10.073-.91,13.941,1.387Zm-.126,3.402c.269511-.440259.131715-1.015602-.308-1.286-3.704-2.276-9.122-2.916-13.48-1.594-.474836.164726-.73482.675055-.588921,1.15601s.645593.760835,1.131921.63399c3.816-1.158,8.733-.584,11.958,1.399.440471.270192,1.016567.132323,1.287-.308Zm-1.468,3.268c.103775-.169189.136053-.372685.089726-.565683s-.167459-.359669-.336726-.463317c-3.164-1.932-7.085-2.382-11.656-1.337-.260447.059485-.469374.253397-.548083.508693s-.015238.533189.1665.729.454136.279792.714583.220307c4.177-.954,7.724-.565,10.542,1.157.169277.103551.372799.135493.56566.088779s.359209-.168246.46234-.337779Z" fill="#fff"/><path d="M164.581,80.502l.581-.923c.296.242.593.442.889.602s.597.278.902.355c.31.078.624.116.943.116.465,0,.871-.077,1.217-.232.326966-.135826.610782-.358108.821-.643.196583-.279958.2995-.61496.294-.957c0-.392-.112-.715-.335-.97-.238613-.27509-.529163-.500393-.855-.663-.366033-.189337-.740045-.362831-1.121-.52-.334138-.141829-.66458-.292212-.991-.451-.31722-.152822-.617531-.338505-.896-.554-.26197-.211466-.478043-.474156-.635-.772-.16-.301-.24-.663-.24-1.087c0-.543.137-1.021.41-1.436.282034-.421466.674737-.75708,1.135-.97.488-.233,1.048-.35,1.682-.35.428,0,.859.058,1.292.172.433.11.852.27,1.258.485l-.493.985c-.315222-.185292-.652549-.330101-1.004-.431-.347-.1-.689-.15-1.026-.15-.401,0-.754.068-1.059.204-.283756.11861-.529638.312618-.711.561-.170983.24397-.259619.536153-.253.834c0,.356.102.654.307.896.21.241.479.45.807.628.333.174.684.342,1.053.506.351.155.697.32,1.039.493.346.168.658.369.936.601.283.228.508.501.677.82.169.32.253.705.253,1.156c0,.578-.146,1.087-.437,1.524-.292.433-.702.77-1.231,1.012-.524.241-1.139.362-1.846.362-.619,0-1.21-.1-1.77-.3-.577633-.210076-1.116061-.515287-1.593-.903Zm9.775,4.416h-1.121v-10.254h.998l.055.998c.319-.35.704-.627,1.155-.827.466698-.208387.97292-.313452,1.484-.308.67,0,1.269.155,1.798.465.533.31.952.734,1.257,1.272.31.533.465,1.139.465,1.818c0,.675-.155,1.28-.465,1.818-.296643.529584-.730972.969096-1.257,1.272-.529.31-1.128.465-1.798.465-.492658.004539-.981136-.090707-1.436-.28-.427418-.180151-.813617-.445556-1.135-.78v4.341Zm2.482-4.307c.478,0,.902-.107,1.271-.321.37-.219.657-.52.862-.902.209-.383.314-.82.314-1.313c0-.496-.105-.934-.314-1.312-.201531-.374553-.501702-.686828-.868-.903-.381131-.223085-.816464-.33659-1.258-.328-.427012-.005856-.848405.097771-1.224.301-.36.2-.652.476-.875.827-.226931.358065-.360976.767074-.39,1.19v.465c.029146.421569.160607.82968.383,1.189.219.346.508.617.868.813.379259.199485.802527.300574,1.231.294Zm8.224,1.026c-.68,0-1.29-.155-1.833-.465-.532525-.300796-.975889-.737259-1.285-1.265-.31-.537-.465-1.146-.465-1.825c0-.674.155-1.278.465-1.811.307519-.530787.751113-.969894,1.285-1.272.557739-.318564,1.190766-.48157,1.833-.472.679,0,1.287.158,1.825.472.537.31.961.734,1.271,1.272.31.533.465,1.137.465,1.811c0,.68-.155,1.288-.465,1.825-.31.533-.734.955-1.271,1.265-.538.31-1.146.465-1.825.465Zm-.007-1.012c.46,0,.872-.112,1.237-.335s.652-.526.861-.91c.21899-.399598.329975-.8494.322-1.305c0-.478-.107-.909-.322-1.292-.200967-.374241-.498201-.688045-.861-.909-.372743-.225496-.801405-.341585-1.237-.335-.461,0-.875.112-1.244.335-.36389.222581-.663419.536242-.869.91-.212515.396719-.320572.840994-.314,1.291c0,.488.105.923.314,1.306.215.383.504.686.869.909.369.223.783.335,1.244.335Zm9.044.71c-.452.202-.891.302-1.32.302-.41,0-.77-.09-1.08-.267-.307739-.180094-.558624-.443108-.724-.759-.174-.328-.26-.708-.26-1.141v-3.801h-1.196v-1.005h1.251v-1.709h1.066v1.71h2.044v1.004h-2.044v3.596c0,.41.109.74.328.99.223.252.515.377.875.377.292,0,.583-.087.875-.26l.185.964Zm1.886-8.831c-.182059.003733-.35757-.067919-.485-.198-.125975-.132447-.19461-.309246-.191-.492-.004135-.180613.065724-.35507.193376-.48291s.302005-.197958.482624-.19409c.196,0,.36.066.493.198.129355.125446.201026.298833.198.479.002853.183954-.068519.361302-.198.492-.13016.130916-.308446.202519-.493.198Zm.561,8.996h-1.121v-6.836h1.121v6.836Zm3.794,0h-1.121v-5.831h-1.197v-1.005h1.197v-1.47c0-.424.089-.797.266-1.12.183-.324.433-.577.752-.76.341526-.18661.725894-.28072,1.115-.273.259,0,.519.037.779.11.264.068.522.175.772.32l-.43.882c-.146549-.095797-.305301-.171473-.472-.225-.154012-.053719-.31589-.081431-.479-.082-.35,0-.635.127-.854.383-.219.25-.328.578-.328.984v1.251h2.112v1.005h-2.112v5.831Zm5.756,3.418h-1.224l1.436-3.473-3.268-6.78h1.237l2.571,5.488l2.269-5.489h1.217l-4.238,10.254Z" fill="#100a37"/><rect width="102" height="39" rx="19.5" ry="19.5" transform="translate(124.5 56.5)" fill="none" stroke="#a4a8b8"/></g><g><circle r="12" transform="translate(263 76)" fill="#f7f7f7"/><path d="M270.5,76.18c-.00056-.50693-.042701-1.01296-.126-1.513h-7.456v3.006h4.269c-.187403.97527-.757492,1.834905-1.583,2.387v2h2.547c1.491-1.393,2.349-3.447,2.349-5.88Z" fill="#4285f4"/><path d="M262.919,84c2.138,0,3.926-.72,5.232-1.94l-2.547-2c-.712.48-1.616.773-2.685.773-2.066,0-3.814-1.406-4.441-3.306h-2.626v2.06C257.151,82.2,259.824,84,262.919,84Z" fill="#34a853"/><path d="M258.477,77.527c-.167393-.491625-.251878-1.007662-.25-1.527c0-.533.092-1.047.25-1.527v-2.06h-2.626c-1.136288,2.256351-1.136288,4.917649,0,7.174l2.626-2.06Z" fill="#fbbc05"/><path d="M262.919,71.167c1.168,0,2.21.406,3.035,1.2l2.257-2.28C266.845,68.793,265.057,68,262.919,68c-3.095,0-5.768,1.8-7.067,4.413l2.626,2.06c.627-1.9,2.375-3.306,4.441-3.306Z" fill="#ea4335"/><path d="M291.825,73.249c-.381188-.371456-.835005-.660157-1.333-.848-.517181-.197306-1.066468-.296992-1.62-.294-.592,0-1.137.105-1.634.315-.488054.199584-.928362.500165-1.292.882-.36.378-.64.827-.841,1.346-.200427.54963-.299694,1.131005-.293,1.716c0,.62.098,1.192.293,1.716.196.52.472.97.828,1.354.355.382.777.679,1.264.888.488.21,1.023.315,1.607.315.537,0,1.032-.09,1.483-.267.444741-.175021.851014-.435226,1.196-.766.347-.332.625-.726.834-1.182.215-.46.347-.966.397-1.518h-3.76v-.95h4.826l.034.444c0,.78-.123,1.493-.369,2.14-.226977.62456-.578026,1.196715-1.032,1.682-.447.474-.975.84-1.586,1.1-.639736.260828-1.325183.391049-2.016.383-.714364.007349-1.423074-.127255-2.085-.396-.622218-.260938-1.186962-.641852-1.662-1.121-.472089-.482782-.843607-1.054505-1.093-1.682-.264681-.672348-.397103-1.389464-.39-2.112c0-.766.132-1.475.397-2.126.25295-.635183.629188-1.213984,1.107-1.703.475895-.483916,1.045971-.865101,1.675-1.12.665292-.273571,1.37869-.410946,2.098-.404.716,0,1.395.123,2.038.37.647.245,1.221.598,1.722,1.059l-.793.779Zm6.672,8.388c-.679,0-1.29-.155-1.832-.465-.532728-.300527-.976154-.737052-1.285-1.265-.31-.537-.465-1.146-.465-1.825c0-.674.155-1.278.465-1.811.307248-.530996.750907-.970167,1.285-1.272.55739-.318528,1.190087-.481537,1.832-.472.679,0,1.288.158,1.825.472.538.31.962.734,1.272,1.272.31.533.465,1.137.465,1.811c0,.68-.155,1.288-.465,1.825-.303885.527339-.742992.964029-1.272,1.265-.537.31-1.146.465-1.825.465Zm-.007-1.012c.461,0,.873-.112,1.238-.335.362503-.221758.659625-.53579.861-.91.21821-.39986.328821-.849541.321-1.305c0-.478-.107-.909-.321-1.292-.201557-.373815-.498658-.68748-.861-.909-.373054-.225628-.802073-.341719-1.238-.335-.46,0-.875.112-1.244.335-.363582.222644-.662772.536311-.868.91-.21.382-.315.813-.315,1.291c0,.488.105.923.315,1.306.415896.777067,1.230733,1.257018,2.112,1.244Zm8.183,1.012c-.679,0-1.29-.155-1.832-.465-.532728-.300527-.976154-.737052-1.285-1.265-.31-.537-.465-1.146-.465-1.825c0-.674.155-1.278.465-1.811.307248-.530996.750907-.970167,1.285-1.272.55739-.318528,1.190087-.481537,1.832-.472.679,0,1.287.158,1.825.472.538.31.962.734,1.272,1.272.309.533.464,1.137.464,1.811c0,.68-.155,1.288-.464,1.825-.303885.527339-.742992.964029-1.272,1.265-.538.31-1.146.465-1.825.465Zm-.007-1.012c.46,0,.873-.112,1.237-.335.365-.223.652-.526.862-.91.21821-.39986.328821-.849541.321-1.305c0-.478-.107-.909-.321-1.292-.201637-.374082-.499139-.687806-.862-.909-.372701-.225596-.801392-.341693-1.237-.335-.881267-.013018-1.696104.466933-2.112,1.244-.21.383-.315.814-.315,1.292c0,.488.105.923.315,1.306.415896.777067,1.230733,1.257018,2.112,1.244Zm8.053.875c-.620778.00937-1.232594-.148852-1.771-.458-.512592-.298861-.936959-.728058-1.23-1.244-.304919-.544532-.460506-1.15998-.451-1.784c0-.666.15-1.26.451-1.784.292862-.516338.71725-.945901,1.23-1.245.524-.305,1.117-.458,1.778-.458.528,0,1.014.1,1.456.301.442.196.818.47,1.128.82l.054-.984h.991v6.658c0,.766-.15,1.427-.451,1.983-.3.56-.729.99-1.285,1.292-.556.305-1.217.458-1.982.458-1.046645.014644-2.059218-.37178-2.83-1.08l.492-.903c.591421.633303,1.423616.986169,2.29.971.542,0,1.009-.114,1.401-.342.392675-.218967.711483-.549609.916-.95.219-.41.328-.895.328-1.456v-.84c-.660259.677569-1.568982,1.055511-2.515,1.046Zm.095-.991c.849423.020067,1.645739-.411969,2.092-1.135.219-.355.328-.756.328-1.203v-.315c0-.45-.109-.852-.328-1.203-.21447-.347326-.516139-.632446-.875-.827-.371904-.206835-.791487-.312679-1.217-.307-.87413-.014076-1.684305.456634-2.105,1.223-.213664.389416-.321904.827889-.314,1.272c0,.474.104.9.314,1.278.214.378.504.677.868.895.365.215.777.322,1.237.322Zm6.789.991h-1.19v-10.527h1.19v10.527Zm8.114-.84c-.848.65-1.782.977-2.803.977-.711,0-1.349-.16-1.914-.479-.55323-.307489-1.015473-.755589-1.34-1.299-.327191-.566797-.494789-1.211617-.485-1.866c0-.665.15-1.258.451-1.777.293224-.51635.72065-.943776,1.237-1.237.524-.301,1.119-.452,1.784-.452.684,0,1.286.164,1.805.492.524.329.932.784,1.224,1.368.291.583.437,1.257.437,2.023v.219h-5.721c.082.4.246.75.492,1.046.25.296.56.526.929.69.37.164.782.246,1.238.246.784,0,1.499-.257,2.146-.772l.52.82Zm-5.366-2.988h4.703c-.040138-.39615-.17642-.776503-.397-1.108-.204687-.314745-.487124-.571349-.82-.745-.348016-.181125-.735726-.272553-1.128-.266-.424,0-.807.089-1.148.266-.334249.174765-.619029.430999-.828.745-.215789.332653-.346934.71304-.382,1.108Zm11.88,7.246h-1.121v-10.254h.998l.055.998c.319-.35.704-.627,1.155-.827.466698-.208387.97292-.313452,1.484-.308.67,0,1.269.155,1.798.465.533.31.952.734,1.257,1.272.31.533.465,1.139.465,1.818c0,.675-.155,1.28-.465,1.818-.296643.529584-.730972.969096-1.257,1.272-.529.31-1.128.465-1.798.465-.492658.004539-.981136-.090707-1.436-.28-.427418-.180151-.813617-.445556-1.135-.78v4.341Zm2.482-4.307c.478,0,.902-.107,1.271-.321.37-.219.657-.52.862-.902.209-.383.314-.82.314-1.313c0-.496-.105-.934-.314-1.312-.201531-.374553-.501702-.686828-.868-.903-.381131-.223085-.816464-.33659-1.258-.328-.427012-.005856-.848405.097771-1.224.301-.36.2-.652.476-.875.827-.226931.358065-.360976.767074-.39,1.19v.465c.029146.421569.160607.82968.383,1.189.219.346.508.617.868.813.379259.199485.802527.300574,1.231.294Zm10.705.889h-.964l-.075-.902c-.251.323-.57.578-.957.765-.387.183-.82.274-1.299.274-.492,0-.932-.096-1.319-.287-.370691-.180994-.686764-.45704-.916-.8-.220341-.342233-.334467-.742022-.328-1.149c0-.45.118-.847.355-1.19.242-.345.567-.617.978-.813.441617-.201425.922691-.301535,1.408-.293.342,0,.69.043,1.046.13.355.081.672.195.95.341v-.287c0-.365-.091-.674-.274-.93-.184536-.261334-.437438-.466838-.731-.594-.317742-.143911-.663213-.216283-1.012-.212-.319,0-.645.059-.977.178-.347125.12165-.670817.301929-.957.533l-.369-.964c.386961-.250981.808373-.444339,1.251-.574.437-.133.87-.199,1.298-.199.593,0,1.103.121,1.532.363.433.237.768.576,1.004,1.018.237.438.356.957.356,1.559v4.033Zm-3.097-.889c.351,0,.672-.073.964-.218.292-.146.529-.356.711-.63.187535-.294716.291566-.634804.301-.984v-.116c-.254602-.19802-.541482-.350595-.848-.451-.304966-.10856-.626288-.16403-.95-.164-.506,0-.93.123-1.271.369-.338.246-.506.558-.506.936c0,.238.068.452.205.643.141.192.332.342.574.451.242.11.515.164.82.164Zm7.322,4.307h-1.224l1.435-3.473-3.267-6.78h1.237l2.571,5.488l2.269-5.489h1.217l-4.238,10.254Z" fill="#100a37"/><rect width="131" height="39" rx="19.5" ry="19.5" transform="translate(243.5 56.5)" fill="none" stroke="#a4a8b8"/></g><g transform="translate(-522 0)"><circle r="12" transform="translate(263 76)" fill="#f7f7f7"/><path d="M270.5,76.18c-.00056-.50693-.042701-1.01296-.126-1.513h-7.456v3.006h4.269c-.187403.97527-.757492,1.834905-1.583,2.387v2h2.547c1.491-1.393,2.349-3.447,2.349-5.88Z" fill="#4285f4"/><path d="M262.919,84c2.138,0,3.926-.72,5.232-1.94l-2.547-2c-.712.48-1.616.773-2.685.773-2.066,0-3.814-1.406-4.441-3.306h-2.626v2.06C257.151,82.2,259.824,84,262.919,84Z" fill="#34a853"/><path d="M258.477,77.527c-.167393-.491625-.251878-1.007662-.25-1.527c0-.533.092-1.047.25-1.527v-2.06h-2.626c-1.136288,2.256351-1.136288,4.917649,0,7.174l2.626-2.06Z" fill="#fbbc05"/><path d="M262.919,71.167c1.168,0,2.21.406,3.035,1.2l2.257-2.28C266.845,68.793,265.057,68,262.919,68c-3.095,0-5.768,1.8-7.067,4.413l2.626,2.06c.627-1.9,2.375-3.306,4.441-3.306Z" fill="#ea4335"/><path d="M291.825,73.249c-.381188-.371456-.835005-.660157-1.333-.848-.517181-.197306-1.066468-.296992-1.62-.294-.592,0-1.137.105-1.634.315-.488054.199584-.928362.500165-1.292.882-.36.378-.64.827-.841,1.346-.200427.54963-.299694,1.131005-.293,1.716c0,.62.098,1.192.293,1.716.196.52.472.97.828,1.354.355.382.777.679,1.264.888.488.21,1.023.315,1.607.315.537,0,1.032-.09,1.483-.267.444741-.175021.851014-.435226,1.196-.766.347-.332.625-.726.834-1.182.215-.46.347-.966.397-1.518h-3.76v-.95h4.826l.034.444c0,.78-.123,1.493-.369,2.14-.226977.62456-.578026,1.196715-1.032,1.682-.447.474-.975.84-1.586,1.1-.639736.260828-1.325183.391049-2.016.383-.714364.007349-1.423074-.127255-2.085-.396-.622218-.260938-1.186962-.641852-1.662-1.121-.472089-.482782-.843607-1.054505-1.093-1.682-.264681-.672348-.397103-1.389464-.39-2.112c0-.766.132-1.475.397-2.126.25295-.635183.629188-1.213984,1.107-1.703.475895-.483916,1.045971-.865101,1.675-1.12.665292-.273571,1.37869-.410946,2.098-.404.716,0,1.395.123,2.038.37.647.245,1.221.598,1.722,1.059l-.793.779Zm6.672,8.388c-.679,0-1.29-.155-1.832-.465-.532728-.300527-.976154-.737052-1.285-1.265-.31-.537-.465-1.146-.465-1.825c0-.674.155-1.278.465-1.811.307248-.530996.750907-.970167,1.285-1.272.55739-.318528,1.190087-.481537,1.832-.472.679,0,1.288.158,1.825.472.538.31.962.734,1.272,1.272.31.533.465,1.137.465,1.811c0,.68-.155,1.288-.465,1.825-.303885.527339-.742992.964029-1.272,1.265-.537.31-1.146.465-1.825.465Zm-.007-1.012c.461,0,.873-.112,1.238-.335.362503-.221758.659625-.53579.861-.91.21821-.39986.328821-.849541.321-1.305c0-.478-.107-.909-.321-1.292-.201557-.373815-.498658-.68748-.861-.909-.373054-.225628-.802073-.341719-1.238-.335-.46,0-.875.112-1.244.335-.363582.222644-.662772.536311-.868.91-.21.382-.315.813-.315,1.291c0,.488.105.923.315,1.306.415896.777067,1.230733,1.257018,2.112,1.244Zm8.183,1.012c-.679,0-1.29-.155-1.832-.465-.532728-.300527-.976154-.737052-1.285-1.265-.31-.537-.465-1.146-.465-1.825c0-.674.155-1.278.465-1.811.307248-.530996.750907-.970167,1.285-1.272.55739-.318528,1.190087-.481537,1.832-.472.679,0,1.287.158,1.825.472.538.31.962.734,1.272,1.272.309.533.464,1.137.464,1.811c0,.68-.155,1.288-.464,1.825-.303885.527339-.742992.964029-1.272,1.265-.538.31-1.146.465-1.825.465Zm-.007-1.012c.46,0,.873-.112,1.237-.335.365-.223.652-.526.862-.91.21821-.39986.328821-.849541.321-1.305c0-.478-.107-.909-.321-1.292-.201637-.374082-.499139-.687806-.862-.909-.372701-.225596-.801392-.341693-1.237-.335-.881267-.013018-1.696104.466933-2.112,1.244-.21.383-.315.814-.315,1.292c0,.488.105.923.315,1.306.415896.777067,1.230733,1.257018,2.112,1.244Zm8.053.875c-.620778.00937-1.232594-.148852-1.771-.458-.512592-.298861-.936959-.728058-1.23-1.244-.304919-.544532-.460506-1.15998-.451-1.784c0-.666.15-1.26.451-1.784.292862-.516338.71725-.945901,1.23-1.245.524-.305,1.117-.458,1.778-.458.528,0,1.014.1,1.456.301.442.196.818.47,1.128.82l.054-.984h.991v6.658c0,.766-.15,1.427-.451,1.983-.3.56-.729.99-1.285,1.292-.556.305-1.217.458-1.982.458-1.046645.014644-2.059218-.37178-2.83-1.08l.492-.903c.591421.633303,1.423616.986169,2.29.971.542,0,1.009-.114,1.401-.342.392675-.218967.711483-.549609.916-.95.219-.41.328-.895.328-1.456v-.84c-.660259.677569-1.568982,1.055511-2.515,1.046Zm.095-.991c.849423.020067,1.645739-.411969,2.092-1.135.219-.355.328-.756.328-1.203v-.315c0-.45-.109-.852-.328-1.203-.21447-.347326-.516139-.632446-.875-.827-.371904-.206835-.791487-.312679-1.217-.307-.87413-.014076-1.684305.456634-2.105,1.223-.213664.389416-.321904.827889-.314,1.272c0,.474.104.9.314,1.278.214.378.504.677.868.895.365.215.777.322,1.237.322Zm6.789.991h-1.19v-10.527h1.19v10.527Zm8.114-.84c-.848.65-1.782.977-2.803.977-.711,0-1.349-.16-1.914-.479-.55323-.307489-1.015473-.755589-1.34-1.299-.327191-.566797-.494789-1.211617-.485-1.866c0-.665.15-1.258.451-1.777.293224-.51635.72065-.943776,1.237-1.237.524-.301,1.119-.452,1.784-.452.684,0,1.286.164,1.805.492.524.329.932.784,1.224,1.368.291.583.437,1.257.437,2.023v.219h-5.721c.082.4.246.75.492,1.046.25.296.56.526.929.69.37.164.782.246,1.238.246.784,0,1.499-.257,2.146-.772l.52.82Zm-5.366-2.988h4.703c-.040138-.39615-.17642-.776503-.397-1.108-.204687-.314745-.487124-.571349-.82-.745-.348016-.181125-.735726-.272553-1.128-.266-.424,0-.807.089-1.148.266-.334249.174765-.619029.430999-.828.745-.215789.332653-.346934.71304-.382,1.108Zm11.88,7.246h-1.121v-10.254h.998l.055.998c.319-.35.704-.627,1.155-.827.466698-.208387.97292-.313452,1.484-.308.67,0,1.269.155,1.798.465.533.31.952.734,1.257,1.272.31.533.465,1.139.465,1.818c0,.675-.155,1.28-.465,1.818-.296643.529584-.730972.969096-1.257,1.272-.529.31-1.128.465-1.798.465-.492658.004539-.981136-.090707-1.436-.28-.427418-.180151-.813617-.445556-1.135-.78v4.341Zm2.482-4.307c.478,0,.902-.107,1.271-.321.37-.219.657-.52.862-.902.209-.383.314-.82.314-1.313c0-.496-.105-.934-.314-1.312-.201531-.374553-.501702-.686828-.868-.903-.381131-.223085-.816464-.33659-1.258-.328-.427012-.005856-.848405.097771-1.224.301-.36.2-.652.476-.875.827-.226931.358065-.360976.767074-.39,1.19v.465c.029146.421569.160607.82968.383,1.189.219.346.508.617.868.813.379259.199485.802527.300574,1.231.294Zm10.705.889h-.964l-.075-.902c-.251.323-.57.578-.957.765-.387.183-.82.274-1.299.274-.492,0-.932-.096-1.319-.287-.370691-.180994-.686764-.45704-.916-.8-.220341-.342233-.334467-.742022-.328-1.149c0-.45.118-.847.355-1.19.242-.345.567-.617.978-.813.441617-.201425.922691-.301535,1.408-.293.342,0,.69.043,1.046.13.355.081.672.195.95.341v-.287c0-.365-.091-.674-.274-.93-.184536-.261334-.437438-.466838-.731-.594-.317742-.143911-.663213-.216283-1.012-.212-.319,0-.645.059-.977.178-.347125.12165-.670817.301929-.957.533l-.369-.964c.386961-.250981.808373-.444339,1.251-.574.437-.133.87-.199,1.298-.199.593,0,1.103.121,1.532.363.433.237.768.576,1.004,1.018.237.438.356.957.356,1.559v4.033Zm-3.097-.889c.351,0,.672-.073.964-.218.292-.146.529-.356.711-.63.187535-.294716.291566-.634804.301-.984v-.116c-.254602-.19802-.541482-.350595-.848-.451-.304966-.10856-.626288-.16403-.95-.164-.506,0-.93.123-1.271.369-.338.246-.506.558-.506.936c0,.238.068.452.205.643.141.192.332.342.574.451.242.11.515.164.82.164Zm7.322,4.307h-1.224l1.435-3.473-3.267-6.78h1.237l2.571,5.488l2.269-5.489h1.217l-4.238,10.254Z" fill="#100a37"/><rect width="131" height="39" rx="19.5" ry="19.5" transform="translate(243.5 56.5)" fill="none" stroke="#a4a8b8"/></g><g transform="translate(-131 56.5)"><circle r="12" transform="translate(20 20)" fill="#100a37"/><path d="M22.97,12.287c0,.731-.323,1.463-.78,1.99-.484.584-1.32,1.019-1.985,1.02-.076,0-.152-.01-.2-.02-.018409-.08511-.027794-.171923-.028-.259c0-.74.39-1.472.808-1.935.532-.601,1.415-1.055,2.156-1.083.02.083.029.185.029.287Zm2.613,4.607c.019-.011.031-.02.037-.024-.988-1.38-2.489-1.417-2.907-1.417-.639,0-1.21.221-1.691.407-.349.135-.65.25-.893.25-.269,0-.576-.12-.92-.256-.433-.17-.924-.364-1.464-.364-1.824,0-3.677,1.472-3.677,4.25c0,1.731.684,3.555,1.53,4.731.731,1,1.368,1.815,2.28,1.815.432,0,.75-.132,1.083-.27.37-.152.76-.314,1.349-.314.595,0,.95.152,1.294.298.32.136.628.267,1.11.267.997,0,1.652-.88,2.28-1.759.702-1,.997-1.981,1.006-2.027-.057-.019-1.966-.769-1.966-2.89c0-1.706,1.3-2.538,1.55-2.697Z" clip-rule="evenodd" fill="#fff" fill-rule="evenodd"/><path d="M41.572,25.5h-1.264l4.21-10.254h1.306L50.028,25.5h-1.264l-1.115-2.769h-4.962L41.572,25.5Zm1.538-3.835h4.116l-2.058-5.12-2.058,5.12Zm9.407,7.253h-1.122v-10.254h.999l.054.998c.32-.35.704-.627,1.155-.827.46665-.208538.972905-.31361,1.484-.308.67,0,1.27.155,1.798.465.533.31.952.734,1.258,1.272.31.533.464,1.139.464,1.818c0,.674-.154,1.28-.464,1.818-.297077.529594-.731727.96908-1.258,1.272-.529.31-1.128.465-1.798.465-.515,0-.994-.094-1.436-.28-.427128-.180145-.813-.44556-1.134-.78v4.341Zm2.481-4.307c.479,0,.902-.107,1.272-.321.369-.219.656-.52.86-.902.21-.383.315-.82.315-1.313c0-.497-.105-.934-.314-1.312-.21-.383-.5-.684-.868-.903-.381111-.223134-.816458-.336642-1.258-.328-.451,0-.86.1-1.224.301-.36.2-.651.476-.875.827-.227278.357901-.361353.767001-.39,1.19v.464c.037.447.165.844.383,1.19.22.346.509.617.869.813.364.196.774.294,1.23.294Zm6.31,4.307h-1.121v-10.254h.998l.054.998c.32-.35.704-.627,1.156-.827.466343-.208397.972241-.313465,1.483-.308.67,0,1.27.155,1.798.465.533.31.952.734,1.258,1.272.31.533.464,1.139.464,1.818c0,.674-.154,1.28-.464,1.818-.297037.529624-.731696.96912-1.258,1.272-.529.31-1.128.465-1.798.465-.515,0-.994-.094-1.436-.28-.427128-.180145-.813-.44556-1.134-.78v4.341Zm2.481-4.307c.479,0,.902-.107,1.272-.321.369-.219.656-.52.86-.902.21-.383.315-.82.315-1.313c0-.497-.105-.934-.314-1.312-.201406-.374644-.501606-.686949-.868-.903-.381091-.223182-.816452-.336694-1.258-.328-.451,0-.86.1-1.224.301-.36.2-.651.476-.875.827-.227278.357901-.361353.767001-.39,1.19v.464c.037.447.165.844.383,1.19.22.346.509.617.869.813.364.196.774.294,1.23.294Zm6.378.889h-1.19v-10.527h1.19v10.527Zm8.114-.84c-.847.65-1.782.977-2.803.977-.71,0-1.348-.16-1.913-.479-.553259-.307451-1.015511-.755559-1.34-1.299-.324-.551-.486-1.173-.486-1.866c0-.665.15-1.258.451-1.777.301-.524.714-.937,1.238-1.238.524-.3,1.118-.45,1.784-.45.683,0,1.285.163,1.805.492.524.328.932.783,1.223,1.367.292.583.438,1.258.438,2.023v.219h-5.722c.082.4.246.75.492,1.046.25.296.56.526.93.69s.781.246,1.237.246c.784,0,1.5-.257,2.147-.772l.52.82Zm-5.366-2.988h4.703c-.039798-.396071-.175737-.776427-.396-1.108-.20486-.314597-.487254-.571163-.82-.745-.348285-.181367-.73638-.272805-1.129-.266-.423,0-.806.089-1.148.266-.333958.174796-.618407.43104-.827.745-.21.315-.337.684-.383,1.108Zm11.88,7.246h-1.12v-10.254h.998l.055.998c.319-.35.704-.627,1.155-.827.466343-.208397.972241-.313465,1.483-.308.67,0,1.27.155,1.798.465.533.31.953.734,1.258,1.272.31.533.465,1.139.465,1.818c0,.674-.155,1.28-.465,1.818-.297077.529594-.731727.96908-1.258,1.272-.529.31-1.128.465-1.798.465-.515,0-.993-.094-1.435-.28-.427485-.180027-.813708-.445448-1.135-.78v4.341Zm2.482-4.307c.479,0,.903-.107,1.272-.321.369-.219.656-.52.861-.902.21-.383.315-.82.315-1.313c0-.497-.105-.934-.315-1.312-.21-.383-.499-.684-.868-.903-.381111-.223134-.816458-.336642-1.258-.328-.451,0-.859.1-1.224.301-.36.2-.651.476-.874.827-.227278.357901-.361353.767001-.39,1.19v.464c.036.447.164.844.383,1.19.218.346.508.617.868.813.365.196.775.294,1.23.294Zm10.705.889h-.963l-.076-.902c-.25.323-.57.578-.957.765-.387.183-.82.274-1.299.274-.492,0-.931-.096-1.319-.287-.370505-.181274-.686511-.457262-.916-.8-.220231-.342282-.334347-.742037-.328-1.149c0-.45.119-.847.356-1.19.241-.345.567-.617.977-.813.441649-.201328.922701-.301434,1.408-.293.342,0,.69.043,1.046.13.356.081.672.195.95.341v-.287c0-.365-.09-.674-.273-.93-.184847-.261441-.438099-.466949-.732-.594-.317415-.14383-.662543-.216201-1.011-.212-.32,0-.645.059-.978.177-.347137.122081-.670812.30269-.957.534l-.369-.964c.387057-.250807.808443-.444153,1.251-.574.438-.133.87-.199,1.299-.199.592,0,1.103.121,1.531.363.428444.232289.778237.586606,1.005,1.018.237.438.355.957.355,1.559v4.033Zm-3.096-.889c.35,0,.672-.073.964-.218.291-.146.528-.356.71-.63.183-.277.283-.605.301-.984v-.116c-.254299-.197919-.540834-.350489-.847-.451-.304981-.108502-.626293-.163971-.95-.164-.506,0-.93.123-1.272.369-.337.246-.506.558-.506.936c0,.237.069.452.205.643.141.192.333.342.574.451.242.11.515.164.82.164Zm7.321,4.307h-1.224l1.436-3.473-3.268-6.78h1.238l2.57,5.488l2.27-5.489h1.216l-4.238,10.254Z" fill="#100a37"/><rect width="122" height="39" rx="19.5" ry="19.5" transform="translate(.5 0.5)" fill="none" stroke="#a4a8b8"/></g><g transform="translate(-653 56.5)"><circle r="12" transform="translate(20 20)" fill="#100a37"/><path d="M22.97,12.287c0,.731-.323,1.463-.78,1.99-.484.584-1.32,1.019-1.985,1.02-.076,0-.152-.01-.2-.02-.018409-.08511-.027794-.171923-.028-.259c0-.74.39-1.472.808-1.935.532-.601,1.415-1.055,2.156-1.083.02.083.029.185.029.287Zm2.613,4.607c.019-.011.031-.02.037-.024-.988-1.38-2.489-1.417-2.907-1.417-.639,0-1.21.221-1.691.407-.349.135-.65.25-.893.25-.269,0-.576-.12-.92-.256-.433-.17-.924-.364-1.464-.364-1.824,0-3.677,1.472-3.677,4.25c0,1.731.684,3.555,1.53,4.731.731,1,1.368,1.815,2.28,1.815.432,0,.75-.132,1.083-.27.37-.152.76-.314,1.349-.314.595,0,.95.152,1.294.298.32.136.628.267,1.11.267.997,0,1.652-.88,2.28-1.759.702-1,.997-1.981,1.006-2.027-.057-.019-1.966-.769-1.966-2.89c0-1.706,1.3-2.538,1.55-2.697Z" clip-rule="evenodd" fill="#fff" fill-rule="evenodd"/><path d="M41.572,25.5h-1.264l4.21-10.254h1.306L50.028,25.5h-1.264l-1.115-2.769h-4.962L41.572,25.5Zm1.538-3.835h4.116l-2.058-5.12-2.058,5.12Zm9.407,7.253h-1.122v-10.254h.999l.054.998c.32-.35.704-.627,1.155-.827.46665-.208538.972905-.31361,1.484-.308.67,0,1.27.155,1.798.465.533.31.952.734,1.258,1.272.31.533.464,1.139.464,1.818c0,.674-.154,1.28-.464,1.818-.297077.529594-.731727.96908-1.258,1.272-.529.31-1.128.465-1.798.465-.515,0-.994-.094-1.436-.28-.427128-.180145-.813-.44556-1.134-.78v4.341Zm2.481-4.307c.479,0,.902-.107,1.272-.321.369-.219.656-.52.86-.902.21-.383.315-.82.315-1.313c0-.497-.105-.934-.314-1.312-.21-.383-.5-.684-.868-.903-.381111-.223134-.816458-.336642-1.258-.328-.451,0-.86.1-1.224.301-.36.2-.651.476-.875.827-.227278.357901-.361353.767001-.39,1.19v.464c.037.447.165.844.383,1.19.22.346.509.617.869.813.364.196.774.294,1.23.294Zm6.31,4.307h-1.121v-10.254h.998l.054.998c.32-.35.704-.627,1.156-.827.466343-.208397.972241-.313465,1.483-.308.67,0,1.27.155,1.798.465.533.31.952.734,1.258,1.272.31.533.464,1.139.464,1.818c0,.674-.154,1.28-.464,1.818-.297037.529624-.731696.96912-1.258,1.272-.529.31-1.128.465-1.798.465-.515,0-.994-.094-1.436-.28-.427128-.180145-.813-.44556-1.134-.78v4.341Zm2.481-4.307c.479,0,.902-.107,1.272-.321.369-.219.656-.52.86-.902.21-.383.315-.82.315-1.313c0-.497-.105-.934-.314-1.312-.201406-.374644-.501606-.686949-.868-.903-.381091-.223182-.816452-.336694-1.258-.328-.451,0-.86.1-1.224.301-.36.2-.651.476-.875.827-.227278.357901-.361353.767001-.39,1.19v.464c.037.447.165.844.383,1.19.22.346.509.617.869.813.364.196.774.294,1.23.294Zm6.378.889h-1.19v-10.527h1.19v10.527Zm8.114-.84c-.847.65-1.782.977-2.803.977-.71,0-1.348-.16-1.913-.479-.553259-.307451-1.015511-.755559-1.34-1.299-.324-.551-.486-1.173-.486-1.866c0-.665.15-1.258.451-1.777.301-.524.714-.937,1.238-1.238.524-.3,1.118-.45,1.784-.45.683,0,1.285.163,1.805.492.524.328.932.783,1.223,1.367.292.583.438,1.258.438,2.023v.219h-5.722c.082.4.246.75.492,1.046.25.296.56.526.93.69s.781.246,1.237.246c.784,0,1.5-.257,2.147-.772l.52.82Zm-5.366-2.988h4.703c-.039798-.396071-.175737-.776427-.396-1.108-.20486-.314597-.487254-.571163-.82-.745-.348285-.181367-.73638-.272805-1.129-.266-.423,0-.806.089-1.148.266-.333958.174796-.618407.43104-.827.745-.21.315-.337.684-.383,1.108Zm11.88,7.246h-1.12v-10.254h.998l.055.998c.319-.35.704-.627,1.155-.827.466343-.208397.972241-.313465,1.483-.308.67,0,1.27.155,1.798.465.533.31.953.734,1.258,1.272.31.533.465,1.139.465,1.818c0,.674-.155,1.28-.465,1.818-.297077.529594-.731727.96908-1.258,1.272-.529.31-1.128.465-1.798.465-.515,0-.993-.094-1.435-.28-.427485-.180027-.813708-.445448-1.135-.78v4.341Zm2.482-4.307c.479,0,.903-.107,1.272-.321.369-.219.656-.52.861-.902.21-.383.315-.82.315-1.313c0-.497-.105-.934-.315-1.312-.21-.383-.499-.684-.868-.903-.381111-.223134-.816458-.336642-1.258-.328-.451,0-.859.1-1.224.301-.36.2-.651.476-.874.827-.227278.357901-.361353.767001-.39,1.19v.464c.036.447.164.844.383,1.19.218.346.508.617.868.813.365.196.775.294,1.23.294Zm10.705.889h-.963l-.076-.902c-.25.323-.57.578-.957.765-.387.183-.82.274-1.299.274-.492,0-.931-.096-1.319-.287-.370505-.181274-.686511-.457262-.916-.8-.220231-.342282-.334347-.742037-.328-1.149c0-.45.119-.847.356-1.19.241-.345.567-.617.977-.813.441649-.201328.922701-.301434,1.408-.293.342,0,.69.043,1.046.13.356.081.672.195.95.341v-.287c0-.365-.09-.674-.273-.93-.184847-.261441-.438099-.466949-.732-.594-.317415-.14383-.662543-.216201-1.011-.212-.32,0-.645.059-.978.177-.347137.122081-.670812.30269-.957.534l-.369-.964c.387057-.250807.808443-.444153,1.251-.574.438-.133.87-.199,1.299-.199.592,0,1.103.121,1.531.363.428444.232289.778237.586606,1.005,1.018.237.438.355.957.355,1.559v4.033Zm-3.096-.889c.35,0,.672-.073.964-.218.291-.146.528-.356.71-.63.183-.277.283-.605.301-.984v-.116c-.254299-.197919-.540834-.350489-.847-.451-.304981-.108502-.626293-.163971-.95-.164-.506,0-.93.123-1.272.369-.337.246-.506.558-.506.936c0,.237.069.452.205.643.141.192.333.342.574.451.242.11.515.164.82.164Zm7.321,4.307h-1.224l1.436-3.473-3.268-6.78h1.238l2.57,5.488l2.27-5.489h1.216l-4.238,10.254Z" fill="#100a37"/><rect width="122" height="39" rx="19.5" ry="19.5" transform="translate(.5 0.5)" fill="none" stroke="#a4a8b8"/></g></g></g><clipPath id="e1hWGves9kd52"><path d="M0,56h375v40L0,96Z" fill="#fff"/></clipPath></g><g clip-path="url(#e1hWGves9kd104)"><g id="e1hWGves9kd55_to" transform="translate(253,20)"><g transform="translate(-253,-20)"><g><circle r="12" transform="translate(20 20)" fill="#100a37"/><path d="M22.97,12.287c0,.731-.323,1.463-.78,1.99-.484.584-1.32,1.019-1.985,1.02-.076,0-.152-.01-.2-.02-.018409-.08511-.027794-.171923-.028-.259c0-.74.39-1.472.808-1.935.532-.601,1.415-1.055,2.156-1.083.02.083.029.185.029.287Zm2.613,4.607c.019-.011.031-.02.037-.024-.988-1.38-2.489-1.417-2.907-1.417-.639,0-1.21.221-1.691.407-.349.135-.65.25-.893.25-.269,0-.576-.12-.92-.256-.433-.17-.924-.364-1.464-.364-1.824,0-3.677,1.472-3.677,4.25c0,1.731.684,3.555,1.53,4.731.731,1,1.368,1.815,2.28,1.815.432,0,.75-.132,1.083-.27.37-.152.76-.314,1.349-.314.595,0,.95.152,1.294.298.32.136.628.267,1.11.267.997,0,1.652-.88,2.28-1.759.702-1,.997-1.981,1.006-2.027-.057-.019-1.966-.769-1.966-2.89c0-1.706,1.3-2.538,1.55-2.697Z" clip-rule="evenodd" fill="#fff" fill-rule="evenodd"/><path d="M41.572,25.5h-1.264l4.21-10.254h1.306L50.028,25.5h-1.264l-1.115-2.769h-4.962L41.572,25.5Zm1.538-3.835h4.116l-2.058-5.12-2.058,5.12Zm9.407,7.253h-1.122v-10.254h.999l.054.998c.32-.35.704-.627,1.155-.827.46665-.208538.972905-.31361,1.484-.308.67,0,1.27.155,1.798.465.533.31.952.734,1.258,1.272.31.533.464,1.139.464,1.818c0,.674-.154,1.28-.464,1.818-.297077.529594-.731727.96908-1.258,1.272-.529.31-1.128.465-1.798.465-.515,0-.994-.094-1.436-.28-.427128-.180145-.813-.44556-1.134-.78v4.341Zm2.481-4.307c.479,0,.902-.107,1.272-.321.369-.219.656-.52.86-.902.21-.383.315-.82.315-1.313c0-.497-.105-.934-.314-1.312-.21-.383-.5-.684-.868-.903-.381111-.223134-.816458-.336642-1.258-.328-.451,0-.86.1-1.224.301-.36.2-.651.476-.875.827-.227278.357901-.361353.767001-.39,1.19v.464c.037.447.165.844.383,1.19.22.346.509.617.869.813.364.196.774.294,1.23.294Zm6.31,4.307h-1.121v-10.254h.998l.054.998c.32-.35.704-.627,1.156-.827.466343-.208397.972241-.313465,1.483-.308.67,0,1.27.155,1.798.465.533.31.952.734,1.258,1.272.31.533.464,1.139.464,1.818c0,.674-.154,1.28-.464,1.818-.297037.529624-.731696.96912-1.258,1.272-.529.31-1.128.465-1.798.465-.515,0-.994-.094-1.436-.28-.427128-.180145-.813-.44556-1.134-.78v4.341Zm2.481-4.307c.479,0,.902-.107,1.272-.321.369-.219.656-.52.86-.902.21-.383.315-.82.315-1.313c0-.497-.105-.934-.314-1.312-.201406-.374644-.501606-.686949-.868-.903-.381091-.223182-.816452-.336694-1.258-.328-.451,0-.86.1-1.224.301-.36.2-.651.476-.875.827-.227278.357901-.361353.767001-.39,1.19v.464c.037.447.165.844.383,1.19.22.346.509.617.869.813.364.196.774.294,1.23.294Zm6.378.889h-1.19v-10.527h1.19v10.527Zm8.114-.84c-.847.65-1.782.977-2.803.977-.71,0-1.348-.16-1.913-.479-.553259-.307451-1.015511-.755559-1.34-1.299-.324-.551-.486-1.173-.486-1.866c0-.665.15-1.258.451-1.777.301-.524.714-.937,1.238-1.238.524-.3,1.118-.45,1.784-.45.683,0,1.285.163,1.805.492.524.328.932.783,1.223,1.367.292.583.438,1.258.438,2.023v.219h-5.722c.082.4.246.75.492,1.046.25.296.56.526.93.69s.781.246,1.237.246c.784,0,1.5-.257,2.147-.772l.52.82Zm-5.366-2.988h4.703c-.039798-.396071-.175737-.776427-.396-1.108-.20486-.314597-.487254-.571163-.82-.745-.348285-.181367-.73638-.272805-1.129-.266-.423,0-.806.089-1.148.266-.333958.174796-.618407.43104-.827.745-.21.315-.337.684-.383,1.108Zm11.88,7.246h-1.12v-10.254h.998l.055.998c.319-.35.704-.627,1.155-.827.466343-.208397.972241-.313465,1.483-.308.67,0,1.27.155,1.798.465.533.31.953.734,1.258,1.272.31.533.465,1.139.465,1.818c0,.674-.155,1.28-.465,1.818-.297077.529594-.731727.96908-1.258,1.272-.529.31-1.128.465-1.798.465-.515,0-.993-.094-1.435-.28-.427485-.180027-.813708-.445448-1.135-.78v4.341Zm2.482-4.307c.479,0,.903-.107,1.272-.321.369-.219.656-.52.861-.902.21-.383.315-.82.315-1.313c0-.497-.105-.934-.315-1.312-.21-.383-.499-.684-.868-.903-.381111-.223134-.816458-.336642-1.258-.328-.451,0-.859.1-1.224.301-.36.2-.651.476-.874.827-.227278.357901-.361353.767001-.39,1.19v.464c.036.447.164.844.383,1.19.218.346.508.617.868.813.365.196.775.294,1.23.294Zm10.705.889h-.963l-.076-.902c-.25.323-.57.578-.957.765-.387.183-.82.274-1.299.274-.492,0-.931-.096-1.319-.287-.370505-.181274-.686511-.457262-.916-.8-.220231-.342282-.334347-.742037-.328-1.149c0-.45.119-.847.356-1.19.241-.345.567-.617.977-.813.441649-.201328.922701-.301434,1.408-.293.342,0,.69.043,1.046.13.356.081.672.195.95.341v-.287c0-.365-.09-.674-.273-.93-.184847-.261441-.438099-.466949-.732-.594-.317415-.14383-.662543-.216201-1.011-.212-.32,0-.645.059-.978.177-.347137.122081-.670812.30269-.957.534l-.369-.964c.387057-.250807.808443-.444153,1.251-.574.438-.133.87-.199,1.299-.199.592,0,1.103.121,1.531.363.428444.232289.778237.586606,1.005,1.018.237.438.355.957.355,1.559v4.033Zm-3.096-.889c.35,0,.672-.073.964-.218.291-.146.528-.356.71-.63.183-.277.283-.605.301-.984v-.116c-.254299-.197919-.540834-.350489-.847-.451-.304981-.108502-.626293-.163971-.95-.164-.506,0-.93.123-1.272.369-.337.246-.506.558-.506.936c0,.237.069.452.205.643.141.192.333.342.574.451.242.11.515.164.82.164Zm7.321,4.307h-1.224l1.436-3.473-3.268-6.78h1.238l2.57,5.488l2.27-5.489h1.216l-4.238,10.254Z" fill="#100a37"/><rect width="122" height="39" rx="19.5" ry="19.5" transform="translate(.5 0.5)" fill="none" stroke="#a4a8b8"/></g><g transform="translate(521 0)"><circle r="12" transform="translate(20 20)" fill="#100a37"/><path d="M22.97,12.287c0,.731-.323,1.463-.78,1.99-.484.584-1.32,1.019-1.985,1.02-.076,0-.152-.01-.2-.02-.018409-.08511-.027794-.171923-.028-.259c0-.74.39-1.472.808-1.935.532-.601,1.415-1.055,2.156-1.083.02.083.029.185.029.287Zm2.613,4.607c.019-.011.031-.02.037-.024-.988-1.38-2.489-1.417-2.907-1.417-.639,0-1.21.221-1.691.407-.349.135-.65.25-.893.25-.269,0-.576-.12-.92-.256-.433-.17-.924-.364-1.464-.364-1.824,0-3.677,1.472-3.677,4.25c0,1.731.684,3.555,1.53,4.731.731,1,1.368,1.815,2.28,1.815.432,0,.75-.132,1.083-.27.37-.152.76-.314,1.349-.314.595,0,.95.152,1.294.298.32.136.628.267,1.11.267.997,0,1.652-.88,2.28-1.759.702-1,.997-1.981,1.006-2.027-.057-.019-1.966-.769-1.966-2.89c0-1.706,1.3-2.538,1.55-2.697Z" clip-rule="evenodd" fill="#fff" fill-rule="evenodd"/><path d="M41.572,25.5h-1.264l4.21-10.254h1.306L50.028,25.5h-1.264l-1.115-2.769h-4.962L41.572,25.5Zm1.538-3.835h4.116l-2.058-5.12-2.058,5.12Zm9.407,7.253h-1.122v-10.254h.999l.054.998c.32-.35.704-.627,1.155-.827.46665-.208538.972905-.31361,1.484-.308.67,0,1.27.155,1.798.465.533.31.952.734,1.258,1.272.31.533.464,1.139.464,1.818c0,.674-.154,1.28-.464,1.818-.297077.529594-.731727.96908-1.258,1.272-.529.31-1.128.465-1.798.465-.515,0-.994-.094-1.436-.28-.427128-.180145-.813-.44556-1.134-.78v4.341Zm2.481-4.307c.479,0,.902-.107,1.272-.321.369-.219.656-.52.86-.902.21-.383.315-.82.315-1.313c0-.497-.105-.934-.314-1.312-.21-.383-.5-.684-.868-.903-.381111-.223134-.816458-.336642-1.258-.328-.451,0-.86.1-1.224.301-.36.2-.651.476-.875.827-.227278.357901-.361353.767001-.39,1.19v.464c.037.447.165.844.383,1.19.22.346.509.617.869.813.364.196.774.294,1.23.294Zm6.31,4.307h-1.121v-10.254h.998l.054.998c.32-.35.704-.627,1.156-.827.466343-.208397.972241-.313465,1.483-.308.67,0,1.27.155,1.798.465.533.31.952.734,1.258,1.272.31.533.464,1.139.464,1.818c0,.674-.154,1.28-.464,1.818-.297037.529624-.731696.96912-1.258,1.272-.529.31-1.128.465-1.798.465-.515,0-.994-.094-1.436-.28-.427128-.180145-.813-.44556-1.134-.78v4.341Zm2.481-4.307c.479,0,.902-.107,1.272-.321.369-.219.656-.52.86-.902.21-.383.315-.82.315-1.313c0-.497-.105-.934-.314-1.312-.201406-.374644-.501606-.686949-.868-.903-.381091-.223182-.816452-.336694-1.258-.328-.451,0-.86.1-1.224.301-.36.2-.651.476-.875.827-.227278.357901-.361353.767001-.39,1.19v.464c.037.447.165.844.383,1.19.22.346.509.617.869.813.364.196.774.294,1.23.294Zm6.378.889h-1.19v-10.527h1.19v10.527Zm8.114-.84c-.847.65-1.782.977-2.803.977-.71,0-1.348-.16-1.913-.479-.553259-.307451-1.015511-.755559-1.34-1.299-.324-.551-.486-1.173-.486-1.866c0-.665.15-1.258.451-1.777.301-.524.714-.937,1.238-1.238.524-.3,1.118-.45,1.784-.45.683,0,1.285.163,1.805.492.524.328.932.783,1.223,1.367.292.583.438,1.258.438,2.023v.219h-5.722c.082.4.246.75.492,1.046.25.296.56.526.93.69s.781.246,1.237.246c.784,0,1.5-.257,2.147-.772l.52.82Zm-5.366-2.988h4.703c-.039798-.396071-.175737-.776427-.396-1.108-.20486-.314597-.487254-.571163-.82-.745-.348285-.181367-.73638-.272805-1.129-.266-.423,0-.806.089-1.148.266-.333958.174796-.618407.43104-.827.745-.21.315-.337.684-.383,1.108Zm11.88,7.246h-1.12v-10.254h.998l.055.998c.319-.35.704-.627,1.155-.827.466343-.208397.972241-.313465,1.483-.308.67,0,1.27.155,1.798.465.533.31.953.734,1.258,1.272.31.533.465,1.139.465,1.818c0,.674-.155,1.28-.465,1.818-.297077.529594-.731727.96908-1.258,1.272-.529.31-1.128.465-1.798.465-.515,0-.993-.094-1.435-.28-.427485-.180027-.813708-.445448-1.135-.78v4.341Zm2.482-4.307c.479,0,.903-.107,1.272-.321.369-.219.656-.52.861-.902.21-.383.315-.82.315-1.313c0-.497-.105-.934-.315-1.312-.21-.383-.499-.684-.868-.903-.381111-.223134-.816458-.336642-1.258-.328-.451,0-.859.1-1.224.301-.36.2-.651.476-.874.827-.227278.357901-.361353.767001-.39,1.19v.464c.036.447.164.844.383,1.19.218.346.508.617.868.813.365.196.775.294,1.23.294Zm10.705.889h-.963l-.076-.902c-.25.323-.57.578-.957.765-.387.183-.82.274-1.299.274-.492,0-.931-.096-1.319-.287-.370505-.181274-.686511-.457262-.916-.8-.220231-.342282-.334347-.742037-.328-1.149c0-.45.119-.847.356-1.19.241-.345.567-.617.977-.813.441649-.201328.922701-.301434,1.408-.293.342,0,.69.043,1.046.13.356.081.672.195.95.341v-.287c0-.365-.09-.674-.273-.93-.184847-.261441-.438099-.466949-.732-.594-.317415-.14383-.662543-.216201-1.011-.212-.32,0-.645.059-.978.177-.347137.122081-.670812.30269-.957.534l-.369-.964c.387057-.250807.808443-.444153,1.251-.574.438-.133.87-.199,1.299-.199.592,0,1.103.121,1.531.363.428444.232289.778237.586606,1.005,1.018.237.438.355.957.355,1.559v4.033Zm-3.096-.889c.35,0,.672-.073.964-.218.291-.146.528-.356.71-.63.183-.277.283-.605.301-.984v-.116c-.254299-.197919-.540834-.350489-.847-.451-.304981-.108502-.626293-.163971-.95-.164-.506,0-.93.123-1.272.369-.337.246-.506.558-.506.936c0,.237.069.452.205.643.141.192.333.342.574.451.242.11.515.164.82.164Zm7.321,4.307h-1.224l1.436-3.473-3.268-6.78h1.238l2.57,5.488l2.27-5.489h1.216l-4.238,10.254Z" fill="#100a37"/><rect width="122" height="39" rx="19.5" ry="19.5" transform="translate(.5 0.5)" fill="none" stroke="#a4a8b8"/></g><g transform="translate(-.166667 0)"><circle r="12" transform="translate(159 20)" fill="#171717"/><path d="M155.012,12.203l-.485-.192-.009-.004-.007-.002L154.5,12v16c1.06663-.135275,2.138646-.224025,3.213-.266v-8.061l-.62-1.717c-.199-.554-1.332-3.682-1.422-3.932-.082-.224-.308-.848-.379-1.048l-.21-.58-.07-.193m7.977,15.594c.164413.065133.328746.130466.493.196l.007.002.011.005.001-.485v-15.515h-3.214v8.327l.621,1.716c.199.555,1.331,3.683,1.422,3.933l.379,1.048.21.58.07.193" clip-rule="evenodd" fill="#af1f1f" fill-rule="evenodd"/><path d="M157.713,12h-3.213l5.69,15.734c1.599.04,3.31.266,3.31.266l-5.787-16" clip-rule="evenodd" fill="#e50914" fill-rule="evenodd"/><path d="M188.98,25.5h-1.271l-6.446-8.374v8.374h-1.203v-10.254h1.271l6.446,8.374v-8.374h1.203v10.254Zm8.122-.84c-.848.65-1.782.977-2.803.977-.711,0-1.349-.16-1.914-.479-.55323-.307489-1.015473-.755589-1.34-1.299-.324-.551-.485-1.173-.485-1.866c0-.665.15-1.258.451-1.777.293081-.516718.720519-.944502,1.237-1.238.524-.3,1.119-.45,1.784-.45.684,0,1.285.163,1.805.492.524.328.932.783,1.224,1.367.291.583.437,1.258.437,2.023v.219h-5.722c.082.4.246.75.493,1.046.25.296.56.526.929.69s.782.246,1.238.246c.783,0,1.499-.257,2.146-.772l.52.82Zm-5.367-2.988h4.703c-.039798-.396071-.175737-.776427-.396-1.108-.204963-.314509-.487332-.571052-.82-.745-.348016-.181125-.735726-.272553-1.128-.266-.424,0-.807.089-1.149.266-.333958.174796-.618407.43104-.827.745-.215668.332791-.347116.713064-.383,1.108Zm11.102,3.664c-.451.2-.891.3-1.319.3-.411,0-.771-.088-1.08-.266-.308007-.180075-.55922-.443069-.725-.759-.179016-.353224-.268311-.74509-.26-1.141v-3.801h-1.196v-1.005h1.251v-1.709h1.066v1.71h2.044v1.004h-2.044v3.596c0,.41.11.74.328.99.224.252.515.377.875.377.309915-.005277.61249-.095185.875-.26l.185.964Zm2.933.164h-1.122v-5.831h-1.196v-1.005h1.196v-1.47c0-.424.089-.797.267-1.12.175815-.317811.436067-.580832.752-.76.341213-.186484.725226-.280591,1.114-.273.26,0,.52.037.78.11.264.068.521.175.772.32l-.431.883c-.146153-.096118-.304574-.172133-.471-.226-.154012-.053719-.31589-.081431-.479-.082-.328369-.010207-.643226.130999-.854.383-.219.25-.328.579-.328.984v1.251h2.112v1.005h-2.112v5.831Zm5.188,0h-1.189v-10.527h1.189v10.527Zm2.707-8.996c-.182059.003733-.35757-.067919-.485-.198-.126493-.132594-.195498-.309781-.192-.493-.003582-.180535.066627-.354721.194404-.482309s.302067-.197539.482596-.193691c.196,0,.36.066.492.198.129099.125207.200749.298178.198.478.003123.184299-.068269.362058-.198.493-.129651.131064-.307704.202719-.492.198Zm.561,8.996h-1.122v-6.836h1.122v6.836Zm2.618,0h-1.415l2.925-3.534-2.7-3.302h1.456l1.976,2.413l1.941-2.413h1.415l-2.652,3.274l2.919,3.562h-1.463l-2.181-2.673-2.221,2.673Z" fill="#100a37"/><rect width="99" height="39" rx="19.5" ry="19.5" transform="translate(139.5 0.5)" fill="none" stroke="#a4a8b8"/></g><g transform="translate(520.833333 0)"><circle r="12" transform="translate(159 20)" fill="#171717"/><path d="M155.012,12.203l-.485-.192-.009-.004-.007-.002L154.5,12v16c1.06663-.135275,2.138646-.224025,3.213-.266v-8.061l-.62-1.717c-.199-.554-1.332-3.682-1.422-3.932-.082-.224-.308-.848-.379-1.048l-.21-.58-.07-.193m7.977,15.594c.164413.065133.328746.130466.493.196l.007.002.011.005.001-.485v-15.515h-3.214v8.327l.621,1.716c.199.555,1.331,3.683,1.422,3.933l.379,1.048.21.58.07.193" clip-rule="evenodd" fill="#af1f1f" fill-rule="evenodd"/><path d="M157.713,12h-3.213l5.69,15.734c1.599.04,3.31.266,3.31.266l-5.787-16" clip-rule="evenodd" fill="#e50914" fill-rule="evenodd"/><path d="M188.98,25.5h-1.271l-6.446-8.374v8.374h-1.203v-10.254h1.271l6.446,8.374v-8.374h1.203v10.254Zm8.122-.84c-.848.65-1.782.977-2.803.977-.711,0-1.349-.16-1.914-.479-.55323-.307489-1.015473-.755589-1.34-1.299-.324-.551-.485-1.173-.485-1.866c0-.665.15-1.258.451-1.777.293081-.516718.720519-.944502,1.237-1.238.524-.3,1.119-.45,1.784-.45.684,0,1.285.163,1.805.492.524.328.932.783,1.224,1.367.291.583.437,1.258.437,2.023v.219h-5.722c.082.4.246.75.493,1.046.25.296.56.526.929.69s.782.246,1.238.246c.783,0,1.499-.257,2.146-.772l.52.82Zm-5.367-2.988h4.703c-.039798-.396071-.175737-.776427-.396-1.108-.204963-.314509-.487332-.571052-.82-.745-.348016-.181125-.735726-.272553-1.128-.266-.424,0-.807.089-1.149.266-.333958.174796-.618407.43104-.827.745-.215668.332791-.347116.713064-.383,1.108Zm11.102,3.664c-.451.2-.891.3-1.319.3-.411,0-.771-.088-1.08-.266-.308007-.180075-.55922-.443069-.725-.759-.179016-.353224-.268311-.74509-.26-1.141v-3.801h-1.196v-1.005h1.251v-1.709h1.066v1.71h2.044v1.004h-2.044v3.596c0,.41.11.74.328.99.224.252.515.377.875.377.309915-.005277.61249-.095185.875-.26l.185.964Zm2.933.164h-1.122v-5.831h-1.196v-1.005h1.196v-1.47c0-.424.089-.797.267-1.12.175815-.317811.436067-.580832.752-.76.341213-.186484.725226-.280591,1.114-.273.26,0,.52.037.78.11.264.068.521.175.772.32l-.431.883c-.146153-.096118-.304574-.172133-.471-.226-.154012-.053719-.31589-.081431-.479-.082-.328369-.010207-.643226.130999-.854.383-.219.25-.328.579-.328.984v1.251h2.112v1.005h-2.112v5.831Zm5.188,0h-1.189v-10.527h1.189v10.527Zm2.707-8.996c-.182059.003733-.35757-.067919-.485-.198-.126493-.132594-.195498-.309781-.192-.493-.003582-.180535.066627-.354721.194404-.482309s.302067-.197539.482596-.193691c.196,0,.36.066.492.198.129099.125207.200749.298178.198.478.003123.184299-.068269.362058-.198.493-.129651.131064-.307704.202719-.492.198Zm.561,8.996h-1.122v-6.836h1.122v6.836Zm2.618,0h-1.415l2.925-3.534-2.7-3.302h1.456l1.976,2.413l1.941-2.413h1.415l-2.652,3.274l2.919,3.562h-1.463l-2.181-2.673-2.221,2.673Z" fill="#100a37"/><rect width="99" height="39" rx="19.5" ry="19.5" transform="translate(139.5 0.5)" fill="none" stroke="#a4a8b8"/></g><g transform="translate(-.333334 0)"><circle r="12" transform="translate(275 20)" fill="#1ed760"/><path d="M282.098,18.638c.532955.316459,1.221541.140955,1.538-.392s.140955-1.221541-.392-1.538c-4.453-2.644-11.5-2.892-15.738-1.605-.58064.18917-.903364.807975-.726164,1.392379s.789242.919775,1.377164.754621c3.693-1.12,10.073-.909,13.941,1.388Zm-.126,3.402c.269511-.440259.131715-1.015602-.308-1.286-3.704-2.276-9.122-2.917-13.48-1.594-.474836.164726-.73482.675055-.588921,1.15601s.645593.760835,1.131921.63399c3.816-1.158,8.733-.584,11.958,1.399.440471.270192,1.016567.132323,1.287-.308Zm-1.468,3.268c.103775-.169189.136053-.372685.089726-.565683s-.167459-.359669-.336726-.463317c-3.164-1.932-7.085-2.382-11.656-1.337-.260447.059485-.469374.253397-.548083.508693s-.015238.533189.1665.729.454136.279792.714583.220307c4.177-.954,7.724-.565,10.542,1.157.169277.103551.372799.135493.56566.088779s.359209-.168246.46234-.337779Z" fill="#fff"/><path d="M295.581,24.502l.581-.923c.296.242.593.442.889.602s.597.278.902.355c.31.078.624.116.943.116.465,0,.871-.077,1.217-.232.326966-.135826.610782-.358108.821-.643.196583-.279958.2995-.61496.294-.957c0-.392-.112-.715-.335-.97-.238519-.27545-.529075-.501098-.855-.664-.36605-.188999-.740062-.362159-1.121-.519-.334138-.141829-.66458-.292212-.991-.451-.31722-.152822-.617531-.338505-.896-.554-.26197-.211466-.478043-.474156-.635-.772-.16-.301-.24-.663-.24-1.087c0-.543.137-1.021.41-1.436.282034-.421466.674737-.75708,1.135-.97.488-.233,1.048-.35,1.682-.35.428,0,.859.058,1.292.172.433.11.852.27,1.258.485l-.493.985c-.315222-.185292-.652549-.330101-1.004-.431-.347-.1-.689-.15-1.026-.15-.401,0-.754.068-1.059.204-.283756.11861-.529638.312618-.711.561-.170983.24397-.259619.536153-.253.834c0,.355.102.654.307.895.21.242.479.452.807.63.333.173.684.341,1.053.505.351.155.697.32,1.039.493.346.168.658.369.936.601.283.228.508.501.677.82.169.32.253.704.253,1.156c0,.578-.146,1.087-.437,1.524-.292.433-.702.77-1.231,1.012-.524.241-1.139.362-1.846.362-.619,0-1.21-.1-1.77-.3-.577633-.210076-1.116061-.515287-1.593-.903Zm9.775,4.416h-1.121v-10.254h.998l.055.998c.319-.35.704-.627,1.155-.827.466698-.208387.97292-.313452,1.484-.308.67,0,1.269.155,1.798.465.533.31.952.734,1.257,1.272.31.533.465,1.139.465,1.818c0,.674-.155,1.28-.465,1.818-.296643.529584-.730972.969096-1.257,1.272-.529.31-1.128.465-1.798.465-.492658.004539-.981136-.090707-1.436-.28-.427418-.180151-.813617-.445556-1.135-.78v4.341Zm2.482-4.307c.478,0,.902-.107,1.271-.321.37-.219.657-.52.862-.902.209-.383.314-.82.314-1.313c0-.497-.105-.934-.314-1.312-.201531-.374553-.501702-.686828-.868-.903-.381131-.223085-.816464-.33659-1.258-.328-.427012-.005856-.848405.097771-1.224.301-.36.2-.652.476-.875.827-.226931.358065-.360976.767074-.39,1.19v.464c.028986.421912.160453.830385.383,1.19.219.346.508.617.868.813.379259.199485.802527.300574,1.231.294Zm8.224,1.026c-.68,0-1.29-.155-1.833-.465-.532525-.300796-.975889-.737259-1.285-1.265-.31-.538-.465-1.146-.465-1.825c0-.674.155-1.278.465-1.812.3078-.530052.75137-.968445,1.285-1.27.557739-.318564,1.190766-.48157,1.833-.472.679,0,1.287.158,1.825.472.537.31.961.734,1.271,1.271.31.534.465,1.138.465,1.812c0,.68-.155,1.287-.465,1.825-.31.533-.734.955-1.271,1.265-.538.31-1.146.465-1.825.465Zm-.007-1.012c.46,0,.872-.112,1.237-.335s.652-.526.861-.91c.21899-.399598.329975-.8494.322-1.305c0-.478-.107-.909-.322-1.292-.200967-.374241-.498201-.688045-.861-.909-.372743-.225496-.801405-.341585-1.237-.335-.461,0-.875.112-1.244.335-.36389.222581-.663419.536242-.869.91-.212515.396719-.320572.840994-.314,1.291c0,.488.105.923.314,1.306.215.383.504.686.869.909.369.223.783.335,1.244.335Zm9.044.71c-.452.201-.891.302-1.32.302-.41,0-.77-.09-1.08-.267-.307739-.180094-.558624-.443108-.724-.759-.174-.328-.26-.708-.26-1.141v-3.801h-1.196v-1.005h1.251v-1.709h1.066v1.71h2.044v1.004h-2.044v3.596c0,.41.109.74.328.99.223.252.515.377.875.377.292,0,.583-.087.875-.26l.185.964Zm1.886-8.831c-.182059.003733-.35757-.067919-.485-.198-.126221-.132695-.194876-.309902-.191-.493-.003858-.180441.066124-.354635.193744-.482256s.301815-.197602.482256-.193744c.196,0,.36.066.493.198.129099.125207.200749.298178.198.478.003123.184299-.068269.362058-.198.493-.13016.130916-.308446.202519-.493.198Zm.561,8.996h-1.121v-6.836h1.121v6.836Zm3.794,0h-1.121v-5.831h-1.197v-1.005h1.197v-1.47c0-.424.089-.797.266-1.12.183-.324.433-.577.752-.76.341526-.18661.725894-.28072,1.115-.273.259,0,.519.037.779.11.264.068.522.175.772.32l-.43.883c-.146494-.096146-.305249-.17216-.472-.226-.154012-.053719-.31589-.081431-.479-.082-.35,0-.635.128-.854.383-.219.25-.328.579-.328.984v1.251h2.112v1.005h-2.112v5.831Zm5.756,3.418h-1.224l1.436-3.473-3.268-6.78h1.237l2.571,5.488l2.269-5.489h1.217l-4.238,10.254Z" fill="#100a37"/><rect width="102" height="39" rx="19.5" ry="19.5" transform="translate(255.5 0.5)" fill="none" stroke="#a4a8b8"/></g><g transform="translate(520.666666 0)"><circle r="12" transform="translate(275 20)" fill="#1ed760"/><path d="M282.098,18.638c.532955.316459,1.221541.140955,1.538-.392s.140955-1.221541-.392-1.538c-4.453-2.644-11.5-2.892-15.738-1.605-.58064.18917-.903364.807975-.726164,1.392379s.789242.919775,1.377164.754621c3.693-1.12,10.073-.909,13.941,1.388Zm-.126,3.402c.269511-.440259.131715-1.015602-.308-1.286-3.704-2.276-9.122-2.917-13.48-1.594-.474836.164726-.73482.675055-.588921,1.15601s.645593.760835,1.131921.63399c3.816-1.158,8.733-.584,11.958,1.399.440471.270192,1.016567.132323,1.287-.308Zm-1.468,3.268c.103775-.169189.136053-.372685.089726-.565683s-.167459-.359669-.336726-.463317c-3.164-1.932-7.085-2.382-11.656-1.337-.260447.059485-.469374.253397-.548083.508693s-.015238.533189.1665.729.454136.279792.714583.220307c4.177-.954,7.724-.565,10.542,1.157.169277.103551.372799.135493.56566.088779s.359209-.168246.46234-.337779Z" fill="#fff"/><path d="M295.581,24.502l.581-.923c.296.242.593.442.889.602s.597.278.902.355c.31.078.624.116.943.116.465,0,.871-.077,1.217-.232.326966-.135826.610782-.358108.821-.643.196583-.279958.2995-.61496.294-.957c0-.392-.112-.715-.335-.97-.238519-.27545-.529075-.501098-.855-.664-.36605-.188999-.740062-.362159-1.121-.519-.334138-.141829-.66458-.292212-.991-.451-.31722-.152822-.617531-.338505-.896-.554-.26197-.211466-.478043-.474156-.635-.772-.16-.301-.24-.663-.24-1.087c0-.543.137-1.021.41-1.436.282034-.421466.674737-.75708,1.135-.97.488-.233,1.048-.35,1.682-.35.428,0,.859.058,1.292.172.433.11.852.27,1.258.485l-.493.985c-.315222-.185292-.652549-.330101-1.004-.431-.347-.1-.689-.15-1.026-.15-.401,0-.754.068-1.059.204-.283756.11861-.529638.312618-.711.561-.170983.24397-.259619.536153-.253.834c0,.355.102.654.307.895.21.242.479.452.807.63.333.173.684.341,1.053.505.351.155.697.32,1.039.493.346.168.658.369.936.601.283.228.508.501.677.82.169.32.253.704.253,1.156c0,.578-.146,1.087-.437,1.524-.292.433-.702.77-1.231,1.012-.524.241-1.139.362-1.846.362-.619,0-1.21-.1-1.77-.3-.577633-.210076-1.116061-.515287-1.593-.903Zm9.775,4.416h-1.121v-10.254h.998l.055.998c.319-.35.704-.627,1.155-.827.466698-.208387.97292-.313452,1.484-.308.67,0,1.269.155,1.798.465.533.31.952.734,1.257,1.272.31.533.465,1.139.465,1.818c0,.674-.155,1.28-.465,1.818-.296643.529584-.730972.969096-1.257,1.272-.529.31-1.128.465-1.798.465-.492658.004539-.981136-.090707-1.436-.28-.427418-.180151-.813617-.445556-1.135-.78v4.341Zm2.482-4.307c.478,0,.902-.107,1.271-.321.37-.219.657-.52.862-.902.209-.383.314-.82.314-1.313c0-.497-.105-.934-.314-1.312-.201531-.374553-.501702-.686828-.868-.903-.381131-.223085-.816464-.33659-1.258-.328-.427012-.005856-.848405.097771-1.224.301-.36.2-.652.476-.875.827-.226931.358065-.360976.767074-.39,1.19v.464c.028986.421912.160453.830385.383,1.19.219.346.508.617.868.813.379259.199485.802527.300574,1.231.294Zm8.224,1.026c-.68,0-1.29-.155-1.833-.465-.532525-.300796-.975889-.737259-1.285-1.265-.31-.538-.465-1.146-.465-1.825c0-.674.155-1.278.465-1.812.3078-.530052.75137-.968445,1.285-1.27.557739-.318564,1.190766-.48157,1.833-.472.679,0,1.287.158,1.825.472.537.31.961.734,1.271,1.271.31.534.465,1.138.465,1.812c0,.68-.155,1.287-.465,1.825-.31.533-.734.955-1.271,1.265-.538.31-1.146.465-1.825.465Zm-.007-1.012c.46,0,.872-.112,1.237-.335s.652-.526.861-.91c.21899-.399598.329975-.8494.322-1.305c0-.478-.107-.909-.322-1.292-.200967-.374241-.498201-.688045-.861-.909-.372743-.225496-.801405-.341585-1.237-.335-.461,0-.875.112-1.244.335-.36389.222581-.663419.536242-.869.91-.212515.396719-.320572.840994-.314,1.291c0,.488.105.923.314,1.306.215.383.504.686.869.909.369.223.783.335,1.244.335Zm9.044.71c-.452.201-.891.302-1.32.302-.41,0-.77-.09-1.08-.267-.307739-.180094-.558624-.443108-.724-.759-.174-.328-.26-.708-.26-1.141v-3.801h-1.196v-1.005h1.251v-1.709h1.066v1.71h2.044v1.004h-2.044v3.596c0,.41.109.74.328.99.223.252.515.377.875.377.292,0,.583-.087.875-.26l.185.964Zm1.886-8.831c-.182059.003733-.35757-.067919-.485-.198-.126221-.132695-.194876-.309902-.191-.493-.003858-.180441.066124-.354635.193744-.482256s.301815-.197602.482256-.193744c.196,0,.36.066.493.198.129099.125207.200749.298178.198.478.003123.184299-.068269.362058-.198.493-.13016.130916-.308446.202519-.493.198Zm.561,8.996h-1.121v-6.836h1.121v6.836Zm3.794,0h-1.121v-5.831h-1.197v-1.005h1.197v-1.47c0-.424.089-.797.266-1.12.183-.324.433-.577.752-.76.341526-.18661.725894-.28072,1.115-.273.259,0,.519.037.779.11.264.068.522.175.772.32l-.43.883c-.146494-.096146-.305249-.17216-.472-.226-.154012-.053719-.31589-.081431-.479-.082-.35,0-.635.128-.854.383-.219.25-.328.579-.328.984v1.251h2.112v1.005h-2.112v5.831Zm5.756,3.418h-1.224l1.436-3.473-3.268-6.78h1.237l2.571,5.488l2.269-5.489h1.217l-4.238,10.254Z" fill="#100a37"/><rect width="102" height="39" rx="19.5" ry="19.5" transform="translate(255.5 0.5)" fill="none" stroke="#a4a8b8"/></g><g transform="translate(130.499999-56)"><circle r="12" transform="translate(263 76)" fill="#f7f7f7"/><path d="M270.5,76.18c-.00056-.50693-.042701-1.01296-.126-1.513h-7.456v3.006h4.269c-.187403.97527-.757492,1.834905-1.583,2.387v2h2.547c1.491-1.393,2.349-3.447,2.349-5.88Z" fill="#4285f4"/><path d="M262.919,84c2.138,0,3.926-.72,5.232-1.94l-2.547-2c-.712.48-1.616.773-2.685.773-2.066,0-3.814-1.406-4.441-3.306h-2.626v2.06C257.151,82.2,259.824,84,262.919,84Z" fill="#34a853"/><path d="M258.477,77.527c-.167393-.491625-.251878-1.007662-.25-1.527c0-.533.092-1.047.25-1.527v-2.06h-2.626c-1.136288,2.256351-1.136288,4.917649,0,7.174l2.626-2.06Z" fill="#fbbc05"/><path d="M262.919,71.167c1.168,0,2.21.406,3.035,1.2l2.257-2.28C266.845,68.793,265.057,68,262.919,68c-3.095,0-5.768,1.8-7.067,4.413l2.626,2.06c.627-1.9,2.375-3.306,4.441-3.306Z" fill="#ea4335"/><path d="M291.825,73.249c-.381188-.371456-.835005-.660157-1.333-.848-.517181-.197306-1.066468-.296992-1.62-.294-.592,0-1.137.105-1.634.315-.488054.199584-.928362.500165-1.292.882-.36.378-.64.827-.841,1.346-.200427.54963-.299694,1.131005-.293,1.716c0,.62.098,1.192.293,1.716.196.52.472.97.828,1.354.355.382.777.679,1.264.888.488.21,1.023.315,1.607.315.537,0,1.032-.09,1.483-.267.444741-.175021.851014-.435226,1.196-.766.347-.332.625-.726.834-1.182.215-.46.347-.966.397-1.518h-3.76v-.95h4.826l.034.444c0,.78-.123,1.493-.369,2.14-.226977.62456-.578026,1.196715-1.032,1.682-.447.474-.975.84-1.586,1.1-.639736.260828-1.325183.391049-2.016.383-.714364.007349-1.423074-.127255-2.085-.396-.622218-.260938-1.186962-.641852-1.662-1.121-.472089-.482782-.843607-1.054505-1.093-1.682-.264681-.672348-.397103-1.389464-.39-2.112c0-.766.132-1.475.397-2.126.25295-.635183.629188-1.213984,1.107-1.703.475895-.483916,1.045971-.865101,1.675-1.12.665292-.273571,1.37869-.410946,2.098-.404.716,0,1.395.123,2.038.37.647.245,1.221.598,1.722,1.059l-.793.779Zm6.672,8.388c-.679,0-1.29-.155-1.832-.465-.532728-.300527-.976154-.737052-1.285-1.265-.31-.537-.465-1.146-.465-1.825c0-.674.155-1.278.465-1.811.307248-.530996.750907-.970167,1.285-1.272.55739-.318528,1.190087-.481537,1.832-.472.679,0,1.288.158,1.825.472.538.31.962.734,1.272,1.272.31.533.465,1.137.465,1.811c0,.68-.155,1.288-.465,1.825-.303885.527339-.742992.964029-1.272,1.265-.537.31-1.146.465-1.825.465Zm-.007-1.012c.461,0,.873-.112,1.238-.335.362503-.221758.659625-.53579.861-.91.21821-.39986.328821-.849541.321-1.305c0-.478-.107-.909-.321-1.292-.201557-.373815-.498658-.68748-.861-.909-.373054-.225628-.802073-.341719-1.238-.335-.46,0-.875.112-1.244.335-.363582.222644-.662772.536311-.868.91-.21.382-.315.813-.315,1.291c0,.488.105.923.315,1.306.415896.777067,1.230733,1.257018,2.112,1.244Zm8.183,1.012c-.679,0-1.29-.155-1.832-.465-.532728-.300527-.976154-.737052-1.285-1.265-.31-.537-.465-1.146-.465-1.825c0-.674.155-1.278.465-1.811.307248-.530996.750907-.970167,1.285-1.272.55739-.318528,1.190087-.481537,1.832-.472.679,0,1.287.158,1.825.472.538.31.962.734,1.272,1.272.309.533.464,1.137.464,1.811c0,.68-.155,1.288-.464,1.825-.303885.527339-.742992.964029-1.272,1.265-.538.31-1.146.465-1.825.465Zm-.007-1.012c.46,0,.873-.112,1.237-.335.365-.223.652-.526.862-.91.21821-.39986.328821-.849541.321-1.305c0-.478-.107-.909-.321-1.292-.201637-.374082-.499139-.687806-.862-.909-.372701-.225596-.801392-.341693-1.237-.335-.881267-.013018-1.696104.466933-2.112,1.244-.21.383-.315.814-.315,1.292c0,.488.105.923.315,1.306.415896.777067,1.230733,1.257018,2.112,1.244Zm8.053.875c-.620778.00937-1.232594-.148852-1.771-.458-.512592-.298861-.936959-.728058-1.23-1.244-.304919-.544532-.460506-1.15998-.451-1.784c0-.666.15-1.26.451-1.784.292862-.516338.71725-.945901,1.23-1.245.524-.305,1.117-.458,1.778-.458.528,0,1.014.1,1.456.301.442.196.818.47,1.128.82l.054-.984h.991v6.658c0,.766-.15,1.427-.451,1.983-.3.56-.729.99-1.285,1.292-.556.305-1.217.458-1.982.458-1.046645.014644-2.059218-.37178-2.83-1.08l.492-.903c.591421.633303,1.423616.986169,2.29.971.542,0,1.009-.114,1.401-.342.392675-.218967.711483-.549609.916-.95.219-.41.328-.895.328-1.456v-.84c-.660259.677569-1.568982,1.055511-2.515,1.046Zm.095-.991c.849423.020067,1.645739-.411969,2.092-1.135.219-.355.328-.756.328-1.203v-.315c0-.45-.109-.852-.328-1.203-.21447-.347326-.516139-.632446-.875-.827-.371904-.206835-.791487-.312679-1.217-.307-.87413-.014076-1.684305.456634-2.105,1.223-.213664.389416-.321904.827889-.314,1.272c0,.474.104.9.314,1.278.214.378.504.677.868.895.365.215.777.322,1.237.322Zm6.789.991h-1.19v-10.527h1.19v10.527Zm8.114-.84c-.848.65-1.782.977-2.803.977-.711,0-1.349-.16-1.914-.479-.55323-.307489-1.015473-.755589-1.34-1.299-.327191-.566797-.494789-1.211617-.485-1.866c0-.665.15-1.258.451-1.777.293224-.51635.72065-.943776,1.237-1.237.524-.301,1.119-.452,1.784-.452.684,0,1.286.164,1.805.492.524.329.932.784,1.224,1.368.291.583.437,1.257.437,2.023v.219h-5.721c.082.4.246.75.492,1.046.25.296.56.526.929.69.37.164.782.246,1.238.246.784,0,1.499-.257,2.146-.772l.52.82Zm-5.366-2.988h4.703c-.040138-.39615-.17642-.776503-.397-1.108-.204687-.314745-.487124-.571349-.82-.745-.348016-.181125-.735726-.272553-1.128-.266-.424,0-.807.089-1.148.266-.334249.174765-.619029.430999-.828.745-.215789.332653-.346934.71304-.382,1.108Zm11.88,7.246h-1.121v-10.254h.998l.055.998c.319-.35.704-.627,1.155-.827.466698-.208387.97292-.313452,1.484-.308.67,0,1.269.155,1.798.465.533.31.952.734,1.257,1.272.31.533.465,1.139.465,1.818c0,.675-.155,1.28-.465,1.818-.296643.529584-.730972.969096-1.257,1.272-.529.31-1.128.465-1.798.465-.492658.004539-.981136-.090707-1.436-.28-.427418-.180151-.813617-.445556-1.135-.78v4.341Zm2.482-4.307c.478,0,.902-.107,1.271-.321.37-.219.657-.52.862-.902.209-.383.314-.82.314-1.313c0-.496-.105-.934-.314-1.312-.201531-.374553-.501702-.686828-.868-.903-.381131-.223085-.816464-.33659-1.258-.328-.427012-.005856-.848405.097771-1.224.301-.36.2-.652.476-.875.827-.226931.358065-.360976.767074-.39,1.19v.465c.029146.421569.160607.82968.383,1.189.219.346.508.617.868.813.379259.199485.802527.300574,1.231.294Zm10.705.889h-.964l-.075-.902c-.251.323-.57.578-.957.765-.387.183-.82.274-1.299.274-.492,0-.932-.096-1.319-.287-.370691-.180994-.686764-.45704-.916-.8-.220341-.342233-.334467-.742022-.328-1.149c0-.45.118-.847.355-1.19.242-.345.567-.617.978-.813.441617-.201425.922691-.301535,1.408-.293.342,0,.69.043,1.046.13.355.081.672.195.95.341v-.287c0-.365-.091-.674-.274-.93-.184536-.261334-.437438-.466838-.731-.594-.317742-.143911-.663213-.216283-1.012-.212-.319,0-.645.059-.977.178-.347125.12165-.670817.301929-.957.533l-.369-.964c.386961-.250981.808373-.444339,1.251-.574.437-.133.87-.199,1.298-.199.593,0,1.103.121,1.532.363.433.237.768.576,1.004,1.018.237.438.356.957.356,1.559v4.033Zm-3.097-.889c.351,0,.672-.073.964-.218.292-.146.529-.356.711-.63.187535-.294716.291566-.634804.301-.984v-.116c-.254602-.19802-.541482-.350595-.848-.451-.304966-.10856-.626288-.16403-.95-.164-.506,0-.93.123-1.271.369-.338.246-.506.558-.506.936c0,.238.068.452.205.643.141.192.332.342.574.451.242.11.515.164.82.164Zm7.322,4.307h-1.224l1.435-3.473-3.267-6.78h1.237l2.571,5.488l2.269-5.489h1.217l-4.238,10.254Z" fill="#100a37"/><rect width="131" height="39" rx="19.5" ry="19.5" transform="translate(243.5 56.5)" fill="none" stroke="#a4a8b8"/></g><g transform="translate(651.499999-56)"><circle r="12" transform="translate(263 76)" fill="#f7f7f7"/><path d="M270.5,76.18c-.00056-.50693-.042701-1.01296-.126-1.513h-7.456v3.006h4.269c-.187403.97527-.757492,1.834905-1.583,2.387v2h2.547c1.491-1.393,2.349-3.447,2.349-5.88Z" fill="#4285f4"/><path d="M262.919,84c2.138,0,3.926-.72,5.232-1.94l-2.547-2c-.712.48-1.616.773-2.685.773-2.066,0-3.814-1.406-4.441-3.306h-2.626v2.06C257.151,82.2,259.824,84,262.919,84Z" fill="#34a853"/><path d="M258.477,77.527c-.167393-.491625-.251878-1.007662-.25-1.527c0-.533.092-1.047.25-1.527v-2.06h-2.626c-1.136288,2.256351-1.136288,4.917649,0,7.174l2.626-2.06Z" fill="#fbbc05"/><path d="M262.919,71.167c1.168,0,2.21.406,3.035,1.2l2.257-2.28C266.845,68.793,265.057,68,262.919,68c-3.095,0-5.768,1.8-7.067,4.413l2.626,2.06c.627-1.9,2.375-3.306,4.441-3.306Z" fill="#ea4335"/><path d="M291.825,73.249c-.381188-.371456-.835005-.660157-1.333-.848-.517181-.197306-1.066468-.296992-1.62-.294-.592,0-1.137.105-1.634.315-.488054.199584-.928362.500165-1.292.882-.36.378-.64.827-.841,1.346-.200427.54963-.299694,1.131005-.293,1.716c0,.62.098,1.192.293,1.716.196.52.472.97.828,1.354.355.382.777.679,1.264.888.488.21,1.023.315,1.607.315.537,0,1.032-.09,1.483-.267.444741-.175021.851014-.435226,1.196-.766.347-.332.625-.726.834-1.182.215-.46.347-.966.397-1.518h-3.76v-.95h4.826l.034.444c0,.78-.123,1.493-.369,2.14-.226977.62456-.578026,1.196715-1.032,1.682-.447.474-.975.84-1.586,1.1-.639736.260828-1.325183.391049-2.016.383-.714364.007349-1.423074-.127255-2.085-.396-.622218-.260938-1.186962-.641852-1.662-1.121-.472089-.482782-.843607-1.054505-1.093-1.682-.264681-.672348-.397103-1.389464-.39-2.112c0-.766.132-1.475.397-2.126.25295-.635183.629188-1.213984,1.107-1.703.475895-.483916,1.045971-.865101,1.675-1.12.665292-.273571,1.37869-.410946,2.098-.404.716,0,1.395.123,2.038.37.647.245,1.221.598,1.722,1.059l-.793.779Zm6.672,8.388c-.679,0-1.29-.155-1.832-.465-.532728-.300527-.976154-.737052-1.285-1.265-.31-.537-.465-1.146-.465-1.825c0-.674.155-1.278.465-1.811.307248-.530996.750907-.970167,1.285-1.272.55739-.318528,1.190087-.481537,1.832-.472.679,0,1.288.158,1.825.472.538.31.962.734,1.272,1.272.31.533.465,1.137.465,1.811c0,.68-.155,1.288-.465,1.825-.303885.527339-.742992.964029-1.272,1.265-.537.31-1.146.465-1.825.465Zm-.007-1.012c.461,0,.873-.112,1.238-.335.362503-.221758.659625-.53579.861-.91.21821-.39986.328821-.849541.321-1.305c0-.478-.107-.909-.321-1.292-.201557-.373815-.498658-.68748-.861-.909-.373054-.225628-.802073-.341719-1.238-.335-.46,0-.875.112-1.244.335-.363582.222644-.662772.536311-.868.91-.21.382-.315.813-.315,1.291c0,.488.105.923.315,1.306.415896.777067,1.230733,1.257018,2.112,1.244Zm8.183,1.012c-.679,0-1.29-.155-1.832-.465-.532728-.300527-.976154-.737052-1.285-1.265-.31-.537-.465-1.146-.465-1.825c0-.674.155-1.278.465-1.811.307248-.530996.750907-.970167,1.285-1.272.55739-.318528,1.190087-.481537,1.832-.472.679,0,1.287.158,1.825.472.538.31.962.734,1.272,1.272.309.533.464,1.137.464,1.811c0,.68-.155,1.288-.464,1.825-.303885.527339-.742992.964029-1.272,1.265-.538.31-1.146.465-1.825.465Zm-.007-1.012c.46,0,.873-.112,1.237-.335.365-.223.652-.526.862-.91.21821-.39986.328821-.849541.321-1.305c0-.478-.107-.909-.321-1.292-.201637-.374082-.499139-.687806-.862-.909-.372701-.225596-.801392-.341693-1.237-.335-.881267-.013018-1.696104.466933-2.112,1.244-.21.383-.315.814-.315,1.292c0,.488.105.923.315,1.306.415896.777067,1.230733,1.257018,2.112,1.244Zm8.053.875c-.620778.00937-1.232594-.148852-1.771-.458-.512592-.298861-.936959-.728058-1.23-1.244-.304919-.544532-.460506-1.15998-.451-1.784c0-.666.15-1.26.451-1.784.292862-.516338.71725-.945901,1.23-1.245.524-.305,1.117-.458,1.778-.458.528,0,1.014.1,1.456.301.442.196.818.47,1.128.82l.054-.984h.991v6.658c0,.766-.15,1.427-.451,1.983-.3.56-.729.99-1.285,1.292-.556.305-1.217.458-1.982.458-1.046645.014644-2.059218-.37178-2.83-1.08l.492-.903c.591421.633303,1.423616.986169,2.29.971.542,0,1.009-.114,1.401-.342.392675-.218967.711483-.549609.916-.95.219-.41.328-.895.328-1.456v-.84c-.660259.677569-1.568982,1.055511-2.515,1.046Zm.095-.991c.849423.020067,1.645739-.411969,2.092-1.135.219-.355.328-.756.328-1.203v-.315c0-.45-.109-.852-.328-1.203-.21447-.347326-.516139-.632446-.875-.827-.371904-.206835-.791487-.312679-1.217-.307-.87413-.014076-1.684305.456634-2.105,1.223-.213664.389416-.321904.827889-.314,1.272c0,.474.104.9.314,1.278.214.378.504.677.868.895.365.215.777.322,1.237.322Zm6.789.991h-1.19v-10.527h1.19v10.527Zm8.114-.84c-.848.65-1.782.977-2.803.977-.711,0-1.349-.16-1.914-.479-.55323-.307489-1.015473-.755589-1.34-1.299-.327191-.566797-.494789-1.211617-.485-1.866c0-.665.15-1.258.451-1.777.293224-.51635.72065-.943776,1.237-1.237.524-.301,1.119-.452,1.784-.452.684,0,1.286.164,1.805.492.524.329.932.784,1.224,1.368.291.583.437,1.257.437,2.023v.219h-5.721c.082.4.246.75.492,1.046.25.296.56.526.929.69.37.164.782.246,1.238.246.784,0,1.499-.257,2.146-.772l.52.82Zm-5.366-2.988h4.703c-.040138-.39615-.17642-.776503-.397-1.108-.204687-.314745-.487124-.571349-.82-.745-.348016-.181125-.735726-.272553-1.128-.266-.424,0-.807.089-1.148.266-.334249.174765-.619029.430999-.828.745-.215789.332653-.346934.71304-.382,1.108Zm11.88,7.246h-1.121v-10.254h.998l.055.998c.319-.35.704-.627,1.155-.827.466698-.208387.97292-.313452,1.484-.308.67,0,1.269.155,1.798.465.533.31.952.734,1.257,1.272.31.533.465,1.139.465,1.818c0,.675-.155,1.28-.465,1.818-.296643.529584-.730972.969096-1.257,1.272-.529.31-1.128.465-1.798.465-.492658.004539-.981136-.090707-1.436-.28-.427418-.180151-.813617-.445556-1.135-.78v4.341Zm2.482-4.307c.478,0,.902-.107,1.271-.321.37-.219.657-.52.862-.902.209-.383.314-.82.314-1.313c0-.496-.105-.934-.314-1.312-.201531-.374553-.501702-.686828-.868-.903-.381131-.223085-.816464-.33659-1.258-.328-.427012-.005856-.848405.097771-1.224.301-.36.2-.652.476-.875.827-.226931.358065-.360976.767074-.39,1.19v.465c.029146.421569.160607.82968.383,1.189.219.346.508.617.868.813.379259.199485.802527.300574,1.231.294Zm10.705.889h-.964l-.075-.902c-.251.323-.57.578-.957.765-.387.183-.82.274-1.299.274-.492,0-.932-.096-1.319-.287-.370691-.180994-.686764-.45704-.916-.8-.220341-.342233-.334467-.742022-.328-1.149c0-.45.118-.847.355-1.19.242-.345.567-.617.978-.813.441617-.201425.922691-.301535,1.408-.293.342,0,.69.043,1.046.13.355.081.672.195.95.341v-.287c0-.365-.091-.674-.274-.93-.184536-.261334-.437438-.466838-.731-.594-.317742-.143911-.663213-.216283-1.012-.212-.319,0-.645.059-.977.178-.347125.12165-.670817.301929-.957.533l-.369-.964c.386961-.250981.808373-.444339,1.251-.574.437-.133.87-.199,1.298-.199.593,0,1.103.121,1.532.363.433.237.768.576,1.004,1.018.237.438.356.957.356,1.559v4.033Zm-3.097-.889c.351,0,.672-.073.964-.218.292-.146.529-.356.711-.63.187535-.294716.291566-.634804.301-.984v-.116c-.254602-.19802-.541482-.350595-.848-.451-.304966-.10856-.626288-.16403-.95-.164-.506,0-.93.123-1.271.369-.338.246-.506.558-.506.936c0,.238.068.452.205.643.141.192.332.342.574.451.242.11.515.164.82.164Zm7.322,4.307h-1.224l1.435-3.473-3.267-6.78h1.237l2.571,5.488l2.269-5.489h1.217l-4.238,10.254Z" fill="#100a37"/><rect width="131" height="39" rx="19.5" ry="19.5" transform="translate(243.5 56.5)" fill="none" stroke="#a4a8b8"/></g></g></g><clipPath id="e1hWGves9kd104"><path d="M0,0h375v40L0,40Z" fill="#fff"/></clipPath></g></svg>
