<svg id="eTXYE0NB67O1" xmlns="http://www.w3.org/2000/svg" xmlns:xlink="http://www.w3.org/1999/xlink" viewBox="0 0 243 243" shape-rendering="geometricPrecision" text-rendering="geometricPrecision">
<style><![CDATA[
#eTXYE0NB67O2_tr {animation: eTXYE0NB67O2_tr__tr 6000ms linear infinite normal forwards}@keyframes eTXYE0NB67O2_tr__tr { 0% {transform: translate(121.314996px,121.247076px) rotate(0deg)} 100% {transform: translate(121.314996px,121.247076px) rotate(180deg)}}
]]></style>
<g id="eTXYE0NB67O2_tr" transform="translate(121.314996,121.247076) rotate(0)"><path d="M117.545,3.973c1.231-.049,2.223.249,2.977.892.754.652,1.156,1.607,1.205,2.866l.093,2.35c.049,1.26-.277,2.24-.978,2.94-.7.709-1.666,1.087-2.897,1.136-1.231.048-2.224-.254-2.978-.906-.754-.643-1.156-1.594-1.205-2.853l-.092-2.35c-.05-1.26.276-2.243.976-2.953.701-.7,1.668-1.074,2.899-1.122Zm.064,1.65c-.69.028-1.218.25-1.585.665-.366.416-.536.96-.51,1.631l.097,2.463c.026.671.238,1.2.636,1.586s.943.565,1.633.538c.681-.027,1.209-.248,1.585-.665.366-.416.537-.96.51-1.63l-.096-2.463c-.027-.671-.239-1.2-.637-1.586-.408-.386-.952-.565-1.633-.539ZM105.71,5.296l1.559,9.675-1.824.294-1.292-8.017-4.423.713-.267-1.659l6.247-1.006ZM89.416,8.626c.772-.222,1.475-.274,2.111-.156.63.13,1.168.412,1.614.847.439.447.762,1.029.968,1.746l1.758,6.108-1.776.511-1.773-6.161c-.165-.575-.457-.981-.876-1.22-.427-.236-.95-.265-1.569-.087s-1.042.48-1.27.904c-.236.427-.271.928-.106,1.502l1.773,6.162-1.775.51-1.758-6.107c-.207-.718-.238-1.384-.095-1.998.138741-.605667.458173-1.154909.916-1.575.467-.435,1.087-.764,1.858-.986ZM77.587,12.89l5.191,8.412-1.673.752-4.356-7.375-.23.104l2.364,8.269-2.911,1.308-4.613-7.26-.23.103l2.62,8.155-1.673.751-2.841-9.467l2.912-1.308l4.718,7.427.23-.103-2.42-8.46l2.912-1.307ZM62.253,20.222l3.022,9.672-2.728,1.71-7.388-6.936l1.613-1.01l1.596,1.543l2.966-1.858-.695-2.11l1.614-1.01Zm-.38,4.798l-2.23,1.398l3.544,3.413.214-.134-1.528-4.677ZM48.627,29.067l5.108,6.312l2.22-1.797l1.057,1.306-5.877,4.755-1.057-1.306l2.22-1.796-5.108-6.312l1.437-1.162ZM36.415,39.503c.854-.888,1.775-1.362,2.764-1.421.996-.053,1.948.358,2.857,1.23l1.695,1.63c.909.874,1.353,1.805,1.333,2.796-.013.997-.447,1.94-1.3,2.827-.855.889-1.78,1.359-2.775,1.412-.99.059-1.938-.348-2.846-1.221l-1.696-1.63c-.909-.873-1.356-1.808-1.343-2.805.02-.99.457-1.93,1.31-2.818Zm1.191,1.145c-.479.498-.706,1.023-.682,1.577s.279,1.064.763,1.53l1.777,1.707c.484.466,1.004.7,1.558.702.555.002,1.072-.245,1.55-.743.472-.492.7-1.017.682-1.578-.024-.554-.279-1.064-.763-1.53l-1.776-1.707c-.485-.466-1.005-.7-1.56-.702-.56.005-1.077.252-1.549.744ZM26.977,50.894c.452-.606.96-1.06,1.522-1.362.53179-.295157,1.136972-.431878,1.744-.394.6.04,1.183.271,1.752.696l.314.234-1.088,1.459-.314-.235c-.472-.351-.936-.47-1.393-.357-.45.119-.861.429-1.235.93-.38.508-.56.962-.543,1.36.012.404.176.724.49.958.217.162.44.23.67.203.224-.02.466-.118.727-.296.263-.165.557-.388.883-.669l.249-.216c.456928-.403883.955379-.758196,1.487-1.057.471-.242.935-.356,1.39-.342.45.021.915.21,1.394.567.478.357.802.774.972,1.25.17.488.193,1.005.065,1.55-.125.558-.397,1.118-.816,1.68-.418.56-.887.985-1.405,1.274-.487779.294855-1.054235.433066-1.623.396-.564-.024-1.13-.248-1.699-.673l-.336-.25l1.088-1.46.337.252c.299.223.583.341.852.356.27.027.528-.037.772-.193.252-.15.49-.374.713-.673.334-.45.497-.846.486-1.192-.008-.332-.158-.607-.45-.825-.171702-.136581-.382732-.214402-.602-.222-.240519.012837-.474126.084981-.68.21-.24.134-.512.334-.814.598l-.248.216c-.474899.426085-.994214.799898-1.549,1.115-.5.28-.989.421-1.469.424-.48.004-.959-.173-1.438-.53-.478-.358-.809-.796-.991-1.317-.181-.507-.209-1.063-.083-1.668.127-.592.417-1.191.869-1.797Zm-5.495,9.574l8.396,5.054-.953,1.583-8.396-5.054.953-1.583Zm-4.591,7.31l8.873,4.162-1.493,3.181-8.558-1.864-.107.228l7.732,3.626-.773,1.648-8.873-4.162l1.493-3.181l8.558,1.865.107-.229-7.732-3.626.773-1.648ZM8.142,90.476l9.527,2.295-.944,3.92c-.145.599-.394,1.095-.748,1.49-.348.406-.77.683-1.267.833-.498.158-1.047.165-1.646.02l-.19-.045c-.59-.142-1.075-.403-1.454-.782-.371095-.366467-.633457-.828543-.758-1.335-.127-.51-.12-1.056.02-1.637l.511-2.123-3.484-.84.433-1.796Zm4.684,3.03l-.469,1.945c-.102.427-.067.8.105,1.12.173.32.463.53.871.628l.136.032c.409.099.763.045,1.062-.162.3-.206.5-.522.603-.949l.469-1.946-2.777-.669ZM4.338,107.959c.137-1.224.58-2.161,1.33-2.81.757-.647,1.762-.901,3.015-.76l2.337.261c1.252.141,2.172.61,2.758,1.408.596.8.826,1.812.688,3.036-.137,1.224-.584,2.16-1.343,2.808-.749.648-1.75.903-3.001.762l-2.338-.262c-1.252-.14-2.176-.61-2.772-1.409-.587-.798-.811-1.81-.674-3.034Zm1.642.184c-.077.686.062,1.242.418,1.667.357.425.869.675,1.537.75l2.448.274c.668.075,1.223-.056,1.664-.391.442-.336.7-.847.778-1.533.076-.677-.064-1.233-.42-1.667-.355-.425-.867-.675-1.535-.75l-2.449-.274c-.668-.075-1.222.055-1.664.391-.442.345-.702.856-.777,1.533ZM3.988,119.924l9.8-.129.055,4.256c.008.615-.092,1.154-.3,1.614-.189597.436987-.50056.810421-.896,1.076-.39.257-.85.389-1.381.396l-.168.002c-.588.008-1.066-.126-1.434-.401-.357748-.262776-.637935-.617242-.811-1.026l-.252.004c-.014.373-.14.664-.38.873-.231.208-.543.315-.935.32l-3.205.042-.025-1.847l2.94-.039c.198435.006238.392177-.061073.544-.189.138-.114.206-.306.202-.577l-.034-2.576-3.696.049-.024-1.848Zm5.4,1.777l.029,2.212c.006.438.127.778.363,1.017.246.249.565.371.957.366l.14-.002c.392-.005.703-.131.933-.377.24-.245.357-.592.35-1.04l-.028-2.212-2.744.036ZM4.525,135.826l8.047-1.082-.38-2.83l1.665-.224l1.007,7.492-1.665.224-.38-2.83-8.048,1.081-.246-1.831Zm2.111,11.309l9.495-2.423l1.524,5.969-1.628.415-1.066-4.178-2.293.585.983,3.852-1.628.416-.983-3.853-3.947,1.007-.457-1.79Zm4.811,17.173c-.445-1.149-.487-2.184-.124-3.106.372-.925,1.145-1.615,2.32-2.071l2.192-.851c1.175-.456,2.207-.466,3.097-.031.899.432,1.57,1.222,2.017,2.371.446,1.148.483,2.185.111,3.11-.363.922-1.131,1.611-2.306,2.067l-2.193.851c-1.174.456-2.211.468-3.11.036-.89-.436-1.558-1.228-2.004-2.376Zm1.54-.598c.25.644.632,1.072,1.145,1.283.512.212,1.082.196,1.708-.047l2.297-.892c.627-.243,1.058-.616,1.293-1.118.236-.502.229-1.075-.021-1.718-.247-.635-.628-1.063-1.144-1.283-.513-.212-1.082-.196-1.709.047l-2.297.892c-.626.243-1.057.615-1.293,1.117-.232.511-.225,1.084.022,1.719Zm3.062,10.444l8.643-4.618.871,1.629-7.162,3.827l2.112,3.951-1.482.792-2.982-5.581Zm6.746,11.077l8.168-5.415l1.021,1.541-8.168,5.414-1.021-1.54Zm7.199,11.158c-.783-.951-1.146-1.921-1.09-2.91.063-.995.581-1.893,1.554-2.693l1.816-1.495c.973-.801,1.95-1.134,2.932-.999.988.129,1.874.669,2.657,1.621.784.951,1.143,1.924,1.08,2.919-.056.989-.57,1.884-1.543,2.684l-1.816,1.495c-.973.801-1.954,1.137-2.943,1.008-.982-.135-1.864-.678-2.647-1.63Zm1.276-1.049c.439.533.935.82,1.488.86s1.089-.153,1.608-.58l1.902-1.566c.519-.427.812-.916.878-1.466.067-.551-.12-1.092-.558-1.626-.433-.526-.93-.812-1.488-.86-.553-.04-1.09.153-1.608.58l-1.903,1.566c-.518.427-.811.916-.878,1.466-.06.558.126,1.1.559,1.626Zm13.31,14.608l.74-.914c.428-.53.87-.899,1.327-1.107.453891-.21266.955384-.303307,1.455-.263.522.037,1.08.177,1.677.419l.914.361c.34.13.65.207.93.23.288.016.552-.028.793-.133.248-.1.467-.265.654-.498l.035-.043c.294-.363.402-.75.326-1.16-.071-.417-.32-.798-.749-1.145-.42-.34-.856-.5-1.305-.478-.436.019-.827.243-1.173.671l-.159.196-1.393-1.126.14-.174c.446-.552.948-.92,1.506-1.106.553504-.184892,1.147947-.209849,1.715-.072.614099.153909,1.185819.443698,1.673.848.522.423.912.906,1.169,1.449.262.536.367,1.083.313,1.639-.041.555-.258,1.076-.651,1.562l-.088.109c-.393.487-.83.818-1.309.995-.470204.175634-.975662.235988-1.474.176-.544561-.073776-1.077929-.214507-1.588-.419l-.873-.346c-.388-.157-.716-.249-.985-.273-.262-.032-.485-.009-.669.07-.190367.094121-.356366.231027-.485.4l-.035.044l4.104,3.318-1.003,1.241-5.531-4.471Zm14.705,11.186c-.983-.61-1.605-1.369-1.866-2.277-.255-.917-.041-1.926.642-3.028l1.3-2.094c.663-1.071,1.465-1.7,2.404-1.886.944-.194,1.908.013,2.892.623.992.615,1.606,1.386,1.844,2.313.25.924.044,1.921-.62,2.992l-1.3,2.094c-.683,1.103-1.492,1.743-2.426,1.922-.922.175-1.878-.045-2.87-.659Zm.841-1.357c.595.369,1.132.477,1.612.324.487-.148.918-.524,1.291-1.126l1.373-2.213c.379-.611.505-1.17.38-1.676-.113-.509-.435-.928-.966-1.257-.548-.34-1.077-.443-1.588-.309-.503.138-.937.501-1.3,1.087l-1.373,2.213c-.389.627-.539,1.188-.45,1.682.102.491.442.916,1.021,1.275Zm8.464,6.86l.49-1.069c.285-.619.623-1.085,1.013-1.399.387108-.318661.850749-.53066,1.345-.615.515-.092,1.091-.095,1.73-.008l.974.124c.36.043.68.04.959-.007.282-.055.527-.163.734-.325.216-.157.387-.372.511-.643l.024-.051c.194-.424.204-.826.028-1.204-.171-.387-.507-.695-1.008-.925-.492-.225-.953-.273-1.383-.141-.417.126-.741.44-.97.94l-.106.229-1.629-.747.094-.204c.296-.644.691-1.125,1.186-1.442.490459-.316385,1.060383-.487639,1.644-.494.61-.008,1.22.129,1.83.409s1.108.652,1.49,1.115c.388.455.624.959.709,1.511.098.548.016,1.106-.245,1.675l-.058.127c-.261.568-.602.997-1.022,1.287-.409.285-.87.463-1.386.535-.54584.062625-1.097307.057923-1.642-.014l-.931-.119c-.415-.058-.756-.065-1.022-.023-.262.034-.472.112-.631.234-.147.118-.27.287-.372.508l-.023.051l4.797,2.201-.666,1.45-6.464-2.966Zm13.582,5.536l.359-1.12c.207-.649.486-1.152.836-1.511.346269-.362831.781288-.628944,1.262-.772.5-.153,1.071-.225,1.715-.215l.983.006c.363-.002.68-.042.95-.122.274-.089.504-.226.69-.411.196-.183.34-.416.43-.701l.018-.053c.142-.445.103-.844-.116-1.198-.217-.364-.588-.63-1.112-.797-.516-.165-.98-.157-1.39.025-.4.176-.683.526-.851,1.051l-.077.24-1.707-.546.069-.214c.216-.675.55-1.2,1.004-1.575.448997-.372227.993836-.610334,1.572-.687.628079-.078664,1.265807-.015097,1.866.186.60176.182132,1.153854.499569,1.614.928.439.405.734.876.885,1.415.163.532.149,1.096-.042,1.692l-.043.133c-.19.595-.477,1.062-.86,1.4-.37.332-.808.565-1.31.698-.501.124-1.045.185-1.632.183l-.94-.006c-.418-.007-.757.027-1.016.101-.256.065-.456.167-.599.308-.143903.156216-.249366.343859-.308.548l-.017.053l5.027,1.609-.486,1.52-6.774-2.168Zm24.91,4.178c-.35579-.04089-.694159-.176237-.98-.392-.275105-.213708-.492368-.49285-.632-.812-.13894-.335265-.185555-.701624-.135-1.061.037912-.350284.167233-.684449.375-.969.215-.284.486-.494.813-.632.335265-.13894.701624-.185555,1.061-.135.389.049.721.18.995.393.285.205.491.471.62.797.139.318.184.672.135,1.061-.039835.36722-.181496.716003-.409,1.007-.213.274-.483.48-.811.618-.326.128-.67.17-1.032.125Zm21.386,2.162c-1.229.079-2.229-.193-2.999-.817-.77-.633-1.196-1.578-1.277-2.835l-.152-2.347c-.081-1.258.219-2.245.903-2.963.682-.726,1.638-1.13,2.868-1.209c1.229-.079,2.229.197,2.999.83.77.624,1.196,1.564,1.277,2.822l.152,2.347c.081,1.257-.22,2.249-.902,2.976-.683.718-1.64,1.116-2.869,1.196Zm-.107-1.649c.69-.044,1.212-.279,1.568-.704.356-.426.513-.973.469-1.644l-.159-2.459c-.043-.67-.269-1.194-.676-1.57-.408-.375-.957-.541-1.646-.496-.68.043-1.202.278-1.568.704-.356.425-.512.973-.469,1.644l.159,2.459c.044.67.269,1.193.677,1.569.417.376.966.541,1.645.497Zm11.934.38l-1.803-9.633l1.816-.34l1.494,7.982l4.404-.824.309,1.651-6.22,1.164Zm16.257-3.464c-.766.241-1.468.311-2.107.209-.611913-.102641-1.180144-.382931-1.634-.806-.451-.435-.788-1.009-1.013-1.721l-1.912-6.061l1.763-.556l1.928,6.115c.18.569.482.968.906,1.197.434.225.957.241,1.572.048.614-.194,1.029-.506,1.246-.937.225-.433.248-.934.068-1.504l-1.928-6.115l1.762-.556l1.912,6.062c.225.712.273,1.377.145,1.995-.12354.60876-.429015,1.165659-.876,1.597-.456.447-1.067.792-1.832,1.033Zm11.824-4.236l-5.402-8.277l1.653-.794l4.542,7.262.227-.109-2.573-8.206l2.878-1.381l4.795,7.14.227-.109-2.826-8.085l1.654-.794l3.08,9.392-2.878,1.381-4.905-7.305-.227.109l2.633,8.395-2.878,1.381Zm14.326-7.34l-3.266-9.592l2.684-1.778l7.561,6.746-1.587,1.052-1.635-1.504-2.918,1.933.748,2.091-1.587,1.052Zm.258-4.806l2.194-1.454-3.629-3.322-.21.139l1.645,4.637Zm13.294-6.127l-5.266-6.18-2.174,1.852-1.09-1.279l5.755-4.902l1.09,1.279-2.174,1.852l5.266,6.18-1.407,1.198Zm12.149-10.491c-.831.909-1.74,1.406-2.727,1.49-.994.078-1.956-.308-2.887-1.158l-1.736-1.586c-.93-.85-1.398-1.77-1.403-2.761-.012-.997.398-1.95,1.229-2.86.831-.909,1.744-1.403,2.738-1.48.987-.085,1.946.298,2.876,1.148l1.736,1.587c.931.849,1.402,1.773,1.414,2.77.005.99-.408,1.94-1.24,2.85Zm-1.219-1.114c.466-.51.68-1.042.641-1.595-.038-.553-.305-1.056-.801-1.51l-1.819-1.662c-.496-.453-1.022-.673-1.576-.662-.554.012-1.065.273-1.531.783-.459.503-.673,1.034-.641,1.594.038.553.305,1.057.801,1.51l1.819,1.662c.496.453,1.022.674,1.576.662.561-.019,1.071-.279,1.531-.782Zm10.622-10.288c-.437.617-.933,1.084-1.488,1.4-.524122.308169-1.125397.460136-1.733.438-.6-.025-1.19-.242-1.769-.651l-.32-.226l1.051-1.486.32.226c.48.34.948.447,1.402.322.446-.13.85-.45,1.211-.961.366-.518.536-.976.508-1.372-.009287-.3799-.20051-.732211-.514-.947-.221-.156-.446-.218-.675-.185-.223.025-.463.129-.719.314-.305472.208446-.594944.439422-.866.691l-.243.222c-.51.463-.997.827-1.46,1.094-.465.254-.926.38-1.382.378-.45-.01-.919-.188-1.407-.532-.488-.345-.822-.753-1.003-1.224-.184746-.495167-.221232-1.033431-.105-1.549.111-.562.369-1.128.773-1.699.404-.572.862-1.009,1.373-1.31.479938-.307325,1.04253-.460188,1.612-.438.565.011,1.136.221,1.715.63l.343.243-1.051,1.486-.343-.243c-.304-.216-.591-.327-.861-.334-.272526-.020525-.5437.054428-.767.212-.274804.182448-.510968.417253-.695.691-.323.457-.475.858-.456,1.203.016.332.173.603.47.813.199.141.401.21.609.207.212-.009.437-.085.674-.226s.503-.347.798-.619l.243-.222c.463776-.438111.97338-.825008,1.52-1.154.492-.292.978-.446,1.457-.461.48-.016.964.149,1.451.494.488.345.83.775,1.025,1.291.194.502.235,1.057.125,1.665-.112.595-.387,1.202-.823,1.819Zm5.531-8.538L214.816,176l.912-1.607l8.522,4.84-.913,1.607Zm4.559-8.324l-8.975-3.936l1.411-3.218l8.603,1.648.101-.231-7.821-3.429.731-1.667l8.975,3.936-1.411,3.218-8.603-1.648-.101.231l7.821,3.429-.731,1.667Zm7.68-22.716l-9.582-2.053.845-3.942c.129-.603.366-1.106.71-1.509.321158-.404002.754165-.704498,1.245-.864.494-.171,1.043-.192,1.645-.063l.192.041c.593.127,1.084.375,1.472.745.382.359.646.797.792,1.315.14.507.147,1.053.022,1.637l-.458,2.136l3.505.75-.388,1.807Zm-4.76-2.909l.42-1.958c.092-.429.048-.801-.133-1.117-.181-.315-.476-.517-.887-.605l-.137-.029c-.41-.088-.763-.025-1.057.189-.294.213-.487.535-.579.964l-.419,1.957l2.792.599Zm7.425-14.592c-.107,1.227-.526,2.174-1.258,2.842-.742.666-1.74.945-2.995.837l-2.344-.203c-1.255-.109-2.186-.555-2.793-1.338-.616-.784-.871-1.79-.764-3.017.106-1.227.53-2.174,1.271-2.841.733-.667,1.726-.947,2.982-.838l2.343.203c1.255.108,2.191.555,2.807,1.339.607.783.857,1.788.751,3.016Zm-1.646-.143c.059-.688-.094-1.24-.461-1.656s-.885-.652-1.555-.71l-2.454-.213c-.67-.058-1.221.087-1.654.433-.433.347-.679.864-.739,1.552-.058.679.095,1.231.461,1.656.367.416.885.653,1.555.711l2.455.212c.669.058,1.22-.086,1.653-.433.434-.356.68-.873.739-1.552Zm2.047-11.807l-9.793.377-.164-4.253c-.024-.615.063-1.156.26-1.621s.486-.831.868-1.098.839-.411,1.371-.431l.168-.006c.587-.023,1.068.099,1.443.364.374.266.653.601.837,1.005l.252-.01c.004-.374.124-.668.358-.882.225-.214.534-.329.926-.344l3.203-.123.071,1.846-2.937.113c-.198469-.000653-.390271.071584-.539.203-.136.117-.198.311-.188.582l.099,2.574l3.694-.142.071,1.846Zm-5.443-1.639l-.086-2.211c-.016-.438-.146-.774-.389-1.008-.252-.242-.574-.356-.965-.341l-.14.006c-.392.015-.7.148-.924.399-.233.252-.341.602-.324,1.05l.086,2.21l2.742-.105Zm4.807-14.248l-8.018,1.285.452,2.82-1.659.266-1.196-7.464l1.658-.266.453,2.82l8.017-1.285.293,1.824Zm-3.09-12.304l-9.432,2.662-1.673-5.929l1.617-.456l1.171,4.15l2.277-.643-1.08-3.826l1.617-.457l1.08,3.827l3.921-1.107.502,1.779ZM229.973,76.03c.475,1.137.543,2.171.203,3.102-.348.934-1.103,1.644-2.266,2.13l-2.17.906c-1.163.485-2.195.521-3.095.109-.91-.41-1.602-1.183-2.077-2.32-.474-1.136-.538-2.172-.19-3.106.34-.93,1.091-1.639,2.254-2.124l2.17-.907c1.163-.485,2.199-.523,3.108-.114.901.413,1.589,1.188,2.063,2.325Zm-1.524.637c-.266-.637-.658-1.055-1.176-1.254-.518-.198-1.087-.168-1.707.091l-2.274.95c-.62.258-1.041.642-1.264,1.15-.223.507-.201,1.08.065,1.717.262.629.654,1.047,1.176,1.254.518.198,1.087.168,1.707-.091l2.273-.95c.621-.258,1.042-.642,1.265-1.15.219-.516.198-1.088-.065-1.717Zm-3.025-10.493L216.9,71.009l-.912-1.607l7.063-4.006-2.211-3.897l1.461-.829l3.123,5.504Zm-6.773-11.058l-8.029,5.62-1.06-1.514l8.029-5.62l1.06,1.514Zm-8.302-10.077c.807.93,1.195,1.891,1.164,2.881-.039.997-.534,1.907-1.486,2.732l-1.778,1.54c-.952.825-1.921,1.183-2.905,1.073-.992-.104-1.891-.622-2.698-1.553-.807-.93-1.191-1.894-1.153-2.89.031-.99.523-1.898,1.475-2.723l1.778-1.54c.952-.826,1.924-1.186,2.916-1.082.984.11,1.88.63,2.687,1.562ZM209.1,46.12c-.452-.522-.955-.796-1.509-.822s-1.085.18-1.593.62l-1.862,1.614c-.508.44-.788.936-.841,1.488s.147,1.089.599,1.61c.447.515.95.79,1.51.823.554.026,1.085-.18,1.593-.62l1.862-1.614c.508-.44.788-.936.841-1.488.046-.559-.153-1.096-.6-1.61ZM195.798,30.471l-.716.933c-.415.54-.848.92-1.298,1.14-.448238.224586-.947429.32801-1.448.3-.523-.025-1.085-.15-1.688-.377l-.923-.338c-.300743-.1124-.615856-.181752-.936-.206-.271083-.012208-.541182.040235-.788.153-.246.106-.46.277-.642.514l-.034.044c-.284.37-.383.76-.296,1.168.082.415.341.79.778,1.125.429.33.868.479,1.317.446.435-.03.82-.264,1.155-.701l.154-.2l1.422,1.09-.137.178c-.432.563-.924.944-1.477,1.143-.553.2-1.124.238-1.712.116-.617943-.138295-1.196886-.413754-1.694-.806-.533-.409-.935-.882-1.205-1.418-.269829-.49929-.392901-1.06473-.355-1.631.027-.556.231-1.082.611-1.578l.086-.111c.38-.496.808-.839,1.282-1.028.465893-.187617.970015-.260663,1.47-.213.546225.060143,1.082944.187438,1.598.379l.881.323c.392.148.723.231.992.249.262.025.485-.004.667-.088.169-.082.327-.22.475-.412l.034-.044-4.187-3.213.971-1.266l5.643,4.33ZM181.014,20.404c.999.585,1.64,1.328,1.923,2.23.279.909.09,1.923-.565,3.043l-1.246,2.126c-.636,1.087-1.422,1.736-2.356,1.946-.939.218-1.908.035-2.907-.55-1.007-.59-1.641-1.345-1.902-2.266-.274-.917-.092-1.92.545-3.007l1.245-2.126c.656-1.12,1.448-1.78,2.378-1.982.917-.199,1.878-.003,2.885.586Zm-.806,1.378c-.605-.354-1.144-.448-1.619-.283-.484.16-.905.546-1.263,1.158l-1.316,2.247c-.364.62-.476,1.182-.338,1.685.126.506.458.917.998,1.233.556.325,1.087.415,1.595.268.499-.15.923-.524,1.272-1.12l1.317-2.247c.372-.636.508-1.2.407-1.692-.114-.489-.465-.905-1.053-1.25Zm-8.462-6.924l-.463,1.08c-.269.627-.594,1.102-.977,1.425-.378745.328646-.836939.552399-1.329.649-.512.105-1.088.122-1.728.051l-.978-.099c-.319203-.034742-.641711-.024306-.958.031-.265909.055313-.514793.173241-.726.344-.219002.172133-.389566.398172-.495.656l-.022.052c-.184.428-.183.83.002,1.204.181.382.525.682,1.031.899.498.213.96.248,1.386.106.414-.137.73-.459.947-.965l.099-.231l1.647.706-.088.206c-.279.651-.662,1.142-1.149,1.472-.482473.328296-1.047814.513739-1.631.535-.632786.01841-1.261617-.105648-1.84-.363-.617-.264-1.124-.623-1.518-1.077-.384306-.417091-.642911-.934301-.746-1.492-.112-.546-.044-1.106.202-1.68l.055-.13c.247-.574.576-1.011.99-1.312.4-.295.857-.485,1.371-.57.544144-.07645,1.095637-.085518,1.642-.027l.934.096c.416.046.757.045,1.022-.004.261-.04.469-.124.625-.25.143-.121.263-.293.358-.516l.022-.052-4.851-2.08.629-1.466l6.537,2.802ZM158.151,10.36l-.33,1.13c-.191.653-.457,1.164-.798,1.531-.336741.371796-.76493.648981-1.242.804-.496.166-1.065.252-1.709.259l-.983.018c-.363.011-.679.06-.947.147-.257311.086912-.49035.233589-.68.428-.196669.19726-.33865.442281-.412.711l-.016.054c-.131.448-.082.846.147,1.195.226.358.603.614,1.132.768.519.152.982.132,1.388-.06.395-.186.67-.544.825-1.072l.07-.242l1.72.503-.063.215c-.199.68-.52,1.214-.964,1.6-.439112.383977-.977825.636001-1.554.727-.625872.094426-1.264966.046921-1.87-.139-.645-.188-1.191-.484-1.637-.887-.432003-.367777-.750984-.850409-.92-1.392-.177-.528-.177-1.092-.001-1.692l.039-.135c.175-.6.45-1.074.824-1.421.366487-.343142.809867-.593465,1.293-.73.530971-.141981,1.077434-.217888,1.627-.226l.938-.017c.42-.004.758-.046,1.015-.126.254-.072.451-.18.59-.323.128-.138.226-.323.294-.556l.016-.054-5.066-1.481.448-1.532l6.826,1.996ZM133.263,6.308c.371.037.701.16.99.366.28.206.497.472.652.797.146.324.2.676.162,1.057-.029626.35105-.150637.688227-.351.978-.201957.284882-.476922.510105-.796.652-.325.146-.677.2-1.058.162-.361908-.028324-.709141-.155251-1.004-.367-.285347-.192328-.507897-.464256-.64-.782-.149034-.33107-.20504-.696492-.162-1.057.060503-.725863.512734-1.360675,1.179-1.655.324344-.136573.678154-.188199,1.028-.15Z" transform="translate(-121.314996,-121.247076)" fill="#100a37"/></g><path d="M122.238,163.636v-89.477" fill="none" stroke="#100a37" stroke-width="2" stroke-linecap="round"/><path d="M122.354,163.474c-.301-.767-.64-1.651-.885-2.291-.110096-.289272-.221765-.577943-.335-.866-2.08-5.038-4.83-9.483-8.325-13.68-.290872-.313466-.776071-.344802-1.104848-.071354s-.386372.756235-.131152,1.099354c3.39,4.069,6.059,8.38,8.076,13.267.032.077.158.405.332.858.47,1.222,1.288,3.349,1.537,3.883.139.301.311.428.354.454.225.148.432.15.591.12.179-.034.461-.163.675-.501.166-.262.363-.794.49-1.136.045-.119.081-.216.104-.269.378-.882.746-1.801,1.122-2.737.955-2.382,1.951-4.867,3.248-7.091c1.724-2.955,3.98-5.452,7.463-6.517.40105-.147557.616914-.582767.491709-.991347s-.547844-.648126-.962709-.545653c-3.893,1.191-6.454,3.941-8.38,7.243-1.329,2.28-2.353,4.826-3.333,7.264-.344.854-.683,1.696-1.027,2.508Z" fill="#100a37"/><path d="M122.354,163.474c-.301-.767-.64-1.651-.885-2.291-.110096-.289272-.221765-.577943-.335-.866-2.08-5.038-4.83-9.483-8.325-13.68-.290872-.313466-.776071-.344802-1.104848-.071354s-.386372.756235-.131152,1.099354c3.39,4.069,6.059,8.38,8.076,13.267.032.077.158.405.332.858.47,1.222,1.288,3.349,1.537,3.883.139.301.311.428.354.454.225.148.432.15.591.12.179-.034.461-.163.675-.501.166-.262.363-.794.49-1.136.045-.119.081-.216.104-.269.378-.882.746-1.801,1.122-2.737.955-2.382,1.951-4.867,3.248-7.091c1.724-2.955,3.98-5.452,7.463-6.517.40105-.147557.616914-.582767.491709-.991347s-.547844-.648126-.962709-.545653c-3.893,1.191-6.454,3.941-8.38,7.243-1.329,2.28-2.353,4.826-3.333,7.264-.344.854-.683,1.696-1.027,2.508Z" fill="none" stroke="#100a37"/></svg>
