<svg width="40" height="40" viewBox="0 0 40 40" fill="none" xmlns="http://www.w3.org/2000/svg">
<circle cx="20" cy="20" r="20" fill="#070A15"/>
<path d="M21.1913 22.5H13.6663C12.1496 22.5 11.183 20.875 11.9163 19.5416L13.858 16.0083L15.6746 12.7C16.433 11.325 18.4163 11.325 19.1746 12.7L20.9996 16.0083L21.8746 17.6L22.9413 19.5416C23.6746 20.875 22.708 22.5 21.1913 22.5Z" fill="white"/>
<path opacity="0.4" d="M28.3333 22.9167C28.3333 25.9083 25.9083 28.3333 22.9167 28.3333C19.925 28.3333 17.5 25.9083 17.5 22.9167C17.5 22.775 17.5083 22.6417 17.5167 22.5H21.1917C22.7083 22.5 23.675 20.875 22.9417 19.5417L21.875 17.6C22.2083 17.5333 22.5583 17.5 22.9167 17.5C25.9083 17.5 28.3333 19.925 28.3333 22.9167Z" fill="white"/>
</svg>
