<svg id="e4HNMzZS87r1" xmlns="http://www.w3.org/2000/svg" xmlns:xlink="http://www.w3.org/1999/xlink" viewBox="0 0 72 72" shape-rendering="geometricPrecision" text-rendering="geometricPrecision">
<style><![CDATA[
#e4HNMzZS87r2_ts {animation: e4HNMzZS87r2_ts__ts 5000ms linear infinite normal forwards}@keyframes e4HNMzZS87r2_ts__ts { 0% {transform: translate(30px,33.67215px) scale(1,1)} 12.5% {transform: translate(30px,33.67215px) scale(0.620691,0.674966)} 37.5% {transform: translate(30px,33.67215px) scale(1,1)} 62.5% {transform: translate(30px,33.67215px) scale(0.620691,0.674966)} 87.5% {transform: translate(30px,33.67215px) scale(1,1)} 100% {transform: translate(30px,33.67215px) scale(1,1)}} #e4HNMzZS87r3_ts {animation: e4HNMzZS87r3_ts__ts 5000ms linear infinite normal forwards}@keyframes e4HNMzZS87r3_ts__ts { 0% {transform: translate(48px,17px) scale(1,1)} 25% {transform: translate(48px,17px) scale(0.377905,0.443796)} 50% {transform: translate(48px,17px) scale(1,1)} 75% {transform: translate(48px,17px) scale(0.377905,0.443796)} 100% {transform: translate(48px,17px) scale(1,1)}} #e4HNMzZS87r4_ts {animation: e4HNMzZS87r4_ts__ts 5000ms linear infinite normal forwards}@keyframes e4HNMzZS87r4_ts__ts { 0% {transform: translate(55px,51px) scale(1,1)} 25% {transform: translate(55px,51px) scale(0.312501,0.361916)} 50% {transform: translate(55px,51px) scale(1,1)} 75% {transform: translate(55px,51px) scale(0.312501,0.361916)} 100% {transform: translate(55px,51px) scale(1,1)}}
]]></style>
<g id="e4HNMzZS87r2_ts" transform="translate(30,33.67215) scale(1,1)"><path d="M59,33.2931c-1.0217.2471-2.097.379-3.2071.379h-12.9653c-6.7037,0-12.138,4.8107-12.138,10.7448v12.6988c0,.764-.0902,1.5095-.2613,2.2286C30.1491,58.4398,30,57.4879,30,56.5052v-11.4775c0-5.9344-5.4343-10.7451-12.1378-10.7451h-14.34465c-.86319,0-1.70534-.0798-2.51755-.2313c1.02164-.2472,2.097-.3792,3.2072-.3792h12.9654c6.7035,0,12.1378-4.8106,12.1378-10.7449v-12.6986c0-.76409.0901-1.5096.2614-2.2286.2792.9044.4282,1.85637.4282,2.8392v11.4775c0,5.9343,5.4343,10.7449,12.1379,10.7449h14.3446c.863,0,1.7052.0798,2.5175.2315Z" transform="translate(-30,-33.67215)" clip-rule="evenodd" fill="#ffffffff" fill-rule="evenodd"/></g><g id="e4HNMzZS87r3_ts" transform="translate(48,17) scale(1,1)"><path d="M60,16.8228c-.4228.1155-.8677.1772-1.3271.1772h-5.3649c-2.774,0-5.0226,2.2487-5.0226,5.0225v5.9358c0,.3571-.0374.7056-.1082,1.0417-.1155-.4228-.1772-.8677-.1772-1.3271v-5.3649c0-2.774-2.2487-5.0226-5.0225-5.0226h-5.9358c-.3571,0-.7056-.0374-1.0417-.1082.4227-.1155.8677-.1772,1.3271-.1772h5.365c2.7739,0,5.0225-2.2487,5.0225-5.0225v-5.93576c0-.35718.0373-.70565.1082-1.04174.1155.42275.1772.86773.1772,1.32712v5.36498c0,2.7739,2.2487,5.0225,5.0226,5.0225h5.9357c.3571,0,.7056.0373,1.0417.1082Z" transform="translate(-48,-17)" clip-rule="evenodd" fill="#ffffffff" fill-rule="evenodd"/></g><g id="e4HNMzZS87r4_ts" transform="translate(55,51) scale(1,1)"><path d="M71,50.7637c-.5637.1541-1.157.2363-1.7694.2363h-7.1533c-3.6986,0-6.6968,2.9982-6.6968,6.6966v7.9144c0,.4762-.0498.9408-.1442,1.389C55.0822,66.4363,55,65.843,55,65.2306v-7.1533c0-3.6986-2.9982-6.6968-6.6967-6.6968h-7.9143c-.4762,0-.9409-.0498-1.389-.1442.5637-.1541,1.157-.2363,1.7695-.2363h7.1533c3.6985,0,6.6967-2.9982,6.6967-6.6967v-7.9143c0-.4763.0497-.9409.1442-1.389.1541.5637.2363,1.157.2363,1.7695v7.1533c0,3.6985,2.9982,6.6967,6.6968,6.6967h7.9142c.4762,0,.9408.0497,1.389.1442Z" transform="translate(-55,-51)" clip-rule="evenodd" fill="#ffffffff" fill-rule="evenodd"/></g></svg>
