<?xml version="1.0" standalone="no"?>
<!DOCTYPE svg PUBLIC "-//W3C//DTD SVG 20010904//EN"
 "http://www.w3.org/TR/2001/REC-SVG-20010904/DTD/svg10.dtd">
<svg version="1.0" xmlns="http://www.w3.org/2000/svg"
 width="1024.000000pt" height="1024.000000pt" viewBox="0 0 1024.000000 1024.000000"
 preserveAspectRatio="xMidYMid meet">

<g transform="translate(0.000000,1024.000000) scale(0.100000,-0.100000)"
fill="#000000" stroke="none">
<path d="M0 7680 l0 -2560 198 0 197 0 0 -80 0 -80 -77 0 -78 0 0 -159 0 -158
37 -7 c21 -3 57 -6 81 -6 l42 0 0 -75 0 -75 43 0 43 0 -4 -40 c-4 -39 -5 -40
-43 -40 -38 0 -39 -1 -39 -35 0 -34 -1 -35 -40 -35 -40 0 -40 0 -40 -39 0 -39
-1 -40 -37 -43 -36 -3 -38 -5 -41 -40 -3 -37 -4 -38 -43 -38 -39 0 -39 0 -39
-40 0 -40 0 -40 -39 -40 -40 0 -40 0 -43 -42 -3 -42 -4 -43 -40 -46 l-38 -3 0
-918 0 -919 22 -6 c13 -3 48 -6 78 -7 30 -1 45 -4 33 -6 -40 -8 -53 -40 -53
-130 l0 -83 -40 0 -40 0 0 -650 0 -650 34 0 c39 0 46 -14 46 -97 l0 -53 40 0
40 0 0 -80 0 -80 34 0 c31 0 34 -3 40 -39 6 -40 20 -51 60 -51 20 0 23 -5 22
-32 -1 -32 1 -33 41 -36 40 -3 42 -5 48 -43 7 -43 6 -42 102 -39 l52 1 3 -38
3 -38 874 -3 c693 -2 876 0 883 10 6 10 8 10 8 1 0 -10 26 -13 103 -12 56 1
90 4 75 6 -24 4 -28 9 -28 39 0 33 -1 34 -40 34 l-40 0 0 45 c0 45 0 45 -35
45 l-35 0 0 -50 c0 -46 -2 -50 -18 -41 -10 6 -28 7 -40 4 -20 -5 -22 -2 -22
46 l0 51 35 0 c33 0 35 2 35 36 l0 36 -80 -4 -80 -3 0 36 c0 20 3 39 7 43 4 4
6 23 4 42 -2 33 -1 34 33 34 35 0 36 1 36 40 l0 40 -46 0 -45 0 3 42 c3 42 4
43 41 46 l38 3 -3 46 c-1 25 -8 51 -15 59 -10 10 -10 14 -1 20 6 4 14 2 16 -4
5 -17 39 -15 46 3 3 8 0 15 -6 15 -6 0 -9 3 -6 6 13 12 48 -23 54 -53 6 -31 9
-33 46 -33 35 0 39 -3 38 -22 -1 -13 -2 -44 -1 -70 l1 -48 40 0 c38 0 40 2 40
30 0 17 5 30 10 30 6 0 10 -7 10 -15 0 -18 46 -21 53 -2 3 6 6 -2 6 -20 1 -30
3 -32 44 -35 39 -3 42 -5 45 -35 3 -30 6 -33 38 -33 32 0 34 -2 34 -35 0 -33
2 -35 39 -41 38 -6 40 -8 43 -48 2 -22 2 -76 0 -118 l-4 -78 -39 0 c-39 0 -39
0 -39 -39 0 -26 5 -41 16 -45 9 -3 115 -5 237 -4 124 1 171 4 106 5 l-117 4
-6 34 c-6 30 -11 35 -36 35 -16 0 -32 5 -35 11 -4 5 -4 41 0 80 l7 69 194 0
194 0 0 -40 0 -40 64 0 c34 0 91 -3 125 -6 56 -6 61 -9 61 -30 0 -20 -5 -24
-30 -24 -17 0 -30 5 -30 13 -1 7 -6 5 -14 -5 -9 -12 -27 -18 -55 -18 -39 0
-41 1 -41 30 0 28 -2 30 -40 30 -39 0 -40 -1 -40 -34 0 -33 2 -35 38 -38 35
-3 37 -5 40 -40 l3 -37 134 0 c98 -1 135 2 138 11 4 10 6 10 6 0 2 -23 21 -2
21 23 0 14 -7 25 -17 28 -14 4 -12 5 5 6 19 1 22 -4 22 -34 l0 -35 1845 0
1845 0 0 80 0 80 -37 1 c-37 1 -38 1 -10 11 19 7 27 17 27 34 0 13 -6 24 -12
25 -7 1 -2 4 12 8 21 6 24 12 22 39 -3 30 -1 32 27 32 33 0 39 -13 17 -36 -13
-12 -15 -12 -19 4 -4 13 -5 11 -6 -5 -1 -18 4 -23 24 -23 25 0 26 2 25 68 0 7
-24 9 -107 11 -42 1 -43 2 -43 36 0 34 -1 35 -40 35 -33 0 -42 4 -50 23 -7 17
-9 18 -9 5 -1 -13 -9 -18 -31 -18 -26 0 -30 3 -30 29 0 20 -6 31 -17 34 -10 3
44 5 120 6 l137 1 0 -41 0 -40 43 3 c41 3 42 4 45 41 l3 37 -40 0 -41 0 0 45
0 45 -165 0 -166 0 3 113 3 112 43 3 43 3 -3 194 -4 194 38 6 38 7 0 79 0 79
39 0 c45 0 51 11 51 98 l0 52 35 0 35 0 0 160 0 160 39 0 38 0 7 61 c3 34 6
106 6 160 0 91 2 99 19 99 40 0 51 11 51 51 l0 39 45 0 45 0 0 40 0 40 76 0
76 0 -4 -37 -3 -38 85 -3 85 -3 -3 -44 -4 -45 46 0 c46 0 46 0 46 -35 l0 -35
69 0 c72 0 81 -6 81 -50 0 -20 19 -30 56 -30 21 0 24 -5 24 -36 0 -35 1 -35
38 -32 34 3 37 6 40 36 3 31 2 32 -37 32 l-41 0 0 40 0 40 -40 0 -40 0 0 40 0
40 -40 0 -40 0 0 40 c0 40 0 40 -40 40 -39 0 -40 1 -46 40 -6 36 -10 40 -34
40 -25 0 -29 4 -35 41 -7 39 -8 40 -43 37 l-37 -3 -3 163 -2 162 -40 0 -40 0
0 109 0 110 33 4 32 4 -32 1 -33 2 0 365 0 365 40 0 40 0 0 40 0 40 40 0 c39
0 40 1 40 35 0 33 2 35 35 35 33 0 35 -2 35 -34 0 -42 4 -45 53 -38 37 4 38 5
35 41 -3 34 -5 36 -40 39 l-38 3 0 120 0 119 39 0 39 0 7 69 c4 39 4 75 0 80
-3 6 -24 11 -46 11 l-41 0 4 43 3 42 -43 3 c-41 3 -42 4 -42 38 l0 34 -160 0
-160 0 0 39 c0 26 -5 41 -15 45 -9 3 -105 3 -214 -1 -239 -7 -251 -5 -251 43
l0 35 -82 -3 -83 -3 -3 -32 c-3 -30 -6 -33 -38 -33 l-34 0 0 75 0 75 -40 0
-40 0 0 40 c0 37 -2 40 -27 40 -43 0 -55 13 -51 51 3 33 2 34 -32 34 -19 0
-38 5 -42 10 -4 6 -8 58 -8 118 l0 107 -35 0 c-34 0 -35 1 -35 40 0 39 1 40
35 40 33 0 35 2 35 34 0 18 3 54 6 80 7 45 7 46 44 46 36 0 37 1 36 37 -1 36
0 36 39 37 39 1 40 2 45 41 3 22 11 41 18 41 6 1 21 2 32 3 16 1 20 8 20 36 0
33 2 35 40 41 l40 7 0 278 0 279 -40 0 -40 0 0 80 0 80 -40 0 -40 0 0 45 0 45
-40 0 -40 0 0 134 c0 73 -3 161 -6 195 l-7 61 47 0 c46 0 46 0 46 34 0 33 2
35 38 38 36 3 37 4 40 45 3 42 3 42 45 45 39 3 42 5 45 35 3 28 8 33 37 39 26
5 34 11 37 32 1 15 2 143 0 285 l-3 257 -40 0 -41 0 4 74 3 75 -42 6 -43 6 0
80 0 79 -37 0 -38 0 -2 72 c-3 77 -10 88 -55 88 -26 0 -28 3 -28 40 l0 41 -35
-7 c-34 -6 -35 -5 -35 24 0 50 -9 62 -46 62 -33 0 -34 1 -34 40 0 39 -1 40
-33 40 -30 0 -34 4 -43 38 -8 34 -12 37 -46 40 -33 3 -37 6 -40 35 -3 29 -7
32 -43 37 -38 5 -40 7 -43 43 l-3 37 -80 0 -79 0 0 40 c0 45 4 43 -92 40 l-68
-2 0 41 0 41 -120 0 -120 0 0 47 0 46 -112 -6 c-62 -4 -260 -7 -440 -7 l-328
0 0 -40 0 -39 -122 -3 -123 -3 -3 -37 -3 -38 -74 0 c-78 0 -85 -5 -85 -56 0
-23 -2 -24 -80 -24 l-80 0 0 -40 0 -40 -80 0 -80 0 0 -39 c0 -37 -2 -40 -32
-43 -30 -3 -33 -6 -36 -40 -3 -37 -4 -38 -43 -38 -39 0 -39 0 -39 -40 l0 -40
-40 0 c-39 0 -40 -1 -40 -35 0 -30 -3 -35 -24 -35 -43 0 -56 -10 -56 -45 0
-32 -2 -34 -37 -37 l-38 -3 -3 -82 -3 -83 -39 0 -40 0 0 -80 0 -80 -40 0 -40
0 0 -80 0 -80 -45 0 -45 0 0 -203 c0 -112 3 -258 6 -324 l7 -121 36 5 c36 5
36 5 36 -33 0 -35 3 -39 35 -48 40 -11 50 -22 50 -53 0 -20 5 -23 39 -23 39 0
40 -1 43 -37 3 -35 6 -38 36 -41 l32 -3 0 -120 0 -119 -35 0 c-33 0 -35 -2
-35 -35 0 -34 -1 -35 -39 -35 -45 0 -51 -11 -51 -102 l0 -58 -35 0 c-28 0 -36
-4 -41 -24 -3 -14 -4 -159 -2 -323 l3 -298 38 -3 c36 -3 37 -4 37 -43 0 -39 0
-39 40 -39 40 0 40 0 40 -39 0 -40 0 -40 43 -43 41 -3 42 -4 45 -40 3 -34 1
-38 -20 -38 -53 0 -68 -11 -68 -46 0 -33 -1 -34 -40 -34 l-40 0 0 -81 0 -81
-37 4 -38 3 -5 -80 -5 -80 -32 -3 c-31 -3 -33 -6 -33 -43 0 -39 0 -39 -40 -39
l-40 0 0 -40 0 -40 -199 0 -200 0 -3 -36 -3 -36 -75 -2 c-41 -2 -130 -4 -197
-5 l-123 -1 0 -40 0 -40 -120 0 c-91 0 -120 -3 -119 -12 1 -7 1 -26 0 -42 -1
-25 -4 -28 -28 -23 -51 10 -53 4 -53 -124 l0 -119 -27 0 c-37 0 -49 -9 -57
-42 -5 -23 -12 -28 -36 -28 -28 0 -30 3 -30 35 0 35 0 35 -45 35 l-45 0 0 40
c0 39 -1 40 -35 40 -35 0 -40 7 -38 58 1 13 -33 25 -63 22 -11 -1 -34 -2 -51
-1 -32 1 -33 3 -33 41 l0 40 -50 0 -50 0 0 115 0 115 40 0 40 0 0 165 0 165
-40 0 -40 0 0 160 0 160 80 0 80 0 0 39 0 40 47 3 c46 3 48 4 51 36 3 29 6 32
38 32 33 0 34 1 34 40 l0 40 75 0 75 0 0 40 0 40 75 0 75 0 0 45 c0 31 4 45
13 44 6 -1 27 -1 45 0 30 1 32 3 32 36 0 34 1 35 40 35 l40 0 0 218 c0 119 3
227 6 239 4 16 16 23 45 28 l38 7 3 101 3 101 33 10 32 9 0 128 0 128 43 3 42
3 3 78 3 77 34 0 35 0 0 120 0 120 40 0 40 0 0 280 0 280 40 0 40 0 0 481 0
481 43 -4 42 -3 3 78 3 77 34 0 35 0 0 685 0 685 -360 0 c-233 0 -360 -4 -360
-10 0 -5 -7 -10 -15 -10 -8 0 -15 -5 -15 -11 0 -5 -4 -7 -10 -4 -5 3 -10 0
-10 -7 0 -7 -8 -1 -18 15 -13 22 -24 27 -54 27 l-38 0 -2 -242 -3 -243 -37 -3
-38 -3 0 245 0 246 -520 0 -520 0 0 -120 0 -120 -40 0 -40 0 0 120 0 120 -560
0 -560 0 0 -2560z m2473 2143 l6 -143 -25 0 c-23 0 -24 3 -24 60 0 33 -4 60
-10 60 -16 0 -12 125 3 139 8 6 17 8 20 4 4 -3 9 2 13 11 4 9 8 16 9 14 1 -2
5 -67 8 -145z m-2236 90 c-3 -10 -5 -2 -5 17 0 19 2 27 5 18 2 -10 2 -26 0
-35z m956 -190 c4 -58 7 -578 7 -1155 l0 -1048 -40 0 -40 0 1 1043 c1 573 3
1034 6 1025 5 -21 5 -21 38 -6 19 9 25 19 25 45 0 21 -5 33 -13 33 -7 0 -23
11 -35 25 -17 20 -22 38 -22 85 l0 60 33 0 34 0 6 -107z m1070 -28 c9 -9 15
-7 28 8 15 19 16 11 22 -124 4 -79 7 -359 7 -621 l0 -478 -40 0 -40 0 1 633
c1 347 4 623 6 613 3 -10 10 -24 16 -31z m-2096 -62 c-2 -16 -4 -3 -4 27 0 30
2 43 4 28 2 -16 2 -40 0 -55z m70 -10 c-2 -16 -4 -3 -4 27 0 30 2 43 4 28 2
-16 2 -40 0 -55z m2403 -138 c0 -34 -1 -35 -40 -35 -39 0 -40 1 -40 35 0 34 1
35 40 35 39 0 40 -1 40 -35z m-69 -490 c-7 -32 -9 -12 -9 94 0 74 3 142 7 150
10 26 12 -201 2 -244z m25 -339 c-3 7 1 14 9 18 10 3 15 -1 16 -12 0 -14 2
-14 10 3 5 13 7 -62 4 -200 -2 -121 -5 -221 -5 -222 0 -2 -16 -3 -35 -3 l-35
0 0 226 0 226 21 -23 c11 -13 18 -19 15 -13z m-2359 -83 c-3 -10 -5 -4 -5 12
0 17 2 24 5 18 2 -7 2 -21 0 -30z m2010 -200 c-2 -16 -4 -3 -4 27 0 30 2 43 4
28 2 -16 2 -40 0 -55z m3183 -13 l0 -40 -40 0 c-36 0 -40 3 -40 24 0 44 10 56
46 56 33 0 34 -1 34 -40z m-3111 -296 c1 -139 1 -142 -21 -148 -59 -15 -58
-18 -58 132 1 97 4 142 14 154 7 10 15 15 18 13 3 -3 11 2 19 11 12 15 14 14
20 -3 4 -10 8 -82 8 -159z m3271 136 l0 -40 45 0 45 0 0 -155 0 -155 -40 0
-40 0 0 115 c0 103 -2 115 -17 113 -53 -4 -59 0 -55 42 l4 40 -171 0 -171 0 0
33 c0 19 3 37 7 40 3 4 93 7 200 7 l193 0 0 -40z m853 33 c4 -3 -1 -15 -10
-26 -10 -11 -13 -17 -6 -14 6 4 14 3 18 -3 9 -14 -18 -13 -33 2 -19 19 -15 48
6 48 10 0 22 -3 25 -7z m37 -30 c0 -16 -4 -23 -8 -17 -4 6 -14 14 -22 17 -12
4 -11 6 3 6 9 1 17 6 17 11 0 6 2 10 5 10 3 0 5 -12 5 -27z m-1236 -106 l28
-3 2 -122 c1 -119 0 -122 -21 -122 -12 0 -28 -3 -37 -6 -14 -5 -16 11 -16 137
0 79 4 139 8 132 4 -6 20 -13 36 -16z m-131 -130 l2 -127 -32 0 -33 0 0 124
c0 129 3 137 43 133 17 -2 19 -14 20 -130z m1477 109 c0 -3 -4 -8 -10 -11 -5
-3 -10 -1 -10 4 0 6 5 11 10 11 6 0 10 -2 10 -4z m-840 -41 c0 -32 -3 -35 -29
-35 -26 0 -29 3 -29 35 0 32 3 35 29 35 26 0 29 -3 29 -35z m890 0 c0 -19 -2
-35 -4 -35 -2 0 -6 16 -8 35 -2 19 0 35 4 35 4 0 8 -16 8 -35z m-1055 -71 c8
-44 -3 -57 -41 -52 -26 3 -29 7 -32 46 -3 42 -3 42 31 42 32 0 35 -3 42 -36z
m-785 -88 c0 -28 5 -36 28 -44 l27 -10 -27 -1 c-14 -1 -28 3 -30 7 -1 5 -23
15 -48 23 -33 11 -44 19 -42 32 2 12 -4 17 -22 17 -21 0 -25 -5 -29 -37 l-4
-38 -1 43 -2 42 75 0 75 0 0 -34z m1040 -1 c0 -34 -1 -35 -40 -35 -39 0 -40 1
-40 35 0 34 1 35 40 35 39 0 40 -1 40 -35z m-3280 -76 c0 -27 -3 -29 -40 -29
-39 0 -40 1 -40 33 0 32 1 32 40 29 37 -4 40 -7 40 -33z m2622 1 c3 -37 2 -40
-23 -40 -34 0 -36 3 -31 45 3 29 8 35 27 35 19 0 23 -6 27 -40z m418 0 l0 -40
-123 0 -123 0 4 40 4 40 119 0 119 0 0 -40z m391 3 c0 -16 3 -49 5 -75 l5 -48
-40 0 c-21 0 -41 4 -43 9 -1 5 -18 6 -35 4 -31 -5 -33 -7 -33 -49 l0 -44 -39
0 c-36 0 -39 2 -43 31 -3 17 -3 53 0 80 l5 49 80 0 80 0 -6 35 c-6 34 -5 35
29 35 30 0 34 -3 35 -27z m-3511 -83 c0 -35 -3 -40 -22 -39 -17 1 -19 2 -5 6
11 3 17 14 17 33 l0 29 -77 4 -78 3 83 2 82 2 0 -40z m2327 -33 c-2 -7 -22
-12 -43 -11 -36 1 -39 3 -42 32 -3 30 -2 31 40 34 39 3 43 1 46 -20 2 -13 1
-29 -1 -35z m-197 -17 c14 -4 20 -8 13 -9 -12 -1 -10 -31 2 -51 4 -7 -62 -10
-189 -10 l-196 0 0 33 c0 19 3 37 7 40 9 10 333 7 363 -3z m101 5 c3 -2 3 -20
1 -40 -4 -32 -7 -35 -38 -35 -33 0 -34 1 -34 40 0 39 1 40 33 40 19 0 36 -2
38 -5z m1339 -33 c0 -27 -4 -39 -14 -39 -9 0 -16 14 -18 39 -3 31 0 38 14 38
14 0 18 -8 18 -38z m308 29 c7 -4 12 -12 11 -17 -4 -25 3 -43 19 -47 27 -7
-188 -8 -257 -1 -63 7 -74 17 -43 40 14 11 14 14 2 14 -10 1 -9 4 5 10 26 11
246 12 263 1z m-1670 -157 c26 -7 30 -33 5 -35 -17 -1 -17 -2 0 -6 9 -2 17
-11 17 -19 0 -12 -38 -14 -235 -14 l-235 0 0 40 0 40 213 0 c116 0 222 -3 235
-6z m1632 -34 l0 -40 -159 0 c-162 0 -218 12 -113 24 31 4 65 9 75 12 31 10
18 24 -23 24 -22 0 -40 -4 -40 -10 0 -10 -8 -9 -70 6 -29 8 -19 10 65 15 55 3
137 6 183 7 l82 2 0 -40z m-4002 -151 c3 -34 1 -37 -29 -43 -37 -7 -52 7 -43
39 10 32 26 46 48 43 16 -2 22 -11 24 -39z m-1118 -24 c0 -22 -4 -25 -35 -25
-31 0 -35 3 -35 25 0 22 4 25 35 25 31 0 35 -3 35 -25z m1085 -163 c9 -6 35
-77 35 -96 0 -3 -15 -6 -34 -6 -40 0 -52 21 -41 76 6 33 19 41 40 26z m-1085
-62 l0 -40 -124 0 -124 0 -4 40 -4 40 128 0 128 0 0 -40z m3424 34 c10 -4 16
-18 16 -35 0 -27 3 -29 40 -29 35 0 40 -3 40 -24 0 -12 3 -51 7 -86 l6 -63
-86 8 -87 7 0 -47 0 -46 -37 3 c-36 3 -38 5 -41 43 l-3 40 -114 2 -114 1 -3
-41 -3 -42 -47 -3 -48 -3 -2 48 -1 48 -4 -42 c-4 -40 -6 -43 -34 -43 l-29 0 0
70 c0 65 1 70 24 76 14 3 30 3 35 -1 7 -4 11 10 11 39 l0 46 85 0 85 0 0 40 0
40 144 0 c79 0 151 -3 160 -6z m1704 -34 l-4 -40 56 -2 c30 -1 64 -2 75 -2 16
-1 21 -9 23 -38 3 -34 6 -37 39 -40 31 -3 38 -8 44 -32 11 -38 5 -46 -36 -46
-32 0 -34 -2 -37 -37 -3 -37 -4 -38 -43 -38 -37 0 -40 2 -43 31 -3 30 -5 31
-64 38 -102 10 -100 11 -96 -31 3 -37 2 -38 -34 -41 l-38 -3 0 47 0 46 -85 -7
-85 -7 0 31 c0 30 2 31 41 31 24 0 38 4 34 10 -3 6 -40 10 -81 10 -64 0 -74 2
-74 18 0 9 -3 27 -6 40 -5 18 -2 22 19 22 24 0 25 2 14 30 -6 17 -16 31 -22
31 -37 6 97 15 239 17 l168 3 -4 -41z m-6098 -514 c-5 -5 -13 -7 -16 -3 -14
14 -4 485 11 507 7 10 11 -66 13 -239 1 -160 -1 -258 -8 -265z m1370 356 l0
-38 -40 4 c-38 4 -40 6 -40 38 0 33 1 34 40 34 40 0 40 0 40 -38z m4290 28
c13 0 19 -9 22 -35 4 -34 3 -35 -29 -35 -28 0 -33 3 -33 24 0 13 -3 32 -7 42
-5 14 -3 16 11 11 10 -4 26 -7 36 -7z m-3589 -103 c18 5 19 -4 19 -181 l0
-186 -40 0 -40 0 0 183 c0 101 3 187 6 190 4 4 14 3 22 -2 8 -5 23 -6 33 -4z
m4099 -83 l0 -45 -37 3 c-33 3 -38 7 -41 31 -5 45 4 57 43 57 35 0 35 0 35
-46z m-1450 -14 c0 -11 -4 -20 -9 -20 -5 0 -7 9 -4 20 3 11 7 20 9 20 2 0 4
-9 4 -20z m-3570 -70 l0 -40 -49 0 c-46 0 -49 1 -55 31 -8 43 -2 49 55 49 l49
0 0 -40z m3500 -35 l0 -75 -40 0 -40 0 0 -45 0 -45 44 0 c62 0 96 -15 96 -41
0 -12 3 -20 6 -17 5 6 13 114 14 186 l0 32 360 0 c208 0 360 -4 360 -9 0 -5
18 -7 39 -4 29 4 39 2 39 -8 -2 -38 3 -49 25 -49 34 0 45 -12 49 -50 3 -30 7
-35 36 -41 18 -4 36 -10 40 -14 4 -3 8 -40 10 -82 l4 -76 57 6 c83 9 101 2
101 -39 l0 -34 80 0 80 0 0 -40 0 -40 68 0 68 0 -4 -34 c-4 -34 -3 -35 39 -41
24 -3 112 -8 194 -10 175 -5 175 -5 176 -19 1 -6 5 7 9 29 6 36 7 34 11 -30
l4 -70 -35 -3 c-33 -2 -56 -20 -42 -34 4 -4 25 -8 47 -11 35 -3 33 -4 -14 -5
l-53 -2 4 35 c4 35 4 35 -35 35 -39 0 -39 0 -35 -35 4 -34 3 -35 -32 -35 -20
0 -45 -6 -55 -14 -13 -9 -27 -11 -42 -5 -22 8 -23 6 -23 -31 l0 -40 -240 0
-240 0 0 38 0 37 -640 -1 c-352 -1 -640 -4 -640 -8 0 -3 0 -19 0 -35 l0 -29
604 5 c332 3 620 3 640 -1 34 -6 36 -9 36 -44 l0 -37 276 0 276 0 -4 38 -4 37
43 0 c23 0 44 -4 47 -9 3 -5 21 -5 41 -1 l36 8 -7 -71 c-4 -40 -9 -74 -11 -77
-3 -3 -214 -7 -469 -8 l-464 -4 0 36 0 36 -519 0 -520 0 -3 -32 -3 -33 -275 0
-275 0 -3 38 c-3 37 -4 37 -48 37 l-44 0 0 40 0 40 45 0 45 0 0 -40 0 -40 281
0 280 0 -3 36 -3 36 -185 -1 c-102 -1 -211 -4 -242 -7 l-58 -7 0 57 0 56 -79
0 -80 0 -3 38 c-3 35 -5 37 -38 37 -33 0 -35 -2 -38 -37 -3 -34 -6 -38 -30
-37 -24 2 -24 2 -4 6 15 3 22 11 22 29 0 20 -5 24 -29 24 -26 0 -30 -4 -34
-32 -4 -32 -4 -32 -5 5 -2 36 -3 37 -42 37 l-40 0 0 -40 c0 -39 -1 -40 -35
-40 l-35 0 0 79 0 80 81 7 81 7 -4 33 c-4 33 -3 34 34 34 37 0 38 1 38 35 l0
35 60 0 60 0 0 -35 0 -36 63 3 62 3 3 38 3 37 73 0 c40 0 128 3 195 7 l123 6
-4 34 -4 33 49 0 50 0 -6 40 c-5 40 -5 40 28 40 27 0 34 -5 38 -22 2 -13 5 5
6 40 l1 62 -40 0 -40 0 0 40 0 40 -110 0 c-98 0 -112 -2 -131 -21 -15 -15 -24
-18 -32 -10 -8 8 -7 11 4 11 12 0 12 2 -1 11 -12 8 -11 9 5 7 17 -3 20 4 23
40 l3 42 120 0 119 0 0 40 0 40 80 0 80 0 0 -75z m1116 66 c-3 -5 -3 -23 0
-40 l7 -31 78 0 79 0 0 -34 0 -33 -64 -7 c-79 -8 -96 -2 -96 35 0 32 -30 54
-61 46 -11 -3 -19 0 -18 6 1 7 1 21 0 32 -2 19 -2 19 -12 2 -6 -10 -8 -25 -5
-32 4 -11 -2 -14 -27 -11 -29 3 -32 7 -35 40 l-3 36 81 0 c45 0 79 -4 76 -9z
m-4243 -17 c-4 -12 -8 -13 -13 -3 -13 19 -38 3 -43 -28 -3 -23 -4 -22 -6 10
-1 36 0 37 34 37 27 0 33 -3 28 -16z m-575 -41 c-10 -2 -26 -2 -35 0 -10 3 -2
5 17 5 19 0 27 -2 18 -5z m-50 -45 c-3 -31 -1 -33 37 -38 39 -5 40 -6 43 -49
l3 -44 -38 6 c-21 4 -44 7 -50 7 -8 0 -13 14 -13 35 0 34 -1 35 -40 35 -39 0
-40 1 -40 33 0 43 5 47 57 47 42 0 43 0 41 -32z m3007 2 c3 -5 -3 -10 -14 -10
-12 0 -21 -5 -21 -12 0 -6 -3 -9 -6 -5 -4 3 -4 13 -1 22 7 17 33 20 42 5z
m-3168 -92 l2 -38 -45 0 c-43 0 -44 1 -44 33 0 43 6 49 49 45 33 -3 35 -5 38
-40z m793 3 c0 -37 -2 -39 -36 -43 -19 -2 -37 -2 -38 1 -2 3 -1 23 1 44 5 35
7 37 39 37 33 0 34 -1 34 -39z m2665 17 c4 -13 8 -27 9 -33 0 -5 17 -13 36
-16 26 -5 17 -7 -35 -8 -38 -1 -80 -4 -92 -7 -21 -6 -23 -3 -23 40 l0 46 49 0
c42 0 50 -3 56 -22z m1895 -18 l0 -40 -72 0 -73 0 0 40 0 40 73 0 72 0 0 -40z
m-5772 -102 c-1 -73 -3 -116 -5 -94 -3 23 -14 48 -28 62 l-24 24 -4 -28 c-2
-15 -4 2 -4 38 -1 49 1 58 7 35 7 -28 8 -28 9 -5 1 27 13 51 27 53 5 1 9 12 9
25 -1 12 3 22 7 22 4 0 7 -60 6 -132z m769 36 c-3 -3 -12 -4 -19 -1 -8 3 -5 6
6 6 11 1 17 -2 13 -5z m43 -24 c0 -28 -2 -30 -40 -30 -22 0 -40 5 -40 10 0 6
7 10 16 10 9 0 23 8 31 18 13 16 13 15 7 -7 -4 -16 -3 -21 5 -17 6 4 11 16 11
27 0 10 2 19 5 19 3 0 5 -13 5 -30z m64 -36 c10 -4 16 -18 16 -35 0 -26 -3
-29 -35 -29 -33 0 -35 2 -35 35 0 36 15 44 54 29z m-787 -206 c-2 -13 -4 -5
-4 17 -1 22 1 32 4 23 2 -10 2 -28 0 -40z m3560 46 c-3 -3 -12 -4 -19 -1 -8 3
-5 6 6 6 11 1 17 -2 13 -5z m2371 -31 c3 -32 2 -33 -37 -33 -39 0 -41 2 -41
29 0 31 10 38 50 37 21 -1 26 -7 28 -33z m-5841 -95 c-2 -13 -4 -5 -4 17 -1
22 1 32 4 23 2 -10 2 -28 0 -40z m6097 -142 c-10 -8 -21 -12 -24 -10 -5 6 21
24 34 24 6 0 1 -6 -10 -14z m-3072 -92 c-4 -30 -8 -34 -33 -34 -27 0 -29 3
-29 38 0 37 1 38 33 34 31 -3 33 -6 29 -38z m3066 -55 l-3 -48 35 -4 c32 -3
31 -4 -9 -5 l-44 -2 7 38 c3 20 6 55 7 77 1 26 3 32 6 16 3 -13 3 -45 1 -72z
m-3102 -119 c8 0 19 10 24 23 8 21 9 21 9 -5 1 -25 -3 -28 -29 -28 l-30 0 2
58 2 57 3 -52 c3 -39 8 -53 19 -53z m924 -781 c0 -39 0 -39 40 -39 39 0 40 -1
40 -35 0 -35 0 -35 46 -35 l46 0 -4 35 c-4 34 -3 35 32 35 36 0 36 -1 32 -32
l-5 -33 -9 28 c-6 15 -17 27 -25 27 -12 0 -15 -8 -10 -41 6 -48 13 -57 29 -41
7 7 44 12 95 12 l83 0 1 -112 c1 -62 4 -101 6 -85 4 24 8 27 44 27 l39 0 0 85
0 85 40 0 40 0 0 -80 0 -80 39 0 c22 0 41 -5 43 -10 2 -6 1 30 0 80 l-4 90
120 0 121 0 3 -42 c3 -42 4 -43 41 -46 35 -3 37 -5 37 -38 0 -33 1 -34 40 -34
l40 0 0 -40 0 -40 40 0 40 0 0 40 c0 39 1 40 34 40 24 0 36 -5 39 -17 3 -10 5
14 6 53 0 39 4 99 7 133 l7 61 38 0 39 0 0 45 c0 43 1 45 30 45 28 0 30 -2 30
-40 0 -33 -3 -38 -17 -34 -15 5 -16 4 -3 -5 8 -6 34 -11 57 -11 41 0 42 -1 45
-37 3 -35 6 -39 41 -47 33 -9 37 -13 37 -42 0 -17 3 -46 6 -63 6 -31 6 -31
-35 -31 l-41 0 0 -45 0 -45 90 0 90 0 -1 28 -1 27 -7 -25 c-7 -23 -8 -22 -12
11 l-5 36 90 7 c49 3 103 6 121 6 l31 0 2 -240 3 -240 -25 0 c-14 0 -37 -5
-51 -10 -24 -9 -27 -15 -23 -45 4 -32 2 -34 -27 -37 -26 -3 -30 -7 -33 -35 -3
-30 -6 -33 -36 -33 -39 0 -56 -15 -56 -51 0 -25 -4 -28 -37 -31 -37 -3 -38 -4
-35 -40 l4 -38 -81 0 -80 0 -3 38 c-3 35 -5 37 -40 40 -36 3 -38 5 -38 38 0
32 -2 34 -34 34 l-33 0 -6 68 c-4 37 -7 127 -7 200 l0 132 103 2 c72 1 84 3
40 5 -62 4 -63 4 -63 33 l0 30 70 0 70 0 0 -37 c0 -26 3 -34 10 -27 6 6 10 43
8 85 l-3 74 -67 3 c-43 2 -68 7 -68 14 0 7 -6 4 -13 -6 -10 -14 -23 -17 -50
-14 l-37 4 0 -49 c0 -41 -3 -48 -16 -43 -9 3 -42 6 -74 6 l-59 0 -3 38 c-3 36
-4 37 -45 40 l-43 3 0 -40 c0 -40 -1 -41 -34 -41 -35 0 -46 -13 -46 -51 0 -14
-7 -19 -26 -19 -17 0 -23 4 -18 13 5 8 2 8 -9 -2 -15 -12 -17 -10 -17 23 l0
36 -85 0 -85 0 0 44 0 45 -117 1 c-65 0 -191 -3 -280 -6 l-163 -7 0 -32 c0
-41 12 -45 143 -45 l97 0 0 -40 0 -40 154 0 155 0 3 -37 c2 -21 2 -76 0 -122
l-4 -83 -34 5 -34 6 0 -166 c0 -146 -2 -164 -16 -159 -9 3 -63 6 -120 6 l-104
0 0 33 c0 31 -1 32 -48 34 -26 1 -80 5 -120 9 l-74 6 4 28 c4 27 2 28 -46 34
-28 3 -66 6 -83 6 -31 0 -33 2 -33 38 l0 38 -39 -4 c-32 -3 -42 0 -53 17 -7
12 -20 21 -28 21 -8 0 -20 10 -25 23 -9 20 -18 22 -92 25 l-83 3 0 39 c0 39
-1 40 -35 40 -19 0 -35 5 -35 10 0 6 9 10 21 10 15 0 19 5 15 15 -3 8 4 21 15
28 18 13 13 15 -50 21 -69 7 -70 7 -73 39 -3 27 -8 33 -43 43 -36 10 -40 14
-43 47 -3 36 -4 37 -43 37 l-39 0 0 195 0 195 48 0 c81 0 182 -12 182 -22 0
-5 -9 -7 -19 -3 -22 7 -34 -6 -25 -29 9 -23 23 -20 17 4 -4 16 -2 19 11 14 10
-4 16 -15 14 -28 -3 -20 2 -21 80 -24 l82 -3 0 -39 c0 -32 4 -39 18 -38 53 4
62 -1 62 -36 l0 -33 79 -7 80 -7 3 -32 3 -32 79 0 79 0 1 43 1 42 -40 0 -40 0
2 48 c2 26 0 41 -3 35 -3 -7 -23 -13 -45 -13 -39 0 -39 0 -39 40 0 40 0 40 39
40 22 0 41 -5 44 -12 6 -16 -3 71 -9 91 -3 10 -15 12 -39 8 -35 -6 -35 -6 -35
32 0 38 0 38 40 38 40 0 40 0 40 -38z m-223 -16 c-3 -10 -5 -2 -5 17 0 19 2
27 5 18 2 -10 2 -26 0 -35z m1263 -143 l0 -40 -40 0 -40 0 0 40 0 40 40 0 40
0 0 -40z m138 30 c7 0 12 -13 12 -30 0 -28 -3 -30 -35 -30 -34 0 -35 2 -35 36
0 33 2 36 23 30 12 -3 28 -6 35 -6z m-68 -99 c0 -24 -5 -29 -30 -33 -28 -4
-30 -3 -30 29 0 30 3 33 30 33 26 0 30 -3 30 -29z m-4378 -171 l4 -40 -208 0
-208 0 0 40 0 40 204 0 204 0 4 -40z m1678 10 c0 -28 3 -30 38 -31 78 -3 -60
-17 -175 -18 l-113 -1 0 -40 0 -40 -85 0 -85 0 0 -41 c0 -33 -3 -40 -16 -35
-9 3 -23 6 -32 6 -13 0 -12 3 4 15 11 8 14 15 7 15 -7 0 -13 7 -13 15 0 8 -4
15 -9 15 -13 0 -20 -25 -14 -49 5 -19 1 -21 -36 -21 l-41 0 0 -40 0 -41 -40 3
-40 2 0 80 0 81 80 -3 80 -4 0 35 0 35 80 7 80 7 0 33 c0 41 2 41 193 44 l137
1 0 -30z m-2352 -71 c2 -5 16 -7 30 -4 15 3 21 2 15 -1 -24 -11 -13 -21 20
-18 25 3 27 2 9 -4 -13 -4 -24 -11 -25 -17 -3 -15 -27 -15 -27 1 0 11 -7 13
-27 8 -44 -10 -47 -10 -51 9 -7 32 6 49 30 41 13 -3 24 -11 26 -15z m973 -16
l-6 -38 -3 32 c-3 29 -7 32 -40 36 -35 3 -34 4 8 5 l46 2 -5 -37z m193 -55
c10 -10 11 -19 3 -35 -10 -22 -15 -23 -140 -23 -114 0 -128 2 -123 16 3 9 6
22 6 29 0 16 33 21 153 23 58 1 92 -2 101 -10z m5650 -18 c-4 -16 -3 -37 1
-47 7 -17 8 -17 15 2 7 17 9 17 9 2 1 -12 8 -17 29 -15 15 1 82 1 150 0 l122
-2 0 -35 c0 -35 0 -35 45 -35 43 0 45 -1 45 -29 0 -15 -3 -49 -6 -75 -6 -44
-8 -46 -40 -46 -23 0 -34 5 -34 15 0 9 6 12 15 9 8 -4 15 -1 15 6 0 7 6 10 13
7 8 -3 14 2 14 10 0 11 -8 14 -28 11 -18 -3 -30 1 -34 9 -4 11 -31 14 -122 12
l-118 -1 3 36 4 36 -65 0 c-35 0 -92 3 -126 6 l-61 7 0 33 0 34 -86 0 c-79 0
-86 2 -91 21 -4 16 -8 17 -14 7 -7 -10 -9 -8 -9 6 0 39 27 45 197 46 l163 0
-6 -30z m-6932 8 c-7 -7 -12 -20 -12 -30 0 -10 -4 -18 -10 -18 -5 0 -10 14
-10 30 0 24 4 30 22 30 17 0 19 -3 10 -12z m1418 -83 c0 -8 -2 -15 -4 -15 -2
0 -6 7 -10 15 -3 8 -1 15 4 15 6 0 10 -7 10 -15z m-800 -354 c0 -32 -3 -86 -6
-120 l-7 -61 -33 0 -34 0 0 120 0 120 40 0 40 0 0 -59z m1288 13 c-4 -33 -3
-34 34 -34 38 0 38 0 38 -40 0 -39 1 -40 35 -40 34 0 35 -1 35 -40 0 -40 0
-40 39 -40 40 0 40 0 43 -42 3 -41 5 -43 37 -45 19 -2 37 -6 40 -9 3 -3 7
-216 9 -474 l4 -469 -38 -7 c-22 -4 -42 -12 -46 -18 -4 -6 -8 -57 -8 -113 l0
-103 -35 0 -35 0 0 -80 0 -80 -75 0 -75 0 0 30 c0 19 5 30 14 30 8 0 18 5 21
10 4 6 -18 10 -59 10 l-66 0 0 -115 0 -115 -34 0 c-35 0 -46 -15 -46 -65 0
-18 -5 -20 -40 -17 -35 4 -40 1 -40 -16 0 -31 -11 -52 -26 -52 -8 0 -14 -4
-14 -9 0 -5 -9 -13 -20 -16 -18 -6 -20 -15 -20 -79 0 -73 0 -73 -25 -68 -19 3
-25 11 -26 31 -1 20 -2 21 -6 6 -2 -11 -8 -29 -13 -40 -5 -11 -11 -33 -12 -50
-3 -26 -8 -30 -35 -33 -30 -3 -33 -6 -33 -38 0 -34 0 -34 -45 -34 -45 0 -45 0
-45 35 0 35 0 35 -44 35 -63 0 -106 -10 -106 -26 0 -8 15 -14 38 -16 l37 -3 3
-93 3 -92 -46 0 c-45 0 -45 0 -45 35 l0 35 -80 0 -80 0 0 34 c0 45 -20 50
-171 41 l-118 -7 9 -24 c5 -13 6 -25 2 -25 -19 -4 90 -18 141 -18 l57 -1 0
-39 0 -39 80 -7 80 -7 0 -34 0 -34 68 0 c38 0 110 -3 160 -6 l92 -7 0 -73 0
-74 44 0 c24 0 58 -3 75 -6 27 -6 31 -10 31 -40 0 -33 1 -34 40 -34 l40 0 0
-80 0 -80 44 0 c50 0 56 9 56 96 0 55 8 64 56 64 23 0 24 2 24 79 0 43 -3 99
-6 125 -6 44 -8 46 -40 46 l-34 0 0 110 0 110 35 0 c33 0 35 -2 35 -35 0 -35
0 -35 45 -35 l45 0 0 -40 0 -40 75 0 75 0 0 -39 0 -38 48 -5 c26 -2 97 -4 157
-3 l110 0 3 36 c3 36 4 36 55 43 29 3 82 6 120 6 l67 0 0 -39 c0 -36 2 -39 35
-45 23 -5 35 -13 36 -24 1 -9 2 -62 3 -117 l1 -100 38 -3 37 -3 0 -80 0 -79
44 0 c44 0 45 0 48 -37 3 -35 6 -38 36 -41 l32 -3 0 -122 0 -123 40 4 c39 4
40 3 40 -26 0 -16 -3 -50 -6 -76 l-7 -46 -68 0 -68 0 -3 -37 -3 -36 -82 2 -83
2 0 -45 c0 -44 -1 -46 -29 -46 -28 0 -30 3 -33 43 l-3 42 -82 3 -83 3 0 41 0
41 -200 -6 -200 -6 0 39 c0 40 0 40 -40 40 l-40 0 0 40 c0 41 -6 45 -67 43 -8
-1 -13 13 -13 38 l0 39 -75 0 -75 0 0 39 c0 41 -11 51 -55 51 -20 0 -24 6 -27
37 -3 37 -4 38 -45 41 -42 3 -43 4 -43 38 l0 34 -85 0 -85 0 0 -40 0 -40 -120
0 -120 0 0 -34 0 -33 -66 -6 c-37 -4 -68 -8 -69 -9 -2 -2 -6 -38 -10 -80 l-7
-78 41 0 c40 0 41 -1 41 -35 0 -34 -1 -35 -40 -35 -39 0 -40 1 -40 34 0 32 -2
34 -40 38 l-40 4 0 -84 c0 -52 -4 -81 -10 -77 -5 3 -26 3 -45 -1 l-36 -6 3
-194 3 -194 -37 0 c-38 0 -38 0 -38 40 0 40 0 40 -39 40 l-39 0 -7 76 -8 76
-33 -5 -34 -6 0 51 0 51 -46 -6 -46 -5 4 34 c4 33 3 34 -34 34 l-38 0 0 50 0
50 -35 0 c-33 0 -35 2 -35 35 0 35 0 35 -45 35 l-45 0 0 40 0 40 -40 0 c-39 0
-40 1 -40 34 0 33 -2 35 -37 38 -37 3 -38 4 -41 46 -3 42 -3 42 -43 42 l-39 0
0 274 c0 316 -8 294 101 281 l59 -7 0 90 c0 49 3 123 6 165 l7 77 33 0 c33 0
34 1 34 40 0 40 0 40 39 40 l38 0 7 53 c3 28 6 67 6 85 0 31 2 32 40 32 38 0
40 2 40 30 0 28 3 30 35 30 35 0 35 0 35 44 0 46 9 56 56 56 23 0 24 2 24 80
l0 80 40 -6 40 -7 0 77 0 76 40 0 40 0 0 41 0 42 40 -6 40 -5 0 128 0 127 41
-4 c22 -3 60 -2 85 2 35 5 44 10 44 26 0 11 7 19 17 19 29 0 63 41 63 76 0 31
2 33 38 36 36 3 37 4 40 46 3 42 3 42 43 42 l39 0 0 126 0 126 33 -4 32 -3 3
78 3 77 45 0 45 0 -7 115 -7 115 31 0 c52 0 62 8 62 52 l0 41 40 -6 40 -5 0
39 c0 38 1 39 35 39 35 0 35 1 35 43 l0 42 126 -3 126 -3 -4 -35z m-1029 -31
c58 -7 62 -10 54 -42 -4 -17 -8 -19 -14 -9 -7 10 -9 10 -9 1 0 -21 -18 -14
-26 10 -9 28 -22 37 -56 37 -21 0 -26 4 -21 16 4 10 8 12 13 5 3 -7 30 -14 59
-18z m4941 -198 l0 -205 -40 0 -40 0 0 -80 0 -80 -40 0 -40 0 0 -75 0 -75 -34
0 c-30 0 -35 4 -39 28 -2 15 -5 -6 -6 -45 -1 -69 -2 -73 -26 -79 -14 -3 -32
-4 -40 0 -13 4 -15 -8 -15 -74 l0 -80 -40 0 -40 0 0 -40 c0 -40 0 -40 -40 -40
l-39 0 -3 -77 -3 -78 -37 1 -38 1 0 -43 0 -44 -40 0 -40 0 0 -40 c0 -22 -4
-40 -9 -40 -5 0 -7 -18 -4 -40 5 -39 5 -40 -24 -40 -30 0 -30 1 -37 61 -3 34
-6 304 -6 600 l0 539 -40 0 -40 0 0 -525 c0 -413 -3 -525 -12 -525 -44 1 -57
13 -60 54 -3 41 -3 41 -45 44 -43 3 -43 3 -43 43 0 39 0 39 -40 39 l-40 0 0
40 0 40 -40 0 -40 0 0 75 0 75 -40 0 -40 0 0 40 0 40 -40 0 c-40 0 -40 0 -40
39 0 39 -1 40 -37 43 -35 3 -38 6 -41 35 -3 30 -7 34 -43 39 -38 6 -39 8 -39
45 0 39 0 39 -40 39 l-40 0 0 40 0 40 -40 0 c-37 0 -40 2 -40 28 0 34 -16 52
-46 52 -17 0 -23 8 -28 40 -6 39 -7 40 -46 40 -40 0 -40 0 -40 40 l0 40 -40 0
-40 0 0 40 0 40 -40 0 -40 0 0 40 0 40 200 0 200 0 -3 -40 -3 -40 168 0 168 0
0 35 c0 34 1 35 38 35 20 0 180 2 355 5 l317 4 0 -40 0 -39 125 0 125 0 0 39
c0 37 2 40 33 43 28 3 32 7 35 36 3 30 5 32 45 33 23 1 56 5 72 9 17 4 33 8
38 9 4 0 7 -91 7 -204z m-4801 163 c-1 -24 -3 -27 -6 -10 -5 27 -19 28 -35 2
-18 -28 -28 -25 -28 10 0 28 3 30 35 30 33 0 35 -2 34 -32z m59 -151 c3 -14
-1 -18 -20 -15 -12 2 -24 11 -26 21 -3 14 1 18 20 15 12 -2 24 -11 26 -21z
m102 -18 c0 -20 -4 -29 -12 -26 -7 2 -25 0 -40 -4 -27 -7 -28 -6 -28 27 0 33
1 34 40 34 38 0 40 -2 40 -31z m-375 -48 c20 -4 26 -9 18 -14 -7 -5 -13 -15
-13 -23 0 -8 5 -12 10 -9 6 3 10 2 10 -4 0 -6 -12 -14 -27 -17 -16 -4 -31 -12
-35 -18 -5 -8 -8 -7 -8 2 0 9 -38 12 -155 12 l-155 0 0 -36 c0 -34 -1 -35 -32
-32 -28 3 -31 6 -32 37 -1 18 5 36 11 38 7 3 10 9 7 14 -9 15 16 51 32 45 8
-3 14 -1 14 4 0 11 306 12 355 1z m135 -107 c0 -32 -2 -34 -33 -34 -30 0 -34
4 -43 38 l-10 37 43 -4 c42 -3 43 -4 43 -37z m-960 17 c0 -3 -4 -12 -9 -19
-11 -19 -61 -5 -61 17 0 14 7 16 35 13 19 -2 35 -7 35 -11z m-10 -118 c0 -42
-3 -74 -6 -70 -3 3 -17 2 -30 -3 l-24 -10 0 80 0 80 30 0 30 0 0 -77z m408
-29 l0 -85 -37 3 -36 3 -3 69 c-4 88 0 96 41 96 l34 0 1 -86z m634 44 c3 -41
4 -43 36 -44 19 -1 41 6 50 15 15 15 15 14 9 -2 -4 -10 -7 -23 -7 -29 0 -5
-12 -7 -28 -3 -42 9 -55 -14 -63 -109 l-6 -81 -1 68 -2 67 -30 0 -30 0 0 80 0
80 34 0 c34 0 35 -1 38 -42z m5366 -85 l3 -43 -35 0 c-32 0 -36 3 -42 36 -8
41 5 56 46 52 22 -3 25 -8 28 -45z m-6160 5 c2 -19 -2 -28 -18 -33 -32 -10
-79 4 -92 28 l-12 22 -7 -25 c-6 -23 -7 -22 -8 8 l-1 33 68 -3 c64 -3 67 -4
70 -30z m3122 15 c0 -27 -12 -39 -42 -47 -27 -6 -28 -5 -28 29 0 33 2 35 35
35 27 0 35 -4 35 -17z m-104 -63 c20 0 24 -5 24 -30 0 -28 -2 -30 -40 -30 -39
0 -40 1 -40 36 0 29 3 35 16 30 9 -3 27 -6 40 -6z m3074 -31 c0 -27 3 -29 40
-29 l40 0 0 -45 c0 -45 0 -45 35 -45 33 0 35 -2 35 -35 0 -34 -1 -35 -40 -35
l-40 0 0 -40 0 -40 -40 0 c-39 0 -40 1 -40 35 0 33 -2 35 -35 35 -34 0 -35 1
-35 40 0 39 1 40 35 40 34 0 35 1 35 40 0 39 -1 40 -35 40 -29 0 -36 4 -41 25
-10 41 -1 51 45 47 38 -4 41 -6 41 -33z m150 -4 c0 -33 2 -35 35 -35 34 0 35
-1 35 -41 0 -39 -1 -40 -32 -37 -30 3 -33 6 -36 40 -3 33 -6 37 -35 40 -28 3
-32 7 -35 36 -3 31 -2 32 32 32 34 0 36 -2 36 -35z m-5753 -37 c-2 -13 -4 -5
-4 17 -1 22 1 32 4 23 2 -10 2 -28 0 -40z m5423 -33 c0 -32 -2 -35 -30 -35
-28 0 -30 3 -30 35 0 32 2 35 30 35 28 0 30 -3 30 -35z m88 -157 l3 -38 -40 0
c-40 0 -41 1 -41 34 0 37 11 46 50 43 21 -2 25 -8 28 -39z m312 -5 c0 -35 -2
-38 -29 -38 -27 0 -30 4 -33 38 -3 36 -3 37 29 37 31 0 33 -2 33 -37z m-5783
16 c-9 -6 -26 -7 -37 -4 -17 5 -20 2 -20 -24 l0 -31 -85 0 -85 0 10 26 c6 14
10 27 10 29 0 2 -17 5 -37 7 -21 2 30 5 112 6 108 1 145 -1 132 -9z m-537
-258 c0 -5 3 -16 6 -25 5 -13 -2 -16 -35 -16 -37 0 -41 2 -41 25 0 22 4 25 35
25 19 0 35 -4 35 -9z m473 -58 c-13 -2 -33 -2 -45 0 -13 2 -3 4 22 4 25 0 35
-2 23 -4z m6119 -263 l4 -40 -173 0 -173 0 0 40 0 40 169 0 169 0 4 -40z m58
-160 l0 -40 -200 0 -200 0 0 40 0 40 200 0 200 0 0 -40z m-4724 -157 c4 -32 3
-33 -37 -33 l-41 0 4 -45 3 -45 -47 0 -48 0 0 -80 0 -80 -75 0 -75 0 0 34 c0
18 -3 54 -6 80 l-7 46 51 0 50 0 -5 80 -6 81 118 -3 118 -3 3 -32z m2387 -43
l97 0 0 -40 0 -40 -120 0 -120 0 0 46 c0 43 2 46 23 40 12 -3 66 -6 120 -6z
m-863 -34 c0 -32 -2 -34 -46 -40 -26 -3 -62 -6 -80 -6 -31 0 -34 3 -36 33 l-1
32 -4 -32 c-4 -30 -7 -33 -39 -33 -36 0 -41 10 -28 58 6 21 11 22 120 22 l114
0 0 -34z m2648 -8 l3 -37 -80 1 -81 1 0 32 c0 17 3 35 7 39 4 4 39 5 78 4 l70
-3 3 -37z m-6215 -394 c-3 -9 0 -20 8 -25 11 -7 9 -9 -7 -9 -17 0 -20 5 -16
30 2 16 8 27 13 25 4 -3 5 -13 2 -21z m3557 -89 l0 -35 -75 0 c-75 0 -75 0
-76 28 l-2 27 -4 -27 c-4 -24 -9 -28 -39 -28 -32 0 -34 2 -34 35 l0 35 115 0
115 0 0 -35z m2640 5 l0 -30 -75 0 -75 0 0 30 0 30 75 0 75 0 0 -30z m-1700
-81 c0 -33 -3 -40 -16 -35 -9 3 -38 6 -65 6 l-49 0 0 35 0 35 65 0 65 0 0 -41z
m190 1 l0 -40 -90 0 -90 0 0 40 0 40 90 0 90 0 0 -40z m-4810 -75 c0 -23 -2
-24 -20 -15 -11 6 -20 16 -21 23 -1 7 -5 1 -9 -13 l-8 -25 -1 28 c-1 24 3 27
29 27 25 0 30 -4 30 -25z m-43 -115 c3 -16 9 -30 14 -30 15 0 10 -40 -6 -56
-8 -9 -16 -27 -16 -42 -2 -45 -18 46 -18 106 -1 56 16 71 26 22z m40 -102 c-2
-24 -4 -7 -4 37 0 44 2 63 4 43 2 -21 2 -57 0 -80z m3683 -23 c4 -16 5 -34 3
-40 -2 -6 -49 -10 -116 -10 l-112 0 -3 40 -3 40 113 0 113 0 5 -30z m1850 -86
l0 -39 -85 0 -85 0 0 43 0 42 85 -3 85 -3 0 -40z m797 -4 l2 -35 -80 0 -79 0
0 35 0 35 78 0 77 0 2 -35z m-1587 -75 l0 -40 -125 0 -125 0 0 40 0 40 125 0
125 0 0 -40z m-3398 -299 c-38 -7 -39 -26 -2 -26 25 0 25 -1 28 -97 l3 -98 39
0 c39 0 40 -1 40 -35 0 -34 -1 -35 -40 -35 l-40 0 0 -40 0 -40 -40 0 -40 0 0
45 c0 45 0 45 35 45 31 0 35 3 35 25 0 22 -4 25 -36 25 l-37 0 7 72 c4 40 12
76 19 80 8 5 7 8 -5 8 -14 0 -18 9 -18 40 l0 40 43 -1 c40 -2 41 -2 9 -8z
m2340 -26 l-4 -35 -62 -1 c-33 -1 -82 -2 -108 -3 l-48 -1 0 38 0 37 113 0 113
0 -4 -35z m1096 -32 c-21 -2 -57 -2 -80 0 -24 2 -7 4 37 4 44 0 63 -2 43 -4z
m-3133 -12 c-12 -5 -22 -21 -26 -42 l-6 -34 -2 40 c-1 38 1 41 27 42 22 1 24
0 7 -6z m3007 -31 l4 -40 -83 0 -83 0 0 40 0 40 79 0 79 0 4 -40z m-3394 -47
c-20 -3 -28 -11 -31 -31 -4 -24 -4 -24 -6 6 -1 30 1 32 32 31 29 -2 29 -2 5
-6z m5062 -10 c0 -10 3 -28 6 -40 6 -22 4 -23 -75 -23 -44 0 -81 4 -81 9 0 5
3 23 6 40 l7 31 68 0 c59 0 69 -3 69 -17z m-4719 -7 c-6 -7 -9 -21 -5 -30 5
-13 -1 -16 -28 -16 -30 0 -34 3 -36 30 -2 29 -1 30 39 30 34 0 39 -2 30 -14z
m2084 -190 l0 -42 -45 7 c-25 4 -73 8 -106 8 l-62 1 -4 35 c-2 20 -3 37 -2 38
1 1 51 1 111 -1 l108 -3 0 -43z m-3685 14 c0 -28 -3 -30 -35 -30 -32 0 -35 2
-35 30 0 28 3 30 35 30 32 0 35 -2 35 -30z m3101 -130 c12 -7 19 -21 19 -40 0
-29 1 -30 50 -30 l50 0 0 -41 c0 -41 0 -41 35 -37 35 4 35 4 35 -34 0 -37 -1
-38 -35 -38 -33 0 -35 2 -35 35 0 21 -5 36 -12 36 -7 1 -29 2 -48 3 -27 1 -35
5 -36 21 -3 59 9 55 -158 55 l-154 0 2 35 c2 24 -1 35 -13 38 -9 3 51 5 132 6
86 1 157 -3 168 -9z m-2388 -85 c13 12 16 11 21 -8 11 -42 7 -47 -33 -47 -37
0 -39 2 -43 35 -4 34 -3 34 18 20 20 -13 25 -13 37 0z m6017 -34 l0 -40 -39 5
c-38 4 -38 4 -45 -33 -3 -21 -6 -53 -6 -70 0 -37 -28 -47 -37 -13 -3 11 -9 17
-14 14 -5 -3 -9 20 -9 50 0 54 0 55 33 58 29 3 32 6 32 36 0 31 1 32 42 32
l43 0 0 -39z m-3812 -123 c-9 -7 -18 -22 -21 -33 -4 -16 -5 -15 -6 6 -1 29 6
39 28 39 13 0 13 -2 -1 -12z m140 -12 c-8 -9 -15 -10 -19 -3 -4 5 -13 7 -21 4
-8 -3 -21 -1 -29 4 -9 6 2 9 34 9 40 0 46 -2 35 -14z m-1281 -18 c-3 -8 -6 -5
-6 6 -1 11 2 17 5 13 3 -3 4 -12 1 -19z m4810 -20 c-3 -8 -6 -5 -6 6 -1 11 2
17 5 13 3 -3 4 -12 1 -19z"/>
<path d="M2250 9633 c0 -21 5 -33 13 -33 8 0 19 -10 25 -22 11 -21 11 -20 9
12 -1 26 -6 35 -19 34 -10 -1 -16 1 -14 5 3 4 1 13 -5 21 -6 11 -9 6 -9 -17z"/>
<path d="M5040 6440 l0 -40 -40 0 c-39 0 -40 -1 -40 -35 0 -34 1 -35 40 -35
39 0 40 1 40 35 0 33 2 35 35 35 34 0 35 -1 35 -40 0 -39 -1 -40 -35 -40 -34
0 -35 -1 -35 -40 l0 -40 40 0 40 0 0 41 0 41 38 -4 c20 -3 46 -9 57 -13 17 -7
18 -6 8 6 -6 8 -13 32 -15 54 l-3 40 -48 -3 -49 -3 7 41 7 40 -41 0 -41 0 0
-40z"/>
<path d="M5602 6438 c3 -42 4 -43 41 -43 40 0 54 -18 42 -55 -5 -16 -15 -20
-46 -20 -39 0 -39 0 -39 39 0 36 -3 40 -31 46 -39 9 -46 1 -51 -52 l-4 -43 43
0 c40 0 42 -1 45 -32 3 -30 6 -33 41 -36 l37 -3 0 40 c0 41 0 41 39 41 39 0
40 -1 44 -37 2 -21 4 -2 5 42 l2 80 -42 0 c-42 0 -43 1 -46 38 -3 36 -4 37
-43 37 l-40 0 3 -42z"/>
<path d="M3994 6136 c-11 -44 1 -58 48 -54 42 3 43 4 43 38 0 34 -1 35 -42 38
-38 3 -43 1 -49 -22z"/>
<path d="M6748 5993 c7 -3 16 -2 19 1 4 3 -2 6 -13 5 -11 0 -14 -3 -6 -6z"/>
<path d="M5460 4449 c0 -5 9 -9 20 -9 11 0 20 2 20 4 0 2 -9 6 -20 9 -11 3
-20 1 -20 -4z"/>
<path d="M4311 4184 c0 -11 3 -14 6 -6 3 7 2 16 -1 19 -3 4 -6 -2 -5 -13z"/>
<path d="M6880 3165 c0 -34 1 -35 40 -35 39 0 40 1 40 35 0 34 -1 35 -40 35
-39 0 -40 -1 -40 -35z"/>
<path d="M2100 598 c0 -4 7 -8 15 -8 8 0 15 4 15 8 0 5 -7 9 -15 9 -8 0 -15
-4 -15 -9z"/>
<path d="M7160 40 c0 -5 5 -10 11 -10 5 0 7 5 4 10 -3 6 -8 10 -11 10 -2 0 -4
-4 -4 -10z"/>
<path d="M2155 5411 c-6 -36 -10 -40 -38 -43 l-32 -3 -3 -122 -3 -123 -34 0
c-33 0 -35 -2 -35 -35 0 -35 0 -35 -45 -35 l-45 0 0 -128 0 -128 40 1 c40 1
40 0 40 -37 l0 -38 360 0 360 0 0 35 c0 35 0 35 45 35 l45 0 0 50 0 50 -45 0
-45 0 0 40 c0 39 -1 40 -35 40 -33 0 -35 2 -35 34 0 33 -2 35 -45 42 l-45 6 0
154 0 154 -40 0 -40 0 0 45 0 45 -159 0 -159 0 -7 -39z m325 -91 l0 -40 -120
0 -120 0 0 -35 c0 -32 -2 -35 -27 -34 -24 2 -25 2 -5 6 22 4 33 43 11 43 -5 0
-7 5 -4 10 3 6 1 10 -5 10 -7 0 -10 6 -7 14 3 8 -5 22 -19 33 l-25 18 43 6
c24 3 96 7 161 7 l117 2 0 -40z m-12 -127 c-10 -2 -28 -2 -40 0 -13 2 -5 4 17
4 22 1 32 -1 23 -4z"/>
<path d="M8074 3746 c-3 -8 -4 -25 -2 -38 2 -19 10 -24 43 -26 l41 -3 -4 41
c-4 38 -6 40 -38 40 -21 0 -37 -6 -40 -14z"/>
<path d="M8154 3654 c3 -9 6 -22 6 -30 0 -8 10 -14 24 -14 46 0 56 -10 56 -54
l0 -42 40 4 40 4 0 -41 0 -41 -40 0 c-40 0 -40 0 -40 -38 l0 -37 117 2 116 3
1 30 c1 28 -1 30 -36 30 l-37 0 -3 87 -3 86 -77 -2 -78 -2 0 35 0 36 -46 0
c-38 0 -45 -3 -40 -16z"/>
<path d="M8000 3435 c0 -52 3 -94 8 -94 4 1 22 1 40 0 29 -1 32 -4 32 -31 0
-24 4 -30 23 -30 32 0 45 -11 49 -44 3 -28 6 -29 53 -31 l50 -1 0 -37 0 -36
70 -6 c39 -3 87 -4 107 -3 37 3 38 4 38 45 l0 42 30 -11 c53 -18 60 -8 60 82
l0 81 -37 -3 c-36 -3 -38 -5 -41 -40 -3 -35 -5 -37 -40 -40 -34 -3 -37 -6 -40
-35 -3 -32 -5 -33 -49 -33 l-45 0 4 35 4 35 -78 0 -78 0 0 43 c0 42 0 42 -37
42 l-38 0 -3 83 -3 82 -39 0 -40 0 0 -95z"/>
<path d="M8033 3293 c9 -2 23 -2 30 0 6 3 -1 5 -18 5 -16 0 -22 -2 -12 -5z"/>
<path d="M8570 3160 c0 -39 1 -40 34 -40 33 0 35 -2 38 -37 3 -36 5 -38 41
-41 l37 -3 0 -80 0 -79 40 0 41 0 -3 82 -3 83 -37 -3 -38 -4 0 41 0 41 -40 0
-40 0 0 40 c0 39 -1 40 -35 40 -34 0 -35 -1 -35 -40z"/>
<path d="M7837 2954 c-4 -4 -7 -14 -7 -23 0 -11 3 -12 11 -4 6 6 10 16 7 23
-2 6 -7 8 -11 4z"/>
<path d="M8800 2835 c0 -34 1 -35 40 -35 39 0 40 1 40 35 0 34 -1 35 -40 35
-39 0 -40 -1 -40 -35z"/>
<path d="M8913 2793 l-33 -4 2 -77 c1 -47 3 -60 5 -34 l4 42 80 0 80 0 -3 38
-3 37 -50 1 c-27 1 -65 -1 -82 -3z"/>
<path d="M9055 2708 c-3 -7 -6 -24 -7 -38 -3 -22 1 -25 34 -28 35 -3 37 -5 40
-40 3 -35 5 -37 41 -40 l38 -3 -3 38 c-3 36 -5 38 -40 41 -37 3 -38 4 -38 43
0 37 -2 39 -30 39 -17 0 -33 -6 -35 -12z"/>
<path d="M9238 2562 c-25 -3 -28 -7 -28 -43 0 -36 2 -39 29 -39 25 0 30 -5 35
-33 5 -29 11 -34 49 -43 39 -8 42 -11 45 -46 3 -36 5 -38 37 -38 30 0 36 -4
41 -27 10 -48 12 -50 43 -56 30 -6 30 -7 33 -79 l3 -73 35 0 c27 0 35 4 34 18
0 9 -1 44 -2 77 l-2 60 -35 0 c-34 0 -35 1 -35 39 0 40 0 40 -42 43 -43 3 -43
3 -41 41 2 37 2 37 -37 37 -38 0 -39 1 -42 38 -3 36 -4 37 -45 40 -42 3 -42 3
-45 45 -3 39 -5 42 -30 39z"/>
<path d="M9604 2054 c3 -9 6 -24 6 -35 0 -14 7 -19 29 -19 25 0 29 4 33 35 4
35 4 35 -35 35 -32 0 -38 -3 -33 -16z"/>
<path d="M9690 1960 c0 -28 3 -30 35 -30 32 0 35 2 35 30 0 28 -3 30 -35 30
-32 0 -35 -2 -35 -30z"/>
<path d="M8322 1888 c2 -36 7 -43 25 -44 42 -2 53 -12 53 -49 l0 -35 79 0 79
0 7 -50 c7 -49 8 -50 41 -50 l34 0 0 -109 0 -108 -25 5 c-13 2 -36 1 -50 -2
-22 -6 -24 -11 -20 -41 4 -34 3 -35 -29 -35 -37 0 -46 -12 -46 -61 0 -27 -3
-29 -35 -29 l-35 0 0 -120 0 -120 -40 0 -40 0 0 -78 0 -78 -40 4 -40 4 0 -47
0 -47 -37 4 c-37 3 -38 2 -41 -34 -3 -37 -4 -38 -43 -38 l-39 0 0 -45 0 -45
-40 0 c-39 0 -40 -1 -40 -35 0 -34 -1 -35 -40 -35 l-40 0 0 -44 c0 -44 0 -45
-37 -48 -36 -3 -38 -5 -41 -40 l-3 -38 -195 0 -195 0 3 -37 3 -38 100 -6 c55
-3 94 -6 88 -7 -8 -1 -13 -17 -13 -37 l0 -34 -137 -3 -138 -3 0 -35 0 -35 163
-3 162 -2 0 -35 0 -35 -85 -1 c-47 -1 -89 -3 -95 -4 -5 -1 -21 -3 -35 -4 -22
-1 -25 -5 -25 -41 l0 -40 240 0 240 0 0 65 0 65 -41 0 c-36 0 -41 2 -36 20 4
16 0 20 -21 20 -23 -1 -25 -2 -9 -11 9 -5 17 -16 17 -24 0 -7 10 -16 23 -18
15 -3 11 -5 -13 -6 -27 -1 -31 -4 -20 -11 11 -7 5 -10 -24 -10 -38 0 -38 0
-34 35 l4 35 -42 0 -42 0 -4 80 -3 80 123 0 122 0 0 -40 0 -40 40 0 c40 0 40
0 40 39 l0 39 80 7 80 7 0 39 c0 39 0 39 -40 39 -39 0 -40 1 -40 36 0 35 1 35
37 32 36 -3 38 -5 45 -47 8 -45 -6 -308 -16 -319 -3 -3 -6 7 -6 21 0 23 -4 27
-30 27 -26 0 -30 -3 -30 -29 0 -43 40 -66 62 -36 4 6 8 -14 8 -42 l0 -53 290
0 290 0 0 36 c0 34 1 35 32 32 l32 -3 -3 48 -3 47 46 0 46 0 0 40 0 40 45 0
c45 0 45 0 45 35 l0 35 69 0 70 0 3 43 c2 24 8 43 16 43 6 1 25 2 41 3 26 1
30 5 36 41 l7 39 76 3 77 3 3 32 c3 28 8 33 38 39 32 6 34 9 34 45 0 39 0 39
40 39 l40 0 0 40 0 40 40 0 40 0 0 40 0 40 -70 0 -70 0 0 34 c0 32 -1 34 -47
40 -126 16 -123 15 -123 52 0 31 3 34 30 34 28 0 30 3 30 35 0 33 -2 35 -35
35 l-35 0 0 128 0 127 -40 -1 -40 -2 0 39 c0 38 1 39 35 39 43 0 46 14 6 28
-25 9 -30 8 -34 -9 -4 -14 -14 -19 -41 -19 -35 0 -36 1 -36 39 l0 38 -162 7
c-90 4 -164 9 -166 11 -2 2 0 36 4 75 l7 72 113 -4 114 -4 0 43 0 43 -200 0
-200 0 0 81 0 81 -117 -3 -118 -4 0 48 0 47 -43 0 -43 0 3 -42z m434 -688 c32
0 44 -4 44 -15 0 -8 -5 -15 -11 -15 -5 0 -7 5 -4 10 4 6 -7 10 -25 10 -17 0
-29 -4 -26 -8 2 -4 1 -14 -5 -22 -7 -12 -9 -10 -9 8 0 12 -7 25 -15 28 -8 4
-12 10 -9 15 7 11 1 11 -29 0 -23 -9 -25 -7 -29 24 -4 33 -2 34 32 37 34 3 35
2 38 -34 3 -38 3 -38 48 -38z m172 -7 c-33 -4 -37 -8 -41 -36 -4 -31 -4 -31
-5 6 l-2 37 43 -2 42 -1 -37 -4z m-245 -56 c31 -4 31 -4 -5 -5 -34 -2 -38 1
-37 21 1 15 3 17 6 5 2 -10 17 -18 36 -21z m117 3 c0 -5 -5 -10 -11 -10 -5 0
-7 5 -4 10 3 6 8 10 11 10 2 0 4 -4 4 -10z m74 -85 c-4 -8 -8 -15 -10 -15 -2
0 -4 7 -4 15 0 8 4 15 10 15 5 0 7 -7 4 -15z m86 -48 l0 -63 35 4 c33 4 35 3
35 -27 0 -30 -2 -31 -43 -31 -40 0 -43 2 -42 28 0 19 -5 26 -15 24 -11 -2 -10
2 4 12 14 12 17 25 15 65 -2 28 -1 51 4 51 4 0 7 -28 7 -63z m-117 26 c-7 -2
-21 -2 -30 0 -10 3 -4 5 12 5 17 0 24 -2 18 -5z m-183 -7 c0 -2 -7 -6 -15 -10
-8 -3 -15 -1 -15 4 0 6 7 10 15 10 8 0 15 -2 15 -4z m47 -2 c-3 -3 -12 -4 -19
-1 -8 3 -5 6 6 6 11 1 17 -2 13 -5z m64 -55 c25 -10 29 -17 29 -50 0 -37 1
-38 38 -41 35 -3 37 -5 40 -39 3 -34 5 -37 34 -35 27 1 30 -2 33 -31 2 -20 -3
-34 -11 -37 -10 -4 -14 2 -14 19 0 13 -4 27 -10 30 -6 4 -10 -7 -10 -24 0 -24
-4 -31 -20 -31 -13 0 -20 7 -20 19 0 21 -23 45 -33 34 -4 -3 -7 -1 -7 5 0 7
-5 12 -11 12 -8 0 -8 -4 1 -15 10 -11 9 -18 -3 -30 -9 -8 -20 -15 -26 -15 -14
0 -14 -13 1 -28 16 -16 -30 -32 -93 -32 -38 0 -49 -3 -49 -16 0 -13 7 -15 43
-10 23 3 76 0 118 -7 53 -9 76 -10 77 -3 0 6 3 20 6 31 2 11 5 23 5 28 2 17
21 5 27 -18 8 -32 24 -32 24 -1 0 14 5 28 10 31 6 4 10 -10 10 -35 0 -34 -3
-41 -15 -36 -25 9 -55 -16 -55 -46 0 -26 -3 -28 -38 -28 -21 0 -42 -3 -46 -7
-4 -4 -26 -6 -50 -4 l-44 2 -3 -43 -4 -43 48 3 47 4 0 -39 0 -40 -42 6 c-24 3
-59 5 -79 3 l-36 -3 5 -45 5 -44 -47 6 -47 7 3 -34 c3 -31 6 -34 43 -40 l40
-6 -37 -2 c-37 -1 -38 -2 -38 -38 0 -44 -7 -41 -12 7 -4 34 -5 35 -45 32 -39
-3 -40 -3 -41 32 -1 31 2 36 21 36 52 0 67 11 67 46 l0 34 -49 0 c-51 0 -73
12 -47 27 8 4 16 19 18 33 2 21 9 26 41 28 35 3 37 5 37 38 0 33 -1 34 -39 34
-22 0 -42 -6 -45 -12 -4 -7 -4 25 -1 72 3 47 5 102 5 124 0 30 3 37 15 32 9
-3 18 1 21 9 4 8 10 13 15 10 4 -3 12 9 17 27 4 18 15 33 23 33 8 0 21 8 30
19 10 12 29 19 56 20 35 0 42 4 46 23 6 30 -19 30 -50 1 -29 -27 -35 -21 -23
21 5 18 7 38 4 45 -4 10 7 11 52 5 31 -4 69 -13 85 -20z m-221 -66 c0 -8 -12
-12 -32 -12 -31 2 -31 2 -5 6 15 2 27 9 27 14 0 6 -4 7 -10 4 -6 -3 -7 1 -3
10 5 13 7 14 14 3 5 -7 9 -19 9 -25z m60 1 c0 -8 -5 -12 -10 -9 -6 4 -8 11 -5
16 9 14 15 11 15 -7z m317 -10 c-3 -3 -12 -4 -19 -1 -8 3 -5 6 6 6 11 1 17 -2
13 -5z m-502 -84 c3 -5 1 -10 -4 -10 -6 0 -11 5 -11 10 0 6 2 10 4 10 3 0 8
-4 11 -10z m72 -5 c0 -8 -4 -15 -9 -15 -4 0 -8 7 -8 15 0 8 4 15 8 15 5 0 9
-7 9 -15z m531 -45 c3 -38 2 -40 -28 -40 -31 0 -41 16 -15 26 8 4 15 13 15 22
0 13 -2 13 -13 -3 -13 -17 -14 -17 -19 3 -6 20 1 25 48 31 5 0 11 -17 12 -39z
m-579 -30 c14 -7 17 -17 12 -46 -5 -31 -10 -37 -34 -40 -24 -2 -26 0 -22 22
18 85 14 80 44 64z m-70 -214 c-9 -8 -10 -7 -5 7 3 10 7 26 7 35 1 9 4 6 6 -7
3 -13 -1 -28 -8 -35z m79 29 c-3 -14 -1 -28 3 -31 5 -3 9 -12 9 -20 0 -27 -28
9 -33 42 -4 29 -4 29 -6 -3 0 -22 -6 -33 -16 -33 -17 0 -21 25 -5 35 5 3 7 12
3 20 -4 11 2 15 22 15 24 0 27 -3 23 -25z m-218 -74 c-6 -12 -16 -18 -25 -15
-18 7 -18 1 -5 -47 8 -30 15 -36 38 -36 15 -1 56 -9 92 -20 l65 -19 1 -39 c1
-37 3 -40 27 -37 28 3 38 -20 15 -34 -8 -5 -9 -2 -5 9 7 18 -1 21 -20 9 -6 -4
-11 -22 -10 -41 l2 -34 -87 -3 -88 -3 1 58 c1 72 -4 81 -42 81 -16 0 -29 5
-29 10 0 6 5 10 11 10 8 0 9 24 4 82 -7 72 -6 80 9 75 27 -11 46 4 47 37 2 29
2 29 6 4 2 -15 -1 -36 -7 -47z m100 29 c0 -5 -4 -10 -10 -10 -5 0 -10 5 -10
10 0 6 5 10 10 10 6 0 10 -4 10 -10z"/>
<path d="M8640 951 c0 -5 9 -7 20 -4 11 3 20 7 20 9 0 2 -9 4 -20 4 -11 0 -20
-4 -20 -9z"/>
<path d="M8740 951 c0 -5 6 -11 14 -14 8 -3 16 -16 19 -29 3 -15 5 -10 6 15 1
31 -2 37 -19 37 -11 0 -20 -4 -20 -9z"/>
<path d="M8630 860 c0 -11 4 -20 9 -20 5 0 7 9 4 20 -3 11 -7 20 -9 20 -2 0
-4 -9 -4 -20z"/>
<path d="M8560 819 c0 -5 5 -7 10 -4 6 3 10 8 10 11 0 2 -4 4 -10 4 -5 0 -10
-5 -10 -11z"/>
<path d="M8553 737 c-3 -5 -2 -47 2 -93 l7 -84 34 0 c33 0 34 1 34 40 0 22 -3
39 -7 39 -5 -1 -20 -1 -35 0 -26 1 -28 4 -28 46 l0 45 40 0 c22 0 40 -4 40
-10 0 -12 47 -13 54 -1 6 10 -48 23 -102 25 -19 0 -36 -3 -39 -7z"/>
<path d="M8653 553 c9 -2 25 -2 35 0 9 3 1 5 -18 5 -19 0 -27 -2 -17 -5z"/>
<path d="M8650 480 c8 -5 22 -9 30 -9 10 0 8 3 -5 9 -27 12 -43 12 -25 0z"/>
<path d="M8570 445 c0 -32 2 -35 30 -35 28 0 30 3 30 35 0 32 -2 35 -30 35
-28 0 -30 -3 -30 -35z"/>
<path d="M9760 1681 l0 -239 -27 -10 c-27 -10 -28 -11 -5 -17 22 -7 22 -8 22
-231 l0 -224 -30 0 c-28 0 -30 -2 -30 -41 0 -33 3 -40 16 -35 9 3 24 6 35 6
15 0 19 7 19 35 0 34 1 35 40 35 l40 0 0 480 0 480 -40 0 -40 0 0 -239z"/>
<path d="M9343 1635 c0 -22 2 -30 4 -17 2 12 2 30 0 40 -3 9 -5 -1 -4 -23z"/>
<path d="M9370 1075 c0 -32 2 -35 30 -35 28 0 30 3 30 35 0 32 -2 35 -30 35
-28 0 -30 -3 -30 -35z"/>
<path d="M9614 871 c-2 -2 -4 -19 -4 -38 0 -31 2 -33 35 -33 34 0 35 1 35 38
0 35 -2 37 -31 37 -17 0 -33 -2 -35 -4z"/>
<path d="M2242 528 c3 -29 7 -33 36 -36 31 -3 32 -2 32 32 0 35 -1 36 -36 36
-34 0 -35 -1 -32 -32z"/>
<path d="M2320 461 c0 -37 12 -51 41 -51 26 0 29 3 29 35 0 33 -2 35 -35 35
-28 0 -35 -4 -35 -19z"/>
<path d="M2480 445 c0 -33 2 -35 35 -35 33 0 35 2 35 35 0 33 -2 35 -35 35
-33 0 -35 -2 -35 -35z"/>
<path d="M2244 386 c-3 -8 -4 -25 -2 -38 2 -19 11 -24 43 -28 37 -5 40 -8 43
-37 3 -29 7 -33 33 -33 27 0 29 3 29 35 0 33 -2 35 -35 35 -34 0 -35 1 -35 40
0 39 -1 40 -35 40 -22 0 -38 -6 -41 -14z"/>
<path d="M2410 365 c0 -32 2 -35 30 -35 28 0 30 3 30 35 0 32 -2 35 -30 35
-28 0 -30 -3 -30 -35z"/>
<path d="M2404 234 c3 -9 6 -24 6 -35 0 -14 7 -19 30 -19 28 0 30 3 30 35 0
34 -2 35 -36 35 -29 0 -35 -3 -30 -16z"/>
<path d="M2564 228 c3 -13 6 -29 6 -35 0 -8 13 -13 29 -13 27 0 29 3 28 35 -1
33 -3 35 -35 35 -31 0 -34 -2 -28 -22z"/>
<path d="M7880 240 c0 -5 5 -10 10 -10 6 0 10 5 10 10 0 6 -4 10 -10 10 -5 0
-10 -4 -10 -10z"/>
<path d="M2480 131 c0 -40 1 -41 36 -41 35 0 35 1 32 38 -3 34 -6 37 -35 40
-32 3 -33 2 -33 -37z"/>
<path d="M2640 125 c0 -33 2 -35 35 -35 33 0 35 2 35 35 0 33 -2 35 -35 35
-33 0 -35 -2 -35 -35z"/>
<path d="M2560 66 c0 -32 13 -46 41 -46 16 0 29 -4 29 -10 0 -5 7 -10 16 -10
14 0 14 1 0 16 -9 8 -16 26 -16 40 0 21 -5 24 -35 24 -24 0 -35 -5 -35 -14z"/>
<path d="M7990 40 c0 -5 5 -10 10 -10 6 0 10 5 10 10 0 6 -4 10 -10 10 -5 0
-10 -4 -10 -10z"/>
<path d="M8035 10 c-3 -5 -1 -10 4 -10 6 0 11 5 11 10 0 6 -2 10 -4 10 -3 0
-8 -4 -11 -10z"/>
</g>
</svg>
